%TF.GenerationSoftware,KiCad,Pcbnew,9.0.6*%
%TF.CreationDate,2026-05-29T09:01:13+02:00*%
%TF.ProjectId,carte_esp32,63617274-655f-4657-9370-33322e6b6963,rev?*%
%TF.SameCoordinates,Original*%
%TF.FileFunction,Plated,1,2,PTH,Drill*%
%TF.FilePolarity,Positive*%
%FSLAX46Y46*%
G04 Gerber Fmt 4.6, Leading zero omitted, Abs format (unit mm)*
G04 Created by KiCad (PCBNEW 9.0.6) date 2026-05-29 09:01:13*
%MOMM*%
%LPD*%
G01*
G04 APERTURE LIST*
%TA.AperFunction,ViaDrill*%
%ADD10C,0.600000*%
%TD*%
%TA.AperFunction,ComponentDrill*%
%ADD11C,0.750000*%
%TD*%
%TA.AperFunction,ComponentDrill*%
%ADD12C,1.000000*%
%TD*%
%TA.AperFunction,ComponentDrill*%
%ADD13C,1.100000*%
%TD*%
%TA.AperFunction,ComponentDrill*%
%ADD14C,1.500000*%
%TD*%
%TA.AperFunction,ComponentDrill*%
%ADD15C,3.200000*%
%TD*%
G04 APERTURE END LIST*
D10*
X170250000Y-92000000D03*
X170250000Y-95000000D03*
X170250000Y-98250000D03*
X170250000Y-100750000D03*
X170250000Y-104750000D03*
X170500000Y-107500000D03*
X180250000Y-93250000D03*
X180250000Y-100750000D03*
X180250000Y-108000000D03*
X183250000Y-123000000D03*
X190500000Y-92750000D03*
X190750000Y-95750000D03*
X190750000Y-99500000D03*
X191000000Y-106750000D03*
X191250000Y-102750000D03*
X198750000Y-96250000D03*
D11*
%TO.C,J1*%
X159500000Y-91950000D03*
%TO.C,J2*%
X159500000Y-98250000D03*
%TO.C,J3*%
X159500000Y-104750000D03*
%TO.C,J1*%
X161500000Y-91950000D03*
%TO.C,J2*%
X161500000Y-98250000D03*
%TO.C,J3*%
X161500000Y-104750000D03*
%TO.C,J1*%
X163500000Y-91950000D03*
%TO.C,J2*%
X163500000Y-98250000D03*
%TO.C,J3*%
X163500000Y-104750000D03*
%TO.C,J1*%
X165500000Y-91950000D03*
%TO.C,J2*%
X165500000Y-98250000D03*
%TO.C,J3*%
X165500000Y-104750000D03*
D12*
%TO.C,U1*%
X159960000Y-147230000D03*
X162500000Y-147230000D03*
X165040000Y-147230000D03*
D13*
%TO.C,U5*%
X170300000Y-110240000D03*
X170300000Y-112780000D03*
X170300000Y-115320000D03*
X170300000Y-117860000D03*
X170300000Y-120400000D03*
X170300000Y-122940000D03*
X170300000Y-125480000D03*
X170300000Y-128020000D03*
X170300000Y-130560000D03*
X170300000Y-133100000D03*
X170300000Y-135640000D03*
X170300000Y-138180000D03*
X170300000Y-140720000D03*
X170300000Y-143260000D03*
X170300000Y-145800000D03*
X170300000Y-148340000D03*
X170300000Y-150880000D03*
X170300000Y-153420000D03*
X170300000Y-155960000D03*
X195700000Y-110240000D03*
X195700000Y-112780000D03*
X195700000Y-115320000D03*
X195700000Y-117860000D03*
X195700000Y-120400000D03*
X195700000Y-122940000D03*
X195700000Y-125480000D03*
X195700000Y-128020000D03*
X195700000Y-130560000D03*
X195700000Y-133100000D03*
X195700000Y-135640000D03*
X195700000Y-138180000D03*
X195700000Y-140720000D03*
X195700000Y-143260000D03*
X195700000Y-145800000D03*
X195700000Y-148340000D03*
X195700000Y-150880000D03*
X195700000Y-153420000D03*
X195700000Y-155960000D03*
D14*
%TO.C,J4*%
X161050000Y-117710000D03*
X161050000Y-122790000D03*
D15*
%TO.C,H1*%
X162500000Y-154000000D03*
%TO.C,H2*%
X196500000Y-91500000D03*
M02*
