G04 #@! TF.GenerationSoftware,KiCad,Pcbnew,9.0.6*
G04 #@! TF.CreationDate,2026-05-29T09:01:18+02:00*
G04 #@! TF.ProjectId,carte_esp32,63617274-655f-4657-9370-33322e6b6963,rev?*
G04 #@! TF.SameCoordinates,Original*
G04 #@! TF.FileFunction,Copper,L2,Bot*
G04 #@! TF.FilePolarity,Positive*
%FSLAX46Y46*%
G04 Gerber Fmt 4.6, Leading zero omitted, Abs format (unit mm)*
G04 Created by KiCad (PCBNEW 9.0.6) date 2026-05-29 09:01:18*
%MOMM*%
%LPD*%
G01*
G04 APERTURE LIST*
G04 Aperture macros list*
%AMRoundRect*
0 Rectangle with rounded corners*
0 $1 Rounding radius*
0 $2 $3 $4 $5 $6 $7 $8 $9 X,Y pos of 4 corners*
0 Add a 4 corners polygon primitive as box body*
4,1,4,$2,$3,$4,$5,$6,$7,$8,$9,$2,$3,0*
0 Add four circle primitives for the rounded corners*
1,1,$1+$1,$2,$3*
1,1,$1+$1,$4,$5*
1,1,$1+$1,$6,$7*
1,1,$1+$1,$8,$9*
0 Add four rect primitives between the rounded corners*
20,1,$1+$1,$2,$3,$4,$5,0*
20,1,$1+$1,$4,$5,$6,$7,0*
20,1,$1+$1,$6,$7,$8,$9,0*
20,1,$1+$1,$8,$9,$2,$3,0*%
G04 Aperture macros list end*
%ADD10C,0.300000*%
G04 #@! TA.AperFunction,ComponentPad*
%ADD11C,3.600000*%
G04 #@! TD*
G04 #@! TA.AperFunction,ConnectorPad*
%ADD12C,5.600000*%
G04 #@! TD*
G04 #@! TA.AperFunction,ComponentPad*
%ADD13R,2.500000X1.800000*%
G04 #@! TD*
G04 #@! TA.AperFunction,ComponentPad*
%ADD14O,2.500000X1.800000*%
G04 #@! TD*
G04 #@! TA.AperFunction,ComponentPad*
%ADD15RoundRect,0.250000X-0.350000X-0.625000X0.350000X-0.625000X0.350000X0.625000X-0.350000X0.625000X0*%
G04 #@! TD*
G04 #@! TA.AperFunction,ComponentPad*
%ADD16O,1.200000X1.750000*%
G04 #@! TD*
G04 #@! TA.AperFunction,ComponentPad*
%ADD17R,2.000000X2.500000*%
G04 #@! TD*
G04 #@! TA.AperFunction,ComponentPad*
%ADD18O,2.000000X2.500000*%
G04 #@! TD*
G04 #@! TA.AperFunction,ComponentPad*
%ADD19R,4.000000X3.000000*%
G04 #@! TD*
G04 #@! TA.AperFunction,ComponentPad*
%ADD20O,4.000000X3.000000*%
G04 #@! TD*
G04 #@! TA.AperFunction,SMDPad,CuDef*
%ADD21RoundRect,0.250000X0.325000X0.650000X-0.325000X0.650000X-0.325000X-0.650000X0.325000X-0.650000X0*%
G04 #@! TD*
G04 #@! TA.AperFunction,SMDPad,CuDef*
%ADD22R,1.690599X0.532600*%
G04 #@! TD*
G04 #@! TA.AperFunction,SMDPad,CuDef*
%ADD23RoundRect,0.250000X-0.325000X-0.650000X0.325000X-0.650000X0.325000X0.650000X-0.325000X0.650000X0*%
G04 #@! TD*
G04 #@! TA.AperFunction,SMDPad,CuDef*
%ADD24RoundRect,0.250000X0.312500X0.625000X-0.312500X0.625000X-0.312500X-0.625000X0.312500X-0.625000X0*%
G04 #@! TD*
G04 #@! TA.AperFunction,ViaPad*
%ADD25C,2.000000*%
G04 #@! TD*
G04 #@! TA.AperFunction,Conductor*
%ADD26C,0.500000*%
G04 #@! TD*
G04 APERTURE END LIST*
D10*
G36*
X185536411Y-143718882D02*
G01*
X185484060Y-143692707D01*
X185450828Y-143626242D01*
X185450828Y-143411349D01*
X185484060Y-143344884D01*
X185550524Y-143311653D01*
X185617858Y-143311653D01*
X185536411Y-143718882D01*
G37*
G36*
X183121495Y-140718882D02*
G01*
X183069144Y-140692707D01*
X183035912Y-140626242D01*
X183035912Y-140411349D01*
X183069144Y-140344884D01*
X183135608Y-140311653D01*
X183202942Y-140311653D01*
X183121495Y-140718882D01*
G37*
G36*
X180706579Y-139861740D02*
G01*
X180654228Y-139835565D01*
X180620996Y-139769100D01*
X180620996Y-139554207D01*
X180654228Y-139487742D01*
X180720692Y-139454511D01*
X180788026Y-139454511D01*
X180706579Y-139861740D01*
G37*
G36*
X186117597Y-139487742D02*
G01*
X186150828Y-139554205D01*
X186150828Y-139840528D01*
X186136695Y-139868796D01*
X185879400Y-139868796D01*
X185879400Y-139554205D01*
X185912631Y-139487741D01*
X185979095Y-139454510D01*
X186051133Y-139454510D01*
X186117597Y-139487742D01*
G37*
G36*
X181287765Y-137344886D02*
G01*
X181320996Y-137411349D01*
X181320996Y-137697672D01*
X181306863Y-137725940D01*
X181049568Y-137725940D01*
X181049568Y-137411349D01*
X181082799Y-137344885D01*
X181149263Y-137311654D01*
X181221301Y-137311654D01*
X181287765Y-137344886D01*
G37*
G36*
X183121495Y-136933168D02*
G01*
X183069144Y-136906993D01*
X183035912Y-136840528D01*
X183035912Y-136625635D01*
X183069144Y-136559170D01*
X183135608Y-136525939D01*
X183202942Y-136525939D01*
X183121495Y-136933168D01*
G37*
G36*
X185536411Y-135433168D02*
G01*
X185484060Y-135406993D01*
X185450828Y-135340528D01*
X185450828Y-135125635D01*
X185484060Y-135059170D01*
X185550524Y-135025939D01*
X185617858Y-135025939D01*
X185536411Y-135433168D01*
G37*
G36*
X181287765Y-133559172D02*
G01*
X181320996Y-133625635D01*
X181320996Y-133911958D01*
X181306863Y-133940226D01*
X181049568Y-133940226D01*
X181049568Y-133625635D01*
X181082799Y-133559171D01*
X181149263Y-133525940D01*
X181221301Y-133525940D01*
X181287765Y-133559172D01*
G37*
G36*
X186117597Y-131916314D02*
G01*
X186150828Y-131982777D01*
X186150828Y-132269100D01*
X186136695Y-132297368D01*
X185879400Y-132297368D01*
X185879400Y-131982777D01*
X185912631Y-131916313D01*
X185979095Y-131883082D01*
X186051133Y-131883082D01*
X186117597Y-131916314D01*
G37*
G36*
X183307341Y-130739254D02*
G01*
X182860252Y-130590225D01*
X183307341Y-130441195D01*
X183307341Y-130739254D01*
G37*
G36*
X186617495Y-144549750D02*
G01*
X179654329Y-144549750D01*
X179654329Y-143804511D01*
X180320996Y-143804511D01*
X180320996Y-144018797D01*
X180323878Y-144048061D01*
X180325941Y-144053041D01*
X180326323Y-144058416D01*
X180336832Y-144085879D01*
X180408261Y-144228736D01*
X180411339Y-144233626D01*
X180412110Y-144235938D01*
X180414606Y-144238816D01*
X180423926Y-144253622D01*
X180438133Y-144265943D01*
X180450457Y-144280153D01*
X180465266Y-144289475D01*
X180468141Y-144291968D01*
X180470448Y-144292737D01*
X180475343Y-144295818D01*
X180618199Y-144367247D01*
X180645663Y-144377756D01*
X180651037Y-144378137D01*
X180656018Y-144380201D01*
X180685282Y-144383083D01*
X181470996Y-144383083D01*
X181500260Y-144380201D01*
X181554332Y-144357803D01*
X181595716Y-144316419D01*
X181618114Y-144262347D01*
X181618114Y-144203819D01*
X181595716Y-144149747D01*
X181554332Y-144108363D01*
X181500260Y-144085965D01*
X181470996Y-144083083D01*
X180720692Y-144083083D01*
X180654228Y-144049851D01*
X180620996Y-143983386D01*
X180620996Y-143839921D01*
X180665703Y-143750506D01*
X180675986Y-143740225D01*
X181470996Y-143740225D01*
X181500260Y-143737343D01*
X181554332Y-143714945D01*
X181595716Y-143673561D01*
X181618114Y-143619489D01*
X181618114Y-143560961D01*
X181595716Y-143506889D01*
X181554332Y-143465505D01*
X181500260Y-143443107D01*
X181470996Y-143440225D01*
X180470996Y-143440225D01*
X180441732Y-143443107D01*
X180387660Y-143465505D01*
X180346276Y-143506889D01*
X180323878Y-143560961D01*
X180323878Y-143619489D01*
X180346276Y-143673561D01*
X180361269Y-143688554D01*
X180336832Y-143737429D01*
X180326323Y-143764892D01*
X180325941Y-143770266D01*
X180323878Y-143775247D01*
X180320996Y-143804511D01*
X179654329Y-143804511D01*
X179654329Y-143375939D01*
X185150828Y-143375939D01*
X185150828Y-143661653D01*
X185153710Y-143690917D01*
X185155773Y-143695897D01*
X185156155Y-143701272D01*
X185166664Y-143728735D01*
X185238093Y-143871592D01*
X185241171Y-143876482D01*
X185241942Y-143878794D01*
X185244438Y-143881672D01*
X185253758Y-143896478D01*
X185267965Y-143908799D01*
X185280289Y-143923009D01*
X185295098Y-143932331D01*
X185297973Y-143934824D01*
X185300280Y-143935593D01*
X185305175Y-143938674D01*
X185448031Y-144010103D01*
X185475495Y-144020612D01*
X185480869Y-144020993D01*
X185485850Y-144023057D01*
X185515114Y-144025939D01*
X185657815Y-144025939D01*
X185657971Y-144025939D01*
X185687235Y-144023057D01*
X185700811Y-144017433D01*
X185715229Y-144014581D01*
X185727587Y-144006342D01*
X185741307Y-144000659D01*
X185751697Y-143990268D01*
X185763926Y-143982116D01*
X185772190Y-143969775D01*
X185782691Y-143959275D01*
X185788314Y-143945699D01*
X185796493Y-143933487D01*
X185805058Y-143905356D01*
X185923798Y-143311653D01*
X186051133Y-143311653D01*
X186117597Y-143344885D01*
X186150828Y-143411348D01*
X186150828Y-143626243D01*
X186095236Y-143737428D01*
X186084726Y-143764892D01*
X186080578Y-143823272D01*
X186099086Y-143878794D01*
X186137433Y-143923009D01*
X186189782Y-143949184D01*
X186248162Y-143953332D01*
X186303684Y-143934824D01*
X186347899Y-143896477D01*
X186363564Y-143871592D01*
X186434992Y-143728734D01*
X186445502Y-143701271D01*
X186445883Y-143695895D01*
X186447946Y-143690917D01*
X186450828Y-143661653D01*
X186450828Y-143375939D01*
X186447946Y-143346675D01*
X186445883Y-143341696D01*
X186445502Y-143336321D01*
X186434993Y-143308858D01*
X186363564Y-143166000D01*
X186360484Y-143161107D01*
X186359714Y-143158796D01*
X186357218Y-143155918D01*
X186347900Y-143141114D01*
X186333688Y-143128788D01*
X186321367Y-143114582D01*
X186306562Y-143105262D01*
X186303685Y-143102767D01*
X186301374Y-143101996D01*
X186296482Y-143098917D01*
X186153623Y-143027489D01*
X186126160Y-143016979D01*
X186120784Y-143016597D01*
X186115806Y-143014535D01*
X186086542Y-143011653D01*
X185800990Y-143011653D01*
X185800985Y-143011652D01*
X185800980Y-143011653D01*
X185515114Y-143011653D01*
X185485850Y-143014535D01*
X185480871Y-143016597D01*
X185475496Y-143016979D01*
X185448033Y-143027489D01*
X185305175Y-143098917D01*
X185300281Y-143101997D01*
X185297973Y-143102767D01*
X185295097Y-143105260D01*
X185280290Y-143114582D01*
X185267969Y-143128788D01*
X185253758Y-143141113D01*
X185244435Y-143155923D01*
X185241943Y-143158797D01*
X185241173Y-143161104D01*
X185238093Y-143165999D01*
X185166664Y-143308857D01*
X185156154Y-143336320D01*
X185155771Y-143341697D01*
X185153710Y-143346675D01*
X185150828Y-143375939D01*
X179654329Y-143375939D01*
X179654329Y-142846675D01*
X179823878Y-142846675D01*
X179823878Y-142905203D01*
X179829223Y-142918106D01*
X179846275Y-142959274D01*
X179864930Y-142982005D01*
X179936359Y-143053434D01*
X179959090Y-143072089D01*
X180013162Y-143094486D01*
X180013163Y-143094486D01*
X180071689Y-143094486D01*
X180094086Y-143085208D01*
X180125760Y-143072089D01*
X180125761Y-143072088D01*
X180148492Y-143053433D01*
X180219920Y-142982004D01*
X180238574Y-142959274D01*
X180255626Y-142918106D01*
X180260971Y-142905203D01*
X180260971Y-142846675D01*
X180323878Y-142846675D01*
X180323878Y-142905203D01*
X180346276Y-142959275D01*
X180387660Y-143000659D01*
X180441732Y-143023057D01*
X180470996Y-143025939D01*
X181470996Y-143025939D01*
X181500260Y-143023057D01*
X181554332Y-143000659D01*
X181595716Y-142959275D01*
X181618114Y-142905203D01*
X181618114Y-142846675D01*
X181595716Y-142792603D01*
X181554332Y-142751219D01*
X181500260Y-142728821D01*
X181470996Y-142725939D01*
X180470996Y-142725939D01*
X180441732Y-142728821D01*
X180387660Y-142751219D01*
X180346276Y-142792603D01*
X180323878Y-142846675D01*
X180260971Y-142846675D01*
X180247850Y-142815000D01*
X180238574Y-142792603D01*
X180219919Y-142769873D01*
X180148491Y-142698445D01*
X180125760Y-142679790D01*
X180071688Y-142657393D01*
X180013162Y-142657393D01*
X179959090Y-142679790D01*
X179936360Y-142698444D01*
X179864931Y-142769872D01*
X179846276Y-142792603D01*
X179846275Y-142792604D01*
X179836411Y-142816418D01*
X179823878Y-142846675D01*
X179654329Y-142846675D01*
X179654329Y-142590225D01*
X185150828Y-142590225D01*
X185150828Y-142733082D01*
X185153710Y-142762346D01*
X185176108Y-142816418D01*
X185217492Y-142857802D01*
X185271564Y-142880200D01*
X185330092Y-142880200D01*
X185384164Y-142857802D01*
X185425548Y-142816418D01*
X185447946Y-142762346D01*
X185450828Y-142733082D01*
X185450828Y-142625635D01*
X185495535Y-142536220D01*
X185532539Y-142499216D01*
X185621952Y-142454510D01*
X186300828Y-142454510D01*
X186330092Y-142451628D01*
X186384164Y-142429230D01*
X186425548Y-142387846D01*
X186447946Y-142333774D01*
X186447946Y-142275246D01*
X186425548Y-142221174D01*
X186384164Y-142179790D01*
X186330092Y-142157392D01*
X186300828Y-142154510D01*
X185300828Y-142154510D01*
X185271564Y-142157392D01*
X185217492Y-142179790D01*
X185176108Y-142221174D01*
X185153710Y-142275246D01*
X185153710Y-142333774D01*
X185176108Y-142387846D01*
X185214911Y-142426649D01*
X185166664Y-142523143D01*
X185156155Y-142550606D01*
X185155773Y-142555980D01*
X185153710Y-142560961D01*
X185150828Y-142590225D01*
X179654329Y-142590225D01*
X179654329Y-141989532D01*
X179823878Y-141989532D01*
X179823878Y-142048060D01*
X179846276Y-142102132D01*
X179887660Y-142143516D01*
X179941732Y-142165914D01*
X179970996Y-142168796D01*
X180320996Y-142168796D01*
X180320996Y-142375939D01*
X180323878Y-142405203D01*
X180346276Y-142459275D01*
X180387660Y-142500659D01*
X180441732Y-142523057D01*
X180500260Y-142523057D01*
X180554332Y-142500659D01*
X180595716Y-142459275D01*
X180618114Y-142405203D01*
X180620996Y-142375939D01*
X180620996Y-142168796D01*
X181221300Y-142168796D01*
X181287764Y-142202028D01*
X181320996Y-142268491D01*
X181320996Y-142375939D01*
X181323878Y-142405203D01*
X181346276Y-142459275D01*
X181387660Y-142500659D01*
X181441732Y-142523057D01*
X181500260Y-142523057D01*
X181554332Y-142500659D01*
X181595716Y-142459275D01*
X181618114Y-142405203D01*
X181620996Y-142375939D01*
X181620996Y-142233082D01*
X181618114Y-142203818D01*
X181616051Y-142198839D01*
X181615670Y-142193464D01*
X181605160Y-142166001D01*
X181533732Y-142023143D01*
X181530651Y-142018249D01*
X181529882Y-142015941D01*
X181527388Y-142013065D01*
X181518067Y-141998258D01*
X181503860Y-141985937D01*
X181491536Y-141971726D01*
X181476725Y-141962403D01*
X181473852Y-141959911D01*
X181471544Y-141959141D01*
X181466650Y-141956061D01*
X181323792Y-141884632D01*
X181296329Y-141874122D01*
X181290951Y-141873739D01*
X181285974Y-141871678D01*
X181256710Y-141868796D01*
X180620996Y-141868796D01*
X180620996Y-141804511D01*
X180618114Y-141775247D01*
X180595716Y-141721175D01*
X180554332Y-141679791D01*
X180500260Y-141657393D01*
X180441732Y-141657393D01*
X180387660Y-141679791D01*
X180346276Y-141721175D01*
X180323878Y-141775247D01*
X180320996Y-141804511D01*
X180320996Y-141868796D01*
X179970996Y-141868796D01*
X179941732Y-141871678D01*
X179887660Y-141894076D01*
X179846276Y-141935460D01*
X179823878Y-141989532D01*
X179654329Y-141989532D01*
X179654329Y-140875939D01*
X180320996Y-140875939D01*
X180320996Y-141090225D01*
X180323878Y-141119489D01*
X180325941Y-141124469D01*
X180326323Y-141129844D01*
X180336832Y-141157307D01*
X180408261Y-141300164D01*
X180411339Y-141305054D01*
X180412110Y-141307366D01*
X180414606Y-141310244D01*
X180423926Y-141325050D01*
X180438133Y-141337371D01*
X180450457Y-141351581D01*
X180465266Y-141360903D01*
X180468141Y-141363396D01*
X180470448Y-141364165D01*
X180475343Y-141367246D01*
X180618199Y-141438675D01*
X180645663Y-141449184D01*
X180651037Y-141449565D01*
X180656018Y-141451629D01*
X180685282Y-141454511D01*
X181470996Y-141454511D01*
X181500260Y-141451629D01*
X181554332Y-141429231D01*
X181565460Y-141418103D01*
X184653710Y-141418103D01*
X184653710Y-141476631D01*
X184676108Y-141530703D01*
X184717492Y-141572087D01*
X184771564Y-141594485D01*
X184800828Y-141597367D01*
X185150828Y-141597367D01*
X185150828Y-141804510D01*
X185153710Y-141833774D01*
X185176108Y-141887846D01*
X185217492Y-141929230D01*
X185271564Y-141951628D01*
X185330092Y-141951628D01*
X185384164Y-141929230D01*
X185425548Y-141887846D01*
X185447946Y-141833774D01*
X185450828Y-141804510D01*
X185450828Y-141597367D01*
X186051132Y-141597367D01*
X186117596Y-141630599D01*
X186150828Y-141697062D01*
X186150828Y-141804510D01*
X186153710Y-141833774D01*
X186176108Y-141887846D01*
X186217492Y-141929230D01*
X186271564Y-141951628D01*
X186330092Y-141951628D01*
X186384164Y-141929230D01*
X186425548Y-141887846D01*
X186447946Y-141833774D01*
X186450828Y-141804510D01*
X186450828Y-141661653D01*
X186447946Y-141632389D01*
X186445883Y-141627410D01*
X186445502Y-141622035D01*
X186434992Y-141594572D01*
X186363564Y-141451714D01*
X186360483Y-141446820D01*
X186359714Y-141444512D01*
X186357220Y-141441636D01*
X186347899Y-141426829D01*
X186333692Y-141414508D01*
X186321368Y-141400297D01*
X186306557Y-141390974D01*
X186303684Y-141388482D01*
X186301376Y-141387712D01*
X186296482Y-141384632D01*
X186153624Y-141313203D01*
X186126161Y-141302693D01*
X186120783Y-141302310D01*
X186115806Y-141300249D01*
X186086542Y-141297367D01*
X185450828Y-141297367D01*
X185450828Y-141233082D01*
X185447946Y-141203818D01*
X185425548Y-141149746D01*
X185384164Y-141108362D01*
X185330092Y-141085964D01*
X185271564Y-141085964D01*
X185217492Y-141108362D01*
X185176108Y-141149746D01*
X185153710Y-141203818D01*
X185150828Y-141233082D01*
X185150828Y-141297367D01*
X184800828Y-141297367D01*
X184771564Y-141300249D01*
X184717492Y-141322647D01*
X184676108Y-141364031D01*
X184653710Y-141418103D01*
X181565460Y-141418103D01*
X181595716Y-141387847D01*
X181618114Y-141333775D01*
X181618114Y-141275247D01*
X181595716Y-141221175D01*
X181554332Y-141179791D01*
X181500260Y-141157393D01*
X181470996Y-141154511D01*
X180720692Y-141154511D01*
X180654228Y-141121279D01*
X180620996Y-141054814D01*
X180620996Y-140911349D01*
X180665703Y-140821934D01*
X180675986Y-140811653D01*
X181470996Y-140811653D01*
X181500260Y-140808771D01*
X181554332Y-140786373D01*
X181595716Y-140744989D01*
X181618114Y-140690917D01*
X181618114Y-140632389D01*
X181595716Y-140578317D01*
X181554332Y-140536933D01*
X181500260Y-140514535D01*
X181470996Y-140511653D01*
X180470996Y-140511653D01*
X180441732Y-140514535D01*
X180387660Y-140536933D01*
X180346276Y-140578317D01*
X180323878Y-140632389D01*
X180323878Y-140690917D01*
X180346276Y-140744989D01*
X180361269Y-140759982D01*
X180336832Y-140808857D01*
X180326323Y-140836320D01*
X180325941Y-140841694D01*
X180323878Y-140846675D01*
X180320996Y-140875939D01*
X179654329Y-140875939D01*
X179654329Y-140375939D01*
X182735912Y-140375939D01*
X182735912Y-140661653D01*
X182738794Y-140690917D01*
X182740857Y-140695897D01*
X182741239Y-140701272D01*
X182751748Y-140728735D01*
X182823177Y-140871592D01*
X182826255Y-140876482D01*
X182827026Y-140878794D01*
X182829522Y-140881672D01*
X182838842Y-140896478D01*
X182853049Y-140908799D01*
X182865373Y-140923009D01*
X182880182Y-140932331D01*
X182883057Y-140934824D01*
X182885364Y-140935593D01*
X182890259Y-140938674D01*
X183033115Y-141010103D01*
X183060579Y-141020612D01*
X183065953Y-141020993D01*
X183070934Y-141023057D01*
X183100198Y-141025939D01*
X183242899Y-141025939D01*
X183243055Y-141025939D01*
X183272319Y-141023057D01*
X183285895Y-141017433D01*
X183300313Y-141014581D01*
X183312671Y-141006342D01*
X183326391Y-141000659D01*
X183336781Y-140990268D01*
X183349010Y-140982116D01*
X183357274Y-140969775D01*
X183367775Y-140959275D01*
X183373398Y-140945699D01*
X183381577Y-140933487D01*
X183390142Y-140905356D01*
X183508882Y-140311653D01*
X183636217Y-140311653D01*
X183702681Y-140344885D01*
X183735912Y-140411348D01*
X183735912Y-140626243D01*
X183680320Y-140737428D01*
X183669810Y-140764892D01*
X183665662Y-140823272D01*
X183684170Y-140878794D01*
X183722517Y-140923009D01*
X183774866Y-140949184D01*
X183833246Y-140953332D01*
X183888768Y-140934824D01*
X183932983Y-140896477D01*
X183948648Y-140871592D01*
X184020076Y-140728734D01*
X184029612Y-140703817D01*
X184653710Y-140703817D01*
X184653710Y-140762345D01*
X184659055Y-140775248D01*
X184676107Y-140816416D01*
X184694762Y-140839147D01*
X184766191Y-140910576D01*
X184788922Y-140929231D01*
X184842994Y-140951628D01*
X184842995Y-140951628D01*
X184901521Y-140951628D01*
X184932794Y-140938674D01*
X184955592Y-140929231D01*
X184955593Y-140929230D01*
X184978324Y-140910575D01*
X185049752Y-140839146D01*
X185068406Y-140816416D01*
X185085458Y-140775248D01*
X185090803Y-140762345D01*
X185090803Y-140703817D01*
X185153710Y-140703817D01*
X185153710Y-140762345D01*
X185176108Y-140816417D01*
X185217492Y-140857801D01*
X185271564Y-140880199D01*
X185300828Y-140883081D01*
X186300828Y-140883081D01*
X186330092Y-140880199D01*
X186384164Y-140857801D01*
X186425548Y-140816417D01*
X186447946Y-140762345D01*
X186447946Y-140703817D01*
X186425548Y-140649745D01*
X186384164Y-140608361D01*
X186330092Y-140585963D01*
X186300828Y-140583081D01*
X185300828Y-140583081D01*
X185271564Y-140585963D01*
X185217492Y-140608361D01*
X185176108Y-140649745D01*
X185153710Y-140703817D01*
X185090803Y-140703817D01*
X185077682Y-140672142D01*
X185068406Y-140649745D01*
X185049751Y-140627015D01*
X184978323Y-140555587D01*
X184955592Y-140536932D01*
X184901520Y-140514535D01*
X184842994Y-140514535D01*
X184802425Y-140531339D01*
X184788922Y-140536932D01*
X184766192Y-140555586D01*
X184694763Y-140627014D01*
X184676108Y-140649745D01*
X184676107Y-140649746D01*
X184665980Y-140674195D01*
X184653710Y-140703817D01*
X184029612Y-140703817D01*
X184030586Y-140701271D01*
X184030967Y-140695895D01*
X184033030Y-140690917D01*
X184035912Y-140661653D01*
X184035912Y-140375939D01*
X184033030Y-140346675D01*
X184030967Y-140341696D01*
X184030586Y-140336321D01*
X184020077Y-140308858D01*
X183948648Y-140166000D01*
X183945568Y-140161107D01*
X183944798Y-140158796D01*
X183942302Y-140155918D01*
X183932984Y-140141114D01*
X183918772Y-140128788D01*
X183906451Y-140114582D01*
X183891646Y-140105262D01*
X183888769Y-140102767D01*
X183886458Y-140101996D01*
X183881566Y-140098917D01*
X183738707Y-140027489D01*
X183711244Y-140016979D01*
X183705868Y-140016597D01*
X183700890Y-140014535D01*
X183671626Y-140011653D01*
X183386074Y-140011653D01*
X183386069Y-140011652D01*
X183386064Y-140011653D01*
X183100198Y-140011653D01*
X183070934Y-140014535D01*
X183065955Y-140016597D01*
X183060580Y-140016979D01*
X183033117Y-140027489D01*
X182890259Y-140098917D01*
X182885365Y-140101997D01*
X182883057Y-140102767D01*
X182880181Y-140105260D01*
X182865374Y-140114582D01*
X182853053Y-140128788D01*
X182838842Y-140141113D01*
X182829519Y-140155923D01*
X182827027Y-140158797D01*
X182826257Y-140161104D01*
X182823177Y-140165999D01*
X182751748Y-140308857D01*
X182741238Y-140336320D01*
X182740855Y-140341697D01*
X182738794Y-140346675D01*
X182735912Y-140375939D01*
X179654329Y-140375939D01*
X179654329Y-139518797D01*
X180320996Y-139518797D01*
X180320996Y-139804511D01*
X180323878Y-139833775D01*
X180325941Y-139838755D01*
X180326323Y-139844130D01*
X180336832Y-139871593D01*
X180408261Y-140014450D01*
X180411339Y-140019340D01*
X180412110Y-140021652D01*
X180414606Y-140024530D01*
X180423926Y-140039336D01*
X180438133Y-140051657D01*
X180450457Y-140065867D01*
X180465266Y-140075189D01*
X180468141Y-140077682D01*
X180470448Y-140078451D01*
X180475343Y-140081532D01*
X180618199Y-140152961D01*
X180645663Y-140163470D01*
X180651037Y-140163851D01*
X180656018Y-140165915D01*
X180685282Y-140168797D01*
X180827983Y-140168797D01*
X180828139Y-140168797D01*
X180857403Y-140165915D01*
X180870979Y-140160291D01*
X180885397Y-140157439D01*
X180897755Y-140149200D01*
X180911475Y-140143517D01*
X180921865Y-140133126D01*
X180934094Y-140124974D01*
X180942358Y-140112633D01*
X180952859Y-140102133D01*
X180958482Y-140088557D01*
X180966661Y-140076345D01*
X180975226Y-140048214D01*
X181093966Y-139454511D01*
X181221301Y-139454511D01*
X181287765Y-139487743D01*
X181320996Y-139554206D01*
X181320996Y-139769101D01*
X181265404Y-139880286D01*
X181254894Y-139907750D01*
X181250746Y-139966130D01*
X181269254Y-140021652D01*
X181307601Y-140065867D01*
X181359950Y-140092042D01*
X181418330Y-140096190D01*
X181473852Y-140077682D01*
X181518067Y-140039335D01*
X181533732Y-140014450D01*
X181605160Y-139871592D01*
X181615670Y-139844129D01*
X181616051Y-139838753D01*
X181618114Y-139833775D01*
X181620996Y-139804511D01*
X181620996Y-139518797D01*
X181618114Y-139489533D01*
X181618113Y-139489531D01*
X182238794Y-139489531D01*
X182238794Y-139548059D01*
X182244139Y-139560962D01*
X182261191Y-139602130D01*
X182279846Y-139624861D01*
X182351275Y-139696290D01*
X182374006Y-139714945D01*
X182428078Y-139737342D01*
X182428079Y-139737342D01*
X182486605Y-139737342D01*
X182511292Y-139727116D01*
X182540676Y-139714945D01*
X182540677Y-139714944D01*
X182563408Y-139696289D01*
X182634836Y-139624860D01*
X182653490Y-139602130D01*
X182670542Y-139560962D01*
X182675887Y-139548059D01*
X182675887Y-139489531D01*
X182738794Y-139489531D01*
X182738794Y-139548059D01*
X182761192Y-139602131D01*
X182802576Y-139643515D01*
X182856648Y-139665913D01*
X182885912Y-139668795D01*
X183885912Y-139668795D01*
X183915176Y-139665913D01*
X183969248Y-139643515D01*
X184010632Y-139602131D01*
X184033030Y-139548059D01*
X184033030Y-139518796D01*
X185150828Y-139518796D01*
X185150828Y-139804510D01*
X185153710Y-139833774D01*
X185155773Y-139838754D01*
X185156155Y-139844129D01*
X185166664Y-139871592D01*
X185238093Y-140014449D01*
X185241171Y-140019339D01*
X185241942Y-140021651D01*
X185244438Y-140024529D01*
X185253758Y-140039335D01*
X185267965Y-140051656D01*
X185280289Y-140065866D01*
X185295098Y-140075188D01*
X185297973Y-140077681D01*
X185300280Y-140078450D01*
X185305175Y-140081531D01*
X185448031Y-140152960D01*
X185475495Y-140163469D01*
X185480869Y-140163850D01*
X185485850Y-140165914D01*
X185515114Y-140168796D01*
X186300828Y-140168796D01*
X186330092Y-140165914D01*
X186384164Y-140143516D01*
X186425548Y-140102132D01*
X186447946Y-140048060D01*
X186447946Y-139989532D01*
X186431539Y-139949925D01*
X186434993Y-139943019D01*
X186445502Y-139915556D01*
X186445883Y-139910180D01*
X186447946Y-139905202D01*
X186450828Y-139875938D01*
X186450828Y-139518796D01*
X186447946Y-139489532D01*
X186445883Y-139484553D01*
X186445502Y-139479178D01*
X186434993Y-139451715D01*
X186363564Y-139308857D01*
X186360484Y-139303964D01*
X186359714Y-139301653D01*
X186357218Y-139298775D01*
X186347900Y-139283971D01*
X186333688Y-139271645D01*
X186321367Y-139257439D01*
X186306562Y-139248119D01*
X186303685Y-139245624D01*
X186301374Y-139244853D01*
X186296482Y-139241774D01*
X186153623Y-139170346D01*
X186126160Y-139159836D01*
X186120784Y-139159454D01*
X186115806Y-139157392D01*
X186086542Y-139154510D01*
X185943685Y-139154510D01*
X185914421Y-139157392D01*
X185909442Y-139159454D01*
X185904067Y-139159836D01*
X185876604Y-139170346D01*
X185733746Y-139241774D01*
X185728853Y-139244853D01*
X185726543Y-139245624D01*
X185723665Y-139248119D01*
X185708861Y-139257439D01*
X185696538Y-139271646D01*
X185682329Y-139283971D01*
X185673007Y-139298779D01*
X185670514Y-139301654D01*
X185669744Y-139303962D01*
X185666664Y-139308856D01*
X185595236Y-139451715D01*
X185584726Y-139479178D01*
X185584344Y-139484553D01*
X185582282Y-139489532D01*
X185579400Y-139518796D01*
X185579400Y-139840528D01*
X185565266Y-139868796D01*
X185550524Y-139868796D01*
X185484060Y-139835564D01*
X185450828Y-139769099D01*
X185450828Y-139554206D01*
X185506421Y-139443020D01*
X185516931Y-139415557D01*
X185521079Y-139357177D01*
X185502571Y-139301654D01*
X185464225Y-139257439D01*
X185411876Y-139231264D01*
X185353495Y-139227116D01*
X185297973Y-139245624D01*
X185253758Y-139283970D01*
X185238093Y-139308856D01*
X185166664Y-139451714D01*
X185156154Y-139479177D01*
X185155771Y-139484554D01*
X185153710Y-139489532D01*
X185150828Y-139518796D01*
X184033030Y-139518796D01*
X184033030Y-139489531D01*
X184010632Y-139435459D01*
X183969248Y-139394075D01*
X183915176Y-139371677D01*
X183885912Y-139368795D01*
X182885912Y-139368795D01*
X182856648Y-139371677D01*
X182802576Y-139394075D01*
X182761192Y-139435459D01*
X182738794Y-139489531D01*
X182675887Y-139489531D01*
X182661381Y-139454511D01*
X182653490Y-139435459D01*
X182634835Y-139412729D01*
X182563407Y-139341301D01*
X182540676Y-139322646D01*
X182486604Y-139300249D01*
X182428078Y-139300249D01*
X182407294Y-139308858D01*
X182374006Y-139322646D01*
X182351276Y-139341300D01*
X182279847Y-139412728D01*
X182261192Y-139435459D01*
X182261191Y-139435460D01*
X182253300Y-139454511D01*
X182238794Y-139489531D01*
X181618113Y-139489531D01*
X181616051Y-139484554D01*
X181615670Y-139479179D01*
X181605161Y-139451716D01*
X181533732Y-139308858D01*
X181530652Y-139303965D01*
X181529882Y-139301654D01*
X181527386Y-139298776D01*
X181518068Y-139283972D01*
X181503856Y-139271646D01*
X181491535Y-139257440D01*
X181476730Y-139248120D01*
X181473853Y-139245625D01*
X181471542Y-139244854D01*
X181466650Y-139241775D01*
X181323791Y-139170347D01*
X181296328Y-139159837D01*
X181290952Y-139159455D01*
X181285974Y-139157393D01*
X181256710Y-139154511D01*
X180971158Y-139154511D01*
X180971153Y-139154510D01*
X180971148Y-139154511D01*
X180685282Y-139154511D01*
X180656018Y-139157393D01*
X180651039Y-139159455D01*
X180645664Y-139159837D01*
X180618201Y-139170347D01*
X180475343Y-139241775D01*
X180470449Y-139244855D01*
X180468141Y-139245625D01*
X180465265Y-139248118D01*
X180450458Y-139257440D01*
X180438137Y-139271646D01*
X180423926Y-139283971D01*
X180414603Y-139298781D01*
X180412111Y-139301655D01*
X180411341Y-139303962D01*
X180408261Y-139308857D01*
X180336832Y-139451715D01*
X180326322Y-139479178D01*
X180325939Y-139484555D01*
X180323878Y-139489533D01*
X180320996Y-139518797D01*
X179654329Y-139518797D01*
X179654329Y-138560961D01*
X179823878Y-138560961D01*
X179823878Y-138619489D01*
X179846276Y-138673561D01*
X179887660Y-138714945D01*
X179941732Y-138737343D01*
X179970996Y-138740225D01*
X181221300Y-138740225D01*
X181287764Y-138773457D01*
X181336832Y-138871593D01*
X181352497Y-138896479D01*
X181396712Y-138934825D01*
X181452234Y-138953333D01*
X181510614Y-138949185D01*
X181562963Y-138923011D01*
X181601310Y-138878796D01*
X181602262Y-138875939D01*
X182735912Y-138875939D01*
X182735912Y-139018796D01*
X182738794Y-139048060D01*
X182761192Y-139102132D01*
X182802576Y-139143516D01*
X182856648Y-139165914D01*
X182915176Y-139165914D01*
X182969248Y-139143516D01*
X183010632Y-139102132D01*
X183033030Y-139048060D01*
X183035912Y-139018796D01*
X183035912Y-138911349D01*
X183080619Y-138821934D01*
X183117623Y-138784930D01*
X183207036Y-138740224D01*
X183885912Y-138740224D01*
X183915176Y-138737342D01*
X183969248Y-138714944D01*
X184010632Y-138673560D01*
X184033030Y-138619488D01*
X184033030Y-138560960D01*
X184010632Y-138506888D01*
X183969248Y-138465504D01*
X183915176Y-138443106D01*
X183885912Y-138440224D01*
X182885912Y-138440224D01*
X182856648Y-138443106D01*
X182802576Y-138465504D01*
X182761192Y-138506888D01*
X182738794Y-138560960D01*
X182738794Y-138619488D01*
X182761192Y-138673560D01*
X182799995Y-138712363D01*
X182751748Y-138808857D01*
X182741239Y-138836320D01*
X182740857Y-138841694D01*
X182738794Y-138846675D01*
X182735912Y-138875939D01*
X181602262Y-138875939D01*
X181619818Y-138823273D01*
X181615670Y-138764893D01*
X181605160Y-138737430D01*
X181533732Y-138594572D01*
X181530651Y-138589678D01*
X181529882Y-138587370D01*
X181527388Y-138584494D01*
X181518067Y-138569687D01*
X181503860Y-138557366D01*
X181491536Y-138543155D01*
X181476725Y-138533832D01*
X181473852Y-138531340D01*
X181471544Y-138530570D01*
X181466650Y-138527490D01*
X181323792Y-138456061D01*
X181296329Y-138445551D01*
X181290951Y-138445168D01*
X181285974Y-138443107D01*
X181256710Y-138440225D01*
X179970996Y-138440225D01*
X179941732Y-138443107D01*
X179887660Y-138465505D01*
X179846276Y-138506889D01*
X179823878Y-138560961D01*
X179654329Y-138560961D01*
X179654329Y-137375940D01*
X180320996Y-137375940D01*
X180320996Y-137661654D01*
X180323878Y-137690918D01*
X180325941Y-137695898D01*
X180326323Y-137701273D01*
X180336832Y-137728736D01*
X180408261Y-137871593D01*
X180411339Y-137876483D01*
X180412110Y-137878795D01*
X180414606Y-137881673D01*
X180423926Y-137896479D01*
X180438133Y-137908800D01*
X180450457Y-137923010D01*
X180465266Y-137932332D01*
X180468141Y-137934825D01*
X180470448Y-137935594D01*
X180475343Y-137938675D01*
X180618199Y-138010104D01*
X180645663Y-138020613D01*
X180651037Y-138020994D01*
X180656018Y-138023058D01*
X180685282Y-138025940D01*
X181470996Y-138025940D01*
X181500260Y-138023058D01*
X181554332Y-138000660D01*
X181595716Y-137959276D01*
X181618114Y-137905204D01*
X181618114Y-137846676D01*
X181601707Y-137807069D01*
X181605161Y-137800163D01*
X181615670Y-137772700D01*
X181616051Y-137767324D01*
X181618114Y-137762346D01*
X181620996Y-137733082D01*
X181620996Y-137703817D01*
X182238794Y-137703817D01*
X182238794Y-137762345D01*
X182261192Y-137816417D01*
X182302576Y-137857801D01*
X182356648Y-137880199D01*
X182385912Y-137883081D01*
X182735912Y-137883081D01*
X182735912Y-138090224D01*
X182738794Y-138119488D01*
X182761192Y-138173560D01*
X182802576Y-138214944D01*
X182856648Y-138237342D01*
X182915176Y-138237342D01*
X182969248Y-138214944D01*
X183010632Y-138173560D01*
X183033030Y-138119488D01*
X183035912Y-138090224D01*
X183035912Y-137883081D01*
X183636216Y-137883081D01*
X183702680Y-137916313D01*
X183735912Y-137982776D01*
X183735912Y-138090224D01*
X183738794Y-138119488D01*
X183761192Y-138173560D01*
X183802576Y-138214944D01*
X183856648Y-138237342D01*
X183915176Y-138237342D01*
X183969248Y-138214944D01*
X184010632Y-138173560D01*
X184033030Y-138119488D01*
X184035912Y-138090224D01*
X184035912Y-137947367D01*
X184033030Y-137918103D01*
X184030967Y-137913124D01*
X184030586Y-137907749D01*
X184020076Y-137880286D01*
X183948648Y-137737428D01*
X183945567Y-137732534D01*
X183944798Y-137730226D01*
X183942304Y-137727350D01*
X183932983Y-137712543D01*
X183918776Y-137700222D01*
X183906452Y-137686011D01*
X183891641Y-137676688D01*
X183888768Y-137674196D01*
X183886460Y-137673426D01*
X183881566Y-137670346D01*
X183738708Y-137598917D01*
X183715993Y-137590224D01*
X185150828Y-137590224D01*
X185150828Y-137804510D01*
X185153710Y-137833774D01*
X185155773Y-137838754D01*
X185156155Y-137844129D01*
X185166664Y-137871592D01*
X185238093Y-138014449D01*
X185240828Y-138018795D01*
X185238093Y-138023142D01*
X185166664Y-138165999D01*
X185156155Y-138193462D01*
X185155773Y-138198836D01*
X185153710Y-138203817D01*
X185150828Y-138233081D01*
X185150828Y-138447367D01*
X185153710Y-138476631D01*
X185155773Y-138481611D01*
X185156155Y-138486986D01*
X185166664Y-138514449D01*
X185238093Y-138657306D01*
X185241171Y-138662196D01*
X185241942Y-138664508D01*
X185244438Y-138667386D01*
X185253758Y-138682192D01*
X185267965Y-138694513D01*
X185280289Y-138708723D01*
X185295098Y-138718045D01*
X185297973Y-138720538D01*
X185300280Y-138721307D01*
X185305175Y-138724388D01*
X185448031Y-138795817D01*
X185475495Y-138806326D01*
X185480869Y-138806707D01*
X185485850Y-138808771D01*
X185515114Y-138811653D01*
X186300828Y-138811653D01*
X186330092Y-138808771D01*
X186384164Y-138786373D01*
X186425548Y-138744989D01*
X186447946Y-138690917D01*
X186447946Y-138632389D01*
X186425548Y-138578317D01*
X186384164Y-138536933D01*
X186330092Y-138514535D01*
X186300828Y-138511653D01*
X185550524Y-138511653D01*
X185484060Y-138478421D01*
X185450828Y-138411956D01*
X185450828Y-138268491D01*
X185484060Y-138202027D01*
X185550524Y-138168796D01*
X186300828Y-138168796D01*
X186330092Y-138165914D01*
X186384164Y-138143516D01*
X186425548Y-138102132D01*
X186447946Y-138048060D01*
X186447946Y-137989532D01*
X186425548Y-137935460D01*
X186384164Y-137894076D01*
X186330092Y-137871678D01*
X186300828Y-137868796D01*
X185550524Y-137868796D01*
X185484060Y-137835564D01*
X185450828Y-137769099D01*
X185450828Y-137625634D01*
X185495535Y-137536219D01*
X185505818Y-137525938D01*
X186300828Y-137525938D01*
X186330092Y-137523056D01*
X186384164Y-137500658D01*
X186425548Y-137459274D01*
X186447946Y-137405202D01*
X186447946Y-137346674D01*
X186425548Y-137292602D01*
X186384164Y-137251218D01*
X186330092Y-137228820D01*
X186300828Y-137225938D01*
X185300828Y-137225938D01*
X185271564Y-137228820D01*
X185217492Y-137251218D01*
X185176108Y-137292602D01*
X185153710Y-137346674D01*
X185153710Y-137405202D01*
X185176108Y-137459274D01*
X185191101Y-137474267D01*
X185166664Y-137523142D01*
X185156155Y-137550605D01*
X185155773Y-137555979D01*
X185153710Y-137560960D01*
X185150828Y-137590224D01*
X183715993Y-137590224D01*
X183711245Y-137588407D01*
X183705867Y-137588024D01*
X183700890Y-137585963D01*
X183671626Y-137583081D01*
X183035912Y-137583081D01*
X183035912Y-137518796D01*
X183033030Y-137489532D01*
X183010632Y-137435460D01*
X182969248Y-137394076D01*
X182915176Y-137371678D01*
X182856648Y-137371678D01*
X182802576Y-137394076D01*
X182761192Y-137435460D01*
X182738794Y-137489532D01*
X182735912Y-137518796D01*
X182735912Y-137583081D01*
X182385912Y-137583081D01*
X182356648Y-137585963D01*
X182302576Y-137608361D01*
X182261192Y-137649745D01*
X182238794Y-137703817D01*
X181620996Y-137703817D01*
X181620996Y-137375940D01*
X181618114Y-137346676D01*
X181616051Y-137341697D01*
X181615670Y-137336322D01*
X181605161Y-137308859D01*
X181533732Y-137166001D01*
X181530652Y-137161108D01*
X181529882Y-137158797D01*
X181527386Y-137155919D01*
X181518068Y-137141115D01*
X181503856Y-137128789D01*
X181491535Y-137114583D01*
X181476730Y-137105263D01*
X181473853Y-137102768D01*
X181471542Y-137101997D01*
X181466650Y-137098918D01*
X181323791Y-137027490D01*
X181296328Y-137016980D01*
X181290952Y-137016598D01*
X181285974Y-137014536D01*
X181256710Y-137011654D01*
X181113853Y-137011654D01*
X181084589Y-137014536D01*
X181079610Y-137016598D01*
X181074235Y-137016980D01*
X181046772Y-137027490D01*
X180903914Y-137098918D01*
X180899021Y-137101997D01*
X180896711Y-137102768D01*
X180893833Y-137105263D01*
X180879029Y-137114583D01*
X180866706Y-137128790D01*
X180852497Y-137141115D01*
X180843175Y-137155923D01*
X180840682Y-137158798D01*
X180839912Y-137161106D01*
X180836832Y-137166000D01*
X180765404Y-137308859D01*
X180754894Y-137336322D01*
X180754512Y-137341697D01*
X180752450Y-137346676D01*
X180749568Y-137375940D01*
X180749568Y-137697672D01*
X180735434Y-137725940D01*
X180720692Y-137725940D01*
X180654228Y-137692708D01*
X180620996Y-137626243D01*
X180620996Y-137411350D01*
X180676589Y-137300164D01*
X180687099Y-137272701D01*
X180691247Y-137214321D01*
X180672739Y-137158798D01*
X180634393Y-137114583D01*
X180582044Y-137088408D01*
X180523663Y-137084260D01*
X180468141Y-137102768D01*
X180423926Y-137141114D01*
X180408261Y-137166000D01*
X180336832Y-137308858D01*
X180326322Y-137336321D01*
X180325939Y-137341698D01*
X180323878Y-137346676D01*
X180320996Y-137375940D01*
X179654329Y-137375940D01*
X179654329Y-136846676D01*
X182167366Y-136846676D01*
X182167366Y-136905202D01*
X182189763Y-136959275D01*
X182231149Y-137000660D01*
X182285221Y-137023057D01*
X182343747Y-137023057D01*
X182397820Y-137000660D01*
X182420550Y-136982005D01*
X182634835Y-136767719D01*
X182653490Y-136744988D01*
X182675887Y-136690916D01*
X182675886Y-136632390D01*
X182658421Y-136590225D01*
X182735912Y-136590225D01*
X182735912Y-136875939D01*
X182738794Y-136905203D01*
X182740857Y-136910183D01*
X182741239Y-136915558D01*
X182751748Y-136943021D01*
X182823177Y-137085878D01*
X182826255Y-137090768D01*
X182827026Y-137093080D01*
X182829522Y-137095958D01*
X182838842Y-137110764D01*
X182853049Y-137123085D01*
X182865373Y-137137295D01*
X182880182Y-137146617D01*
X182883057Y-137149110D01*
X182885364Y-137149879D01*
X182890259Y-137152960D01*
X183033115Y-137224389D01*
X183060579Y-137234898D01*
X183065953Y-137235279D01*
X183070934Y-137237343D01*
X183100198Y-137240225D01*
X183242899Y-137240225D01*
X183243055Y-137240225D01*
X183272319Y-137237343D01*
X183285895Y-137231719D01*
X183300313Y-137228867D01*
X183312671Y-137220628D01*
X183326391Y-137214945D01*
X183336781Y-137204554D01*
X183349010Y-137196402D01*
X183357274Y-137184061D01*
X183367775Y-137173561D01*
X183373398Y-137159985D01*
X183381577Y-137147773D01*
X183390142Y-137119642D01*
X183508882Y-136525939D01*
X183636217Y-136525939D01*
X183702681Y-136559171D01*
X183735912Y-136625634D01*
X183735912Y-136840529D01*
X183680320Y-136951714D01*
X183669810Y-136979178D01*
X183665662Y-137037558D01*
X183684170Y-137093080D01*
X183722517Y-137137295D01*
X183774866Y-137163470D01*
X183833246Y-137167618D01*
X183888768Y-137149110D01*
X183932983Y-137110763D01*
X183948648Y-137085878D01*
X184020076Y-136943020D01*
X184030586Y-136915557D01*
X184030967Y-136910181D01*
X184033030Y-136905203D01*
X184035912Y-136875939D01*
X184035912Y-136590225D01*
X184033030Y-136560961D01*
X184030967Y-136555982D01*
X184030586Y-136550607D01*
X184020077Y-136523144D01*
X183948648Y-136380286D01*
X183945568Y-136375393D01*
X183944798Y-136373082D01*
X183942302Y-136370204D01*
X183932984Y-136355400D01*
X183918772Y-136343074D01*
X183906451Y-136328868D01*
X183891646Y-136319548D01*
X183888769Y-136317053D01*
X183886458Y-136316282D01*
X183881566Y-136313203D01*
X183738707Y-136241775D01*
X183711244Y-136231265D01*
X183705868Y-136230883D01*
X183700890Y-136228821D01*
X183671626Y-136225939D01*
X183386074Y-136225939D01*
X183386069Y-136225938D01*
X183386064Y-136225939D01*
X183100198Y-136225939D01*
X183070934Y-136228821D01*
X183065955Y-136230883D01*
X183060580Y-136231265D01*
X183033117Y-136241775D01*
X182890259Y-136313203D01*
X182885365Y-136316283D01*
X182883057Y-136317053D01*
X182880181Y-136319546D01*
X182865374Y-136328868D01*
X182853053Y-136343074D01*
X182838842Y-136355399D01*
X182829519Y-136370209D01*
X182827027Y-136373083D01*
X182826257Y-136375390D01*
X182823177Y-136380285D01*
X182751748Y-136523143D01*
X182741238Y-136550606D01*
X182740855Y-136555983D01*
X182738794Y-136560961D01*
X182735912Y-136590225D01*
X182658421Y-136590225D01*
X182653489Y-136578318D01*
X182612104Y-136536932D01*
X182558031Y-136514535D01*
X182499505Y-136514536D01*
X182445433Y-136536933D01*
X182422702Y-136555588D01*
X182208418Y-136769873D01*
X182189763Y-136792604D01*
X182167366Y-136846676D01*
X179654329Y-136846676D01*
X179654329Y-135947368D01*
X179820996Y-135947368D01*
X179820996Y-136661654D01*
X179823878Y-136690918D01*
X179846276Y-136744990D01*
X179887660Y-136786374D01*
X179941732Y-136808772D01*
X180000260Y-136808772D01*
X180054332Y-136786374D01*
X180095716Y-136744990D01*
X180118114Y-136690918D01*
X180120996Y-136661654D01*
X180120996Y-136097368D01*
X180535282Y-136097368D01*
X180535282Y-136447368D01*
X180538164Y-136476632D01*
X180560562Y-136530704D01*
X180601946Y-136572088D01*
X180656018Y-136594486D01*
X180714546Y-136594486D01*
X180768618Y-136572088D01*
X180810002Y-136530704D01*
X180832400Y-136476632D01*
X180835282Y-136447368D01*
X180835282Y-136097368D01*
X181470996Y-136097368D01*
X181500260Y-136094486D01*
X181554332Y-136072088D01*
X181595716Y-136030704D01*
X181618114Y-135976632D01*
X181618114Y-135918104D01*
X181595716Y-135864032D01*
X181554332Y-135822648D01*
X181500260Y-135800250D01*
X181470996Y-135797368D01*
X179970996Y-135797368D01*
X179941732Y-135800250D01*
X179887660Y-135822648D01*
X179846276Y-135864032D01*
X179823878Y-135918104D01*
X179820996Y-135947368D01*
X179654329Y-135947368D01*
X179654329Y-134661653D01*
X182735912Y-134661653D01*
X182735912Y-134875939D01*
X182738794Y-134905203D01*
X182740857Y-134910183D01*
X182741239Y-134915558D01*
X182751748Y-134943021D01*
X182823177Y-135085878D01*
X182825912Y-135090224D01*
X182823177Y-135094571D01*
X182751748Y-135237428D01*
X182741239Y-135264891D01*
X182740857Y-135270265D01*
X182738794Y-135275246D01*
X182735912Y-135304510D01*
X182735912Y-135518796D01*
X182738794Y-135548060D01*
X182740857Y-135553040D01*
X182741239Y-135558415D01*
X182751748Y-135585878D01*
X182823177Y-135728735D01*
X182826255Y-135733625D01*
X182827026Y-135735937D01*
X182829522Y-135738815D01*
X182838842Y-135753621D01*
X182853049Y-135765942D01*
X182865373Y-135780152D01*
X182880182Y-135789474D01*
X182883057Y-135791967D01*
X182885364Y-135792736D01*
X182890259Y-135795817D01*
X183033115Y-135867246D01*
X183060579Y-135877755D01*
X183065953Y-135878136D01*
X183070934Y-135880200D01*
X183100198Y-135883082D01*
X183885912Y-135883082D01*
X183915176Y-135880200D01*
X183969248Y-135857802D01*
X184010632Y-135816418D01*
X184033030Y-135762346D01*
X184033030Y-135703818D01*
X184010632Y-135649746D01*
X183969248Y-135608362D01*
X183915176Y-135585964D01*
X183885912Y-135583082D01*
X183135608Y-135583082D01*
X183069144Y-135549850D01*
X183035912Y-135483385D01*
X183035912Y-135339920D01*
X183069144Y-135273456D01*
X183135608Y-135240225D01*
X183885912Y-135240225D01*
X183915176Y-135237343D01*
X183969248Y-135214945D01*
X184010632Y-135173561D01*
X184033030Y-135119489D01*
X184033030Y-135090225D01*
X185150828Y-135090225D01*
X185150828Y-135375939D01*
X185153710Y-135405203D01*
X185155773Y-135410183D01*
X185156155Y-135415558D01*
X185166664Y-135443021D01*
X185238093Y-135585878D01*
X185241171Y-135590768D01*
X185241942Y-135593080D01*
X185244438Y-135595958D01*
X185253758Y-135610764D01*
X185267965Y-135623085D01*
X185280289Y-135637295D01*
X185295098Y-135646617D01*
X185297973Y-135649110D01*
X185300280Y-135649879D01*
X185305175Y-135652960D01*
X185448031Y-135724389D01*
X185475495Y-135734898D01*
X185480869Y-135735279D01*
X185485850Y-135737343D01*
X185515114Y-135740225D01*
X185657815Y-135740225D01*
X185657971Y-135740225D01*
X185687235Y-135737343D01*
X185700811Y-135731719D01*
X185715229Y-135728867D01*
X185727587Y-135720628D01*
X185741307Y-135714945D01*
X185751697Y-135704554D01*
X185763926Y-135696402D01*
X185772190Y-135684061D01*
X185782691Y-135673561D01*
X185788314Y-135659985D01*
X185796493Y-135647773D01*
X185805058Y-135619642D01*
X185923798Y-135025939D01*
X186051133Y-135025939D01*
X186117597Y-135059171D01*
X186150828Y-135125634D01*
X186150828Y-135340529D01*
X186095236Y-135451714D01*
X186084726Y-135479178D01*
X186080578Y-135537558D01*
X186099086Y-135593080D01*
X186137433Y-135637295D01*
X186189782Y-135663470D01*
X186248162Y-135667618D01*
X186303684Y-135649110D01*
X186347899Y-135610763D01*
X186363564Y-135585878D01*
X186434992Y-135443020D01*
X186445502Y-135415557D01*
X186445883Y-135410181D01*
X186447946Y-135405203D01*
X186450828Y-135375939D01*
X186450828Y-135090225D01*
X186447946Y-135060961D01*
X186445883Y-135055982D01*
X186445502Y-135050607D01*
X186434993Y-135023144D01*
X186363564Y-134880286D01*
X186360484Y-134875393D01*
X186359714Y-134873082D01*
X186357218Y-134870204D01*
X186347900Y-134855400D01*
X186333688Y-134843074D01*
X186321367Y-134828868D01*
X186306562Y-134819548D01*
X186303685Y-134817053D01*
X186301374Y-134816282D01*
X186296482Y-134813203D01*
X186153623Y-134741775D01*
X186126160Y-134731265D01*
X186120784Y-134730883D01*
X186115806Y-134728821D01*
X186086542Y-134725939D01*
X185800990Y-134725939D01*
X185800985Y-134725938D01*
X185800980Y-134725939D01*
X185515114Y-134725939D01*
X185485850Y-134728821D01*
X185480871Y-134730883D01*
X185475496Y-134731265D01*
X185448033Y-134741775D01*
X185305175Y-134813203D01*
X185300281Y-134816283D01*
X185297973Y-134817053D01*
X185295097Y-134819546D01*
X185280290Y-134828868D01*
X185267969Y-134843074D01*
X185253758Y-134855399D01*
X185244435Y-134870209D01*
X185241943Y-134873083D01*
X185241173Y-134875390D01*
X185238093Y-134880285D01*
X185166664Y-135023143D01*
X185156154Y-135050606D01*
X185155771Y-135055983D01*
X185153710Y-135060961D01*
X185150828Y-135090225D01*
X184033030Y-135090225D01*
X184033030Y-135060961D01*
X184010632Y-135006889D01*
X183969248Y-134965505D01*
X183915176Y-134943107D01*
X183885912Y-134940225D01*
X183135608Y-134940225D01*
X183069144Y-134906993D01*
X183035912Y-134840528D01*
X183035912Y-134697063D01*
X183080619Y-134607648D01*
X183090902Y-134597367D01*
X183885912Y-134597367D01*
X183915176Y-134594485D01*
X183969248Y-134572087D01*
X184010632Y-134530703D01*
X184033030Y-134476631D01*
X184033030Y-134418103D01*
X184010632Y-134364031D01*
X183969248Y-134322647D01*
X183915176Y-134300249D01*
X183885912Y-134297367D01*
X182885912Y-134297367D01*
X182856648Y-134300249D01*
X182802576Y-134322647D01*
X182761192Y-134364031D01*
X182738794Y-134418103D01*
X182738794Y-134476631D01*
X182761192Y-134530703D01*
X182776185Y-134545696D01*
X182751748Y-134594571D01*
X182741239Y-134622034D01*
X182740857Y-134627408D01*
X182738794Y-134632389D01*
X182735912Y-134661653D01*
X179654329Y-134661653D01*
X179654329Y-133590226D01*
X180320996Y-133590226D01*
X180320996Y-133875940D01*
X180323878Y-133905204D01*
X180325941Y-133910184D01*
X180326323Y-133915559D01*
X180336832Y-133943022D01*
X180408261Y-134085879D01*
X180411339Y-134090769D01*
X180412110Y-134093081D01*
X180414606Y-134095959D01*
X180423926Y-134110765D01*
X180438133Y-134123086D01*
X180450457Y-134137296D01*
X180465266Y-134146618D01*
X180468141Y-134149111D01*
X180470448Y-134149880D01*
X180475343Y-134152961D01*
X180618199Y-134224390D01*
X180645663Y-134234899D01*
X180651037Y-134235280D01*
X180656018Y-134237344D01*
X180685282Y-134240226D01*
X181470996Y-134240226D01*
X181500260Y-134237344D01*
X181554332Y-134214946D01*
X181595716Y-134173562D01*
X181618114Y-134119490D01*
X181618114Y-134060962D01*
X181618113Y-134060960D01*
X184653710Y-134060960D01*
X184653710Y-134119488D01*
X184676108Y-134173560D01*
X184717492Y-134214944D01*
X184771564Y-134237342D01*
X184800828Y-134240224D01*
X185150828Y-134240224D01*
X185150828Y-134447367D01*
X185153710Y-134476631D01*
X185176108Y-134530703D01*
X185217492Y-134572087D01*
X185271564Y-134594485D01*
X185330092Y-134594485D01*
X185384164Y-134572087D01*
X185425548Y-134530703D01*
X185447946Y-134476631D01*
X185450828Y-134447367D01*
X185450828Y-134240224D01*
X186051132Y-134240224D01*
X186117596Y-134273456D01*
X186150828Y-134339919D01*
X186150828Y-134447367D01*
X186153710Y-134476631D01*
X186176108Y-134530703D01*
X186217492Y-134572087D01*
X186271564Y-134594485D01*
X186330092Y-134594485D01*
X186384164Y-134572087D01*
X186425548Y-134530703D01*
X186447946Y-134476631D01*
X186450828Y-134447367D01*
X186450828Y-134304510D01*
X186447946Y-134275246D01*
X186445883Y-134270267D01*
X186445502Y-134264892D01*
X186434992Y-134237429D01*
X186363564Y-134094571D01*
X186360483Y-134089677D01*
X186359714Y-134087369D01*
X186357220Y-134084493D01*
X186347899Y-134069686D01*
X186333692Y-134057365D01*
X186321368Y-134043154D01*
X186306557Y-134033831D01*
X186303684Y-134031339D01*
X186301376Y-134030569D01*
X186296482Y-134027489D01*
X186153624Y-133956060D01*
X186126161Y-133945550D01*
X186120783Y-133945167D01*
X186115806Y-133943106D01*
X186086542Y-133940224D01*
X185450828Y-133940224D01*
X185450828Y-133875939D01*
X185447946Y-133846675D01*
X185425548Y-133792603D01*
X185384164Y-133751219D01*
X185340378Y-133733082D01*
X185384164Y-133714945D01*
X185425548Y-133673561D01*
X185447946Y-133619489D01*
X185450828Y-133590225D01*
X185450828Y-133482778D01*
X185495535Y-133393363D01*
X185532539Y-133356359D01*
X185621952Y-133311653D01*
X186300828Y-133311653D01*
X186330092Y-133308771D01*
X186384164Y-133286373D01*
X186425548Y-133244989D01*
X186447946Y-133190917D01*
X186447946Y-133132389D01*
X186425548Y-133078317D01*
X186384164Y-133036933D01*
X186330092Y-133014535D01*
X186300828Y-133011653D01*
X185300828Y-133011653D01*
X185271564Y-133014535D01*
X185217492Y-133036933D01*
X185176108Y-133078317D01*
X185153710Y-133132389D01*
X185153710Y-133190917D01*
X185176108Y-133244989D01*
X185214911Y-133283792D01*
X185166664Y-133380286D01*
X185156155Y-133407749D01*
X185155773Y-133413123D01*
X185153710Y-133418104D01*
X185150828Y-133447368D01*
X185150828Y-133590225D01*
X185153710Y-133619489D01*
X185176108Y-133673561D01*
X185217492Y-133714945D01*
X185261277Y-133733082D01*
X185217492Y-133751219D01*
X185176108Y-133792603D01*
X185153710Y-133846675D01*
X185150828Y-133875939D01*
X185150828Y-133940224D01*
X184800828Y-133940224D01*
X184771564Y-133943106D01*
X184717492Y-133965504D01*
X184676108Y-134006888D01*
X184653710Y-134060960D01*
X181618113Y-134060960D01*
X181601707Y-134021355D01*
X181605161Y-134014449D01*
X181615670Y-133986986D01*
X181616051Y-133981610D01*
X181618114Y-133976632D01*
X181620996Y-133947368D01*
X181620996Y-133703817D01*
X182238794Y-133703817D01*
X182238794Y-133762345D01*
X182244139Y-133775248D01*
X182261191Y-133816416D01*
X182279846Y-133839147D01*
X182351275Y-133910576D01*
X182374006Y-133929231D01*
X182428078Y-133951628D01*
X182428079Y-133951628D01*
X182486605Y-133951628D01*
X182514136Y-133940224D01*
X182540676Y-133929231D01*
X182540677Y-133929230D01*
X182563408Y-133910575D01*
X182634836Y-133839146D01*
X182653490Y-133816416D01*
X182663353Y-133792603D01*
X182675887Y-133762345D01*
X182675887Y-133703817D01*
X182738794Y-133703817D01*
X182738794Y-133762345D01*
X182761192Y-133816417D01*
X182802576Y-133857801D01*
X182856648Y-133880199D01*
X182885912Y-133883081D01*
X183885912Y-133883081D01*
X183915176Y-133880199D01*
X183969248Y-133857801D01*
X184010632Y-133816417D01*
X184033030Y-133762345D01*
X184033030Y-133703817D01*
X184010632Y-133649745D01*
X183969248Y-133608361D01*
X183915176Y-133585963D01*
X183885912Y-133583081D01*
X182885912Y-133583081D01*
X182856648Y-133585963D01*
X182802576Y-133608361D01*
X182761192Y-133649745D01*
X182738794Y-133703817D01*
X182675887Y-133703817D01*
X182662766Y-133672142D01*
X182653490Y-133649745D01*
X182634835Y-133627015D01*
X182563407Y-133555587D01*
X182540676Y-133536932D01*
X182486604Y-133514535D01*
X182428078Y-133514535D01*
X182374006Y-133536932D01*
X182351276Y-133555586D01*
X182279847Y-133627014D01*
X182261192Y-133649745D01*
X182261191Y-133649746D01*
X182251327Y-133673561D01*
X182238794Y-133703817D01*
X181620996Y-133703817D01*
X181620996Y-133590226D01*
X181618114Y-133560962D01*
X181616051Y-133555983D01*
X181615670Y-133550608D01*
X181605161Y-133523145D01*
X181533732Y-133380287D01*
X181530652Y-133375394D01*
X181529882Y-133373083D01*
X181527386Y-133370205D01*
X181518068Y-133355401D01*
X181503856Y-133343075D01*
X181491535Y-133328869D01*
X181476730Y-133319549D01*
X181473853Y-133317054D01*
X181471542Y-133316283D01*
X181466650Y-133313204D01*
X181323791Y-133241776D01*
X181296328Y-133231266D01*
X181290952Y-133230884D01*
X181285974Y-133228822D01*
X181256710Y-133225940D01*
X181113853Y-133225940D01*
X181084589Y-133228822D01*
X181079610Y-133230884D01*
X181074235Y-133231266D01*
X181046772Y-133241776D01*
X180903914Y-133313204D01*
X180899021Y-133316283D01*
X180896711Y-133317054D01*
X180893833Y-133319549D01*
X180879029Y-133328869D01*
X180866706Y-133343076D01*
X180852497Y-133355401D01*
X180843175Y-133370209D01*
X180840682Y-133373084D01*
X180839912Y-133375392D01*
X180836832Y-133380286D01*
X180765404Y-133523145D01*
X180754894Y-133550608D01*
X180754512Y-133555983D01*
X180752450Y-133560962D01*
X180749568Y-133590226D01*
X180749568Y-133911958D01*
X180735434Y-133940226D01*
X180720692Y-133940226D01*
X180654228Y-133906994D01*
X180620996Y-133840529D01*
X180620996Y-133625636D01*
X180676589Y-133514450D01*
X180687099Y-133486987D01*
X180691247Y-133428607D01*
X180672739Y-133373084D01*
X180634393Y-133328869D01*
X180582044Y-133302694D01*
X180523663Y-133298546D01*
X180468141Y-133317054D01*
X180423926Y-133355400D01*
X180408261Y-133380286D01*
X180336832Y-133523144D01*
X180326322Y-133550607D01*
X180325939Y-133555984D01*
X180323878Y-133560962D01*
X180320996Y-133590226D01*
X179654329Y-133590226D01*
X179654329Y-132375940D01*
X180320996Y-132375940D01*
X180320996Y-132590225D01*
X180323878Y-132619489D01*
X180325941Y-132624469D01*
X180326323Y-132629844D01*
X180336832Y-132657307D01*
X180408261Y-132800164D01*
X180423926Y-132825050D01*
X180468141Y-132863396D01*
X180523664Y-132881904D01*
X180582044Y-132877755D01*
X180634393Y-132851581D01*
X180672740Y-132807365D01*
X180691247Y-132751843D01*
X180687098Y-132693463D01*
X180676589Y-132665999D01*
X180620996Y-132554814D01*
X180620996Y-132411350D01*
X180654228Y-132344885D01*
X180720692Y-132311654D01*
X180721301Y-132311654D01*
X180787765Y-132344886D01*
X180820996Y-132411349D01*
X180820996Y-132590225D01*
X180823878Y-132619489D01*
X180825941Y-132624469D01*
X180826323Y-132629844D01*
X180836832Y-132657307D01*
X180908261Y-132800164D01*
X180911339Y-132805054D01*
X180912110Y-132807366D01*
X180914606Y-132810244D01*
X180923926Y-132825050D01*
X180938133Y-132837371D01*
X180950457Y-132851581D01*
X180965266Y-132860903D01*
X180968141Y-132863396D01*
X180970448Y-132864165D01*
X180975343Y-132867246D01*
X181118199Y-132938675D01*
X181145663Y-132949184D01*
X181151037Y-132949565D01*
X181156018Y-132951629D01*
X181185282Y-132954511D01*
X181256710Y-132954511D01*
X181285974Y-132951629D01*
X181290951Y-132949567D01*
X181296329Y-132949185D01*
X181323792Y-132938675D01*
X181466650Y-132867246D01*
X181471544Y-132864165D01*
X181473852Y-132863396D01*
X181476725Y-132860903D01*
X181491536Y-132851581D01*
X181495791Y-132846674D01*
X182238794Y-132846674D01*
X182238794Y-132905202D01*
X182261192Y-132959274D01*
X182302576Y-133000658D01*
X182356648Y-133023056D01*
X182385912Y-133025938D01*
X182735912Y-133025938D01*
X182735912Y-133233081D01*
X182738794Y-133262345D01*
X182761192Y-133316417D01*
X182802576Y-133357801D01*
X182856648Y-133380199D01*
X182915176Y-133380199D01*
X182969248Y-133357801D01*
X183010632Y-133316417D01*
X183033030Y-133262345D01*
X183035912Y-133233081D01*
X183035912Y-133025938D01*
X183636216Y-133025938D01*
X183702680Y-133059170D01*
X183735912Y-133125633D01*
X183735912Y-133233081D01*
X183738794Y-133262345D01*
X183761192Y-133316417D01*
X183802576Y-133357801D01*
X183856648Y-133380199D01*
X183915176Y-133380199D01*
X183969248Y-133357801D01*
X184010632Y-133316417D01*
X184033030Y-133262345D01*
X184035912Y-133233081D01*
X184035912Y-133090224D01*
X184033030Y-133060960D01*
X184030967Y-133055981D01*
X184030586Y-133050606D01*
X184020076Y-133023143D01*
X183948648Y-132880285D01*
X183945567Y-132875391D01*
X183944798Y-132873083D01*
X183942304Y-132870207D01*
X183932983Y-132855400D01*
X183918776Y-132843079D01*
X183906452Y-132828868D01*
X183891641Y-132819545D01*
X183888768Y-132817053D01*
X183886460Y-132816283D01*
X183881566Y-132813203D01*
X183738708Y-132741774D01*
X183711245Y-132731264D01*
X183705867Y-132730881D01*
X183700890Y-132728820D01*
X183671626Y-132725938D01*
X183035912Y-132725938D01*
X183035912Y-132661653D01*
X183033030Y-132632389D01*
X183010632Y-132578317D01*
X182969248Y-132536933D01*
X182915176Y-132514535D01*
X182856648Y-132514535D01*
X182802576Y-132536933D01*
X182761192Y-132578317D01*
X182738794Y-132632389D01*
X182735912Y-132661653D01*
X182735912Y-132725938D01*
X182385912Y-132725938D01*
X182356648Y-132728820D01*
X182302576Y-132751218D01*
X182261192Y-132792602D01*
X182238794Y-132846674D01*
X181495791Y-132846674D01*
X181503860Y-132837369D01*
X181518067Y-132825049D01*
X181527388Y-132810241D01*
X181529882Y-132807366D01*
X181530651Y-132805057D01*
X181533732Y-132800164D01*
X181605160Y-132657306D01*
X181615670Y-132629843D01*
X181616051Y-132624467D01*
X181618114Y-132619489D01*
X181620996Y-132590225D01*
X181620996Y-132304511D01*
X181618114Y-132275247D01*
X181616051Y-132270268D01*
X181615670Y-132264893D01*
X181605160Y-132237430D01*
X181533732Y-132094572D01*
X181518067Y-132069687D01*
X181473852Y-132031340D01*
X181418330Y-132012832D01*
X181359950Y-132016980D01*
X181307601Y-132043155D01*
X181269254Y-132087370D01*
X181250746Y-132142892D01*
X181254894Y-132201272D01*
X181265404Y-132228736D01*
X181320996Y-132339920D01*
X181320996Y-132554815D01*
X181287764Y-132621278D01*
X181221300Y-132654511D01*
X181220692Y-132654511D01*
X181154228Y-132621279D01*
X181120996Y-132554814D01*
X181120996Y-132375940D01*
X181118114Y-132346676D01*
X181116051Y-132341697D01*
X181115670Y-132336322D01*
X181105161Y-132308859D01*
X181033732Y-132166001D01*
X181030652Y-132161108D01*
X181029882Y-132158797D01*
X181027386Y-132155919D01*
X181018068Y-132141115D01*
X181003856Y-132128789D01*
X180991535Y-132114583D01*
X180976730Y-132105263D01*
X180973853Y-132102768D01*
X180971542Y-132101997D01*
X180966650Y-132098918D01*
X180823791Y-132027490D01*
X180796328Y-132016980D01*
X180790952Y-132016598D01*
X180785974Y-132014536D01*
X180756710Y-132011654D01*
X180685282Y-132011654D01*
X180656018Y-132014536D01*
X180651039Y-132016598D01*
X180645664Y-132016980D01*
X180618201Y-132027490D01*
X180475343Y-132098918D01*
X180470449Y-132101998D01*
X180468141Y-132102768D01*
X180465265Y-132105261D01*
X180450458Y-132114583D01*
X180438137Y-132128789D01*
X180423926Y-132141114D01*
X180414603Y-132155924D01*
X180412111Y-132158798D01*
X180411341Y-132161105D01*
X180408261Y-132166000D01*
X180336832Y-132308858D01*
X180326322Y-132336321D01*
X180325939Y-132341698D01*
X180323878Y-132346676D01*
X180320996Y-132375940D01*
X179654329Y-132375940D01*
X179654329Y-131804510D01*
X182735912Y-131804510D01*
X182735912Y-132090224D01*
X182738794Y-132119488D01*
X182740855Y-132124465D01*
X182741238Y-132129843D01*
X182751748Y-132157306D01*
X182823177Y-132300164D01*
X182838842Y-132325050D01*
X182883057Y-132363396D01*
X182938579Y-132381904D01*
X182996960Y-132377756D01*
X183049309Y-132351581D01*
X183087655Y-132307366D01*
X183106163Y-132251843D01*
X183102015Y-132193463D01*
X183091505Y-132166000D01*
X183035912Y-132054814D01*
X183035912Y-131839920D01*
X183080619Y-131750505D01*
X183117623Y-131713501D01*
X183207036Y-131668796D01*
X183564788Y-131668796D01*
X183654200Y-131713501D01*
X183691205Y-131750506D01*
X183735912Y-131839919D01*
X183735912Y-132054814D01*
X183680320Y-132166001D01*
X183669810Y-132193464D01*
X183665662Y-132251844D01*
X183684170Y-132307367D01*
X183722517Y-132351582D01*
X183774866Y-132377756D01*
X183833246Y-132381904D01*
X183888769Y-132363396D01*
X183932984Y-132325049D01*
X183948648Y-132300163D01*
X184020077Y-132157305D01*
X184030586Y-132129842D01*
X184030967Y-132124466D01*
X184033030Y-132119488D01*
X184035912Y-132090224D01*
X184035912Y-131947368D01*
X185150828Y-131947368D01*
X185150828Y-132233082D01*
X185153710Y-132262346D01*
X185155773Y-132267326D01*
X185156155Y-132272701D01*
X185166664Y-132300164D01*
X185238093Y-132443021D01*
X185241171Y-132447911D01*
X185241942Y-132450223D01*
X185244438Y-132453101D01*
X185253758Y-132467907D01*
X185267965Y-132480228D01*
X185280289Y-132494438D01*
X185295098Y-132503760D01*
X185297973Y-132506253D01*
X185300280Y-132507022D01*
X185305175Y-132510103D01*
X185448031Y-132581532D01*
X185475495Y-132592041D01*
X185480869Y-132592422D01*
X185485850Y-132594486D01*
X185515114Y-132597368D01*
X186300828Y-132597368D01*
X186330092Y-132594486D01*
X186384164Y-132572088D01*
X186425548Y-132530704D01*
X186447946Y-132476632D01*
X186447946Y-132418104D01*
X186431539Y-132378497D01*
X186434993Y-132371591D01*
X186445502Y-132344128D01*
X186445883Y-132338752D01*
X186447946Y-132333774D01*
X186450828Y-132304510D01*
X186450828Y-131947368D01*
X186447946Y-131918104D01*
X186445883Y-131913125D01*
X186445502Y-131907750D01*
X186434993Y-131880287D01*
X186363564Y-131737429D01*
X186360484Y-131732536D01*
X186359714Y-131730225D01*
X186357218Y-131727347D01*
X186347900Y-131712543D01*
X186333688Y-131700217D01*
X186321367Y-131686011D01*
X186306562Y-131676691D01*
X186303685Y-131674196D01*
X186301374Y-131673425D01*
X186296482Y-131670346D01*
X186153623Y-131598918D01*
X186126160Y-131588408D01*
X186120784Y-131588026D01*
X186115806Y-131585964D01*
X186086542Y-131583082D01*
X185943685Y-131583082D01*
X185914421Y-131585964D01*
X185909442Y-131588026D01*
X185904067Y-131588408D01*
X185876604Y-131598918D01*
X185733746Y-131670346D01*
X185728853Y-131673425D01*
X185726543Y-131674196D01*
X185723665Y-131676691D01*
X185708861Y-131686011D01*
X185696538Y-131700218D01*
X185682329Y-131712543D01*
X185673007Y-131727351D01*
X185670514Y-131730226D01*
X185669744Y-131732534D01*
X185666664Y-131737428D01*
X185595236Y-131880287D01*
X185584726Y-131907750D01*
X185584344Y-131913125D01*
X185582282Y-131918104D01*
X185579400Y-131947368D01*
X185579400Y-132269100D01*
X185565266Y-132297368D01*
X185550524Y-132297368D01*
X185484060Y-132264136D01*
X185450828Y-132197671D01*
X185450828Y-131982778D01*
X185506421Y-131871592D01*
X185516931Y-131844129D01*
X185521079Y-131785749D01*
X185502571Y-131730226D01*
X185464225Y-131686011D01*
X185411876Y-131659836D01*
X185353495Y-131655688D01*
X185297973Y-131674196D01*
X185253758Y-131712542D01*
X185238093Y-131737428D01*
X185166664Y-131880286D01*
X185156154Y-131907749D01*
X185155771Y-131913126D01*
X185153710Y-131918104D01*
X185150828Y-131947368D01*
X184035912Y-131947368D01*
X184035912Y-131804510D01*
X184033030Y-131775246D01*
X184030967Y-131770267D01*
X184030586Y-131764892D01*
X184020076Y-131737429D01*
X183948648Y-131594571D01*
X183940721Y-131581979D01*
X183939205Y-131578318D01*
X183935821Y-131574195D01*
X183932983Y-131569686D01*
X183929991Y-131567091D01*
X183920550Y-131555587D01*
X183849121Y-131484158D01*
X183837619Y-131474718D01*
X183835023Y-131471725D01*
X183830509Y-131468884D01*
X183826390Y-131465503D01*
X183822730Y-131463987D01*
X183810137Y-131456060D01*
X183667280Y-131384632D01*
X183639816Y-131374122D01*
X183634440Y-131373740D01*
X183629462Y-131371678D01*
X183600198Y-131368796D01*
X183171626Y-131368796D01*
X183142362Y-131371678D01*
X183137383Y-131373740D01*
X183132008Y-131374122D01*
X183104545Y-131384632D01*
X182961687Y-131456060D01*
X182949092Y-131463988D01*
X182945433Y-131465504D01*
X182941312Y-131468885D01*
X182936802Y-131471725D01*
X182934207Y-131474716D01*
X182922702Y-131484159D01*
X182851274Y-131555588D01*
X182841836Y-131567087D01*
X182838842Y-131569685D01*
X182835999Y-131574201D01*
X182832620Y-131578319D01*
X182831105Y-131581975D01*
X182823177Y-131594571D01*
X182751748Y-131737428D01*
X182741239Y-131764891D01*
X182740857Y-131770265D01*
X182738794Y-131775246D01*
X182735912Y-131804510D01*
X179654329Y-131804510D01*
X179654329Y-131489532D01*
X179823878Y-131489532D01*
X179823878Y-131548060D01*
X179829223Y-131560963D01*
X179846275Y-131602131D01*
X179864930Y-131624862D01*
X179936359Y-131696291D01*
X179959090Y-131714946D01*
X180013162Y-131737343D01*
X180013163Y-131737343D01*
X180071689Y-131737343D01*
X180094086Y-131728065D01*
X180125760Y-131714946D01*
X180125761Y-131714945D01*
X180148492Y-131696290D01*
X180219920Y-131624861D01*
X180238574Y-131602131D01*
X180255626Y-131560963D01*
X180260971Y-131548060D01*
X180260971Y-131489532D01*
X180323878Y-131489532D01*
X180323878Y-131548060D01*
X180346276Y-131602132D01*
X180387660Y-131643516D01*
X180441732Y-131665914D01*
X180470996Y-131668796D01*
X181470996Y-131668796D01*
X181500260Y-131665914D01*
X181554332Y-131643516D01*
X181595716Y-131602132D01*
X181618114Y-131548060D01*
X181618114Y-131489532D01*
X181595716Y-131435460D01*
X181554332Y-131394076D01*
X181500260Y-131371678D01*
X181470996Y-131368796D01*
X180470996Y-131368796D01*
X180441732Y-131371678D01*
X180387660Y-131394076D01*
X180346276Y-131435460D01*
X180323878Y-131489532D01*
X180260971Y-131489532D01*
X180241741Y-131443107D01*
X180238574Y-131435460D01*
X180219919Y-131412730D01*
X180148491Y-131341302D01*
X180125760Y-131322647D01*
X180071688Y-131300250D01*
X180013162Y-131300250D01*
X179959090Y-131322647D01*
X179936360Y-131341301D01*
X179864931Y-131412729D01*
X179846276Y-131435460D01*
X179846275Y-131435461D01*
X179843108Y-131443107D01*
X179823878Y-131489532D01*
X179654329Y-131489532D01*
X179654329Y-130275246D01*
X179823878Y-130275246D01*
X179823878Y-130333774D01*
X179846276Y-130387846D01*
X179887660Y-130429230D01*
X179941732Y-130451628D01*
X179970996Y-130454510D01*
X181320996Y-130454510D01*
X181320996Y-131018796D01*
X181323878Y-131048060D01*
X181346276Y-131102132D01*
X181387660Y-131143516D01*
X181441732Y-131165914D01*
X181500260Y-131165914D01*
X181554332Y-131143516D01*
X181595716Y-131102132D01*
X181618114Y-131048060D01*
X181620996Y-131018796D01*
X181620996Y-130571464D01*
X182237090Y-130571464D01*
X182238423Y-130590225D01*
X182237090Y-130608986D01*
X182240479Y-130619153D01*
X182241239Y-130629845D01*
X182249650Y-130646668D01*
X182255598Y-130664510D01*
X182262620Y-130672606D01*
X182267413Y-130682192D01*
X182281621Y-130694515D01*
X182293945Y-130708724D01*
X182303530Y-130713516D01*
X182311627Y-130720539D01*
X182338478Y-130732527D01*
X183838478Y-131232528D01*
X183867152Y-131239048D01*
X183925532Y-131234898D01*
X183977879Y-131208724D01*
X184016226Y-131164510D01*
X184034735Y-131108986D01*
X184030585Y-131050606D01*
X184004412Y-130998258D01*
X183960197Y-130959911D01*
X183933346Y-130947923D01*
X183607341Y-130839254D01*
X183607341Y-130733082D01*
X184650828Y-130733082D01*
X184650828Y-130875939D01*
X184652286Y-130890750D01*
X184652006Y-130894700D01*
X184653187Y-130899894D01*
X184653710Y-130905203D01*
X184655227Y-130908865D01*
X184658526Y-130923373D01*
X184729954Y-131137659D01*
X184741943Y-131164510D01*
X184745473Y-131168580D01*
X184747536Y-131173560D01*
X184766191Y-131196291D01*
X184837619Y-131267719D01*
X184860349Y-131286374D01*
X184914422Y-131308770D01*
X184972948Y-131308770D01*
X185027020Y-131286374D01*
X185068406Y-131244988D01*
X185090802Y-131190916D01*
X185090802Y-131132390D01*
X185068406Y-131078317D01*
X185049751Y-131055587D01*
X185003361Y-131009197D01*
X184950828Y-130851598D01*
X184950828Y-130757422D01*
X185003361Y-130599823D01*
X185103968Y-130499216D01*
X185210327Y-130446037D01*
X185462149Y-130383082D01*
X185639507Y-130383082D01*
X185891328Y-130446036D01*
X185997688Y-130499217D01*
X186098294Y-130599822D01*
X186150828Y-130757424D01*
X186150828Y-130851596D01*
X186098294Y-131009198D01*
X186051906Y-131055586D01*
X186033251Y-131078317D01*
X186010853Y-131132389D01*
X186010853Y-131190915D01*
X186033250Y-131244987D01*
X186074635Y-131286373D01*
X186128707Y-131308771D01*
X186187233Y-131308771D01*
X186241305Y-131286374D01*
X186264036Y-131267720D01*
X186335465Y-131196292D01*
X186354120Y-131173561D01*
X186356181Y-131168584D01*
X186359715Y-131164510D01*
X186371703Y-131137659D01*
X186443131Y-130923373D01*
X186446430Y-130908860D01*
X186447946Y-130905203D01*
X186448468Y-130899900D01*
X186449651Y-130894699D01*
X186449369Y-130890744D01*
X186450828Y-130875939D01*
X186450828Y-130733082D01*
X186449369Y-130718276D01*
X186449651Y-130714322D01*
X186448468Y-130709120D01*
X186447946Y-130703818D01*
X186446430Y-130700160D01*
X186443131Y-130685648D01*
X186371703Y-130471362D01*
X186359715Y-130444511D01*
X186356183Y-130440439D01*
X186354121Y-130435460D01*
X186335466Y-130412730D01*
X186192608Y-130269873D01*
X186181106Y-130260433D01*
X186178510Y-130257440D01*
X186173996Y-130254599D01*
X186169877Y-130251218D01*
X186166217Y-130249702D01*
X186153624Y-130241775D01*
X186010767Y-130170346D01*
X186008626Y-130169526D01*
X186007756Y-130168882D01*
X185995478Y-130164495D01*
X185983304Y-130159837D01*
X185982223Y-130159760D01*
X185980065Y-130158989D01*
X185694351Y-130087561D01*
X185689279Y-130086811D01*
X185687235Y-130085964D01*
X185676212Y-130084878D01*
X185665262Y-130083259D01*
X185663074Y-130083584D01*
X185657971Y-130083082D01*
X185443685Y-130083082D01*
X185438581Y-130083584D01*
X185436394Y-130083259D01*
X185425443Y-130084878D01*
X185414421Y-130085964D01*
X185412376Y-130086811D01*
X185407305Y-130087561D01*
X185121591Y-130158989D01*
X185119432Y-130159760D01*
X185118352Y-130159837D01*
X185106171Y-130164497D01*
X185093900Y-130168882D01*
X185093030Y-130169526D01*
X185090888Y-130170346D01*
X184948032Y-130241775D01*
X184935440Y-130249701D01*
X184931778Y-130251218D01*
X184927655Y-130254601D01*
X184923146Y-130257440D01*
X184920550Y-130260432D01*
X184909048Y-130269873D01*
X184766191Y-130412730D01*
X184747536Y-130435461D01*
X184745473Y-130440440D01*
X184741943Y-130444511D01*
X184729954Y-130471362D01*
X184658526Y-130685648D01*
X184655227Y-130700155D01*
X184653710Y-130703818D01*
X184653187Y-130709126D01*
X184652006Y-130714321D01*
X184652286Y-130718270D01*
X184650828Y-130733082D01*
X183607341Y-130733082D01*
X183607341Y-130341195D01*
X183933346Y-130232527D01*
X183960197Y-130220539D01*
X184004412Y-130182192D01*
X184030585Y-130129844D01*
X184034735Y-130071464D01*
X184016226Y-130015940D01*
X183977879Y-129971726D01*
X183925532Y-129945552D01*
X183867152Y-129941402D01*
X183838478Y-129947922D01*
X182338478Y-130447923D01*
X182311627Y-130459911D01*
X182303530Y-130466933D01*
X182293945Y-130471726D01*
X182281621Y-130485934D01*
X182267413Y-130498258D01*
X182262620Y-130507843D01*
X182255598Y-130515940D01*
X182249650Y-130533781D01*
X182241239Y-130550605D01*
X182240479Y-130561296D01*
X182237090Y-130571464D01*
X181620996Y-130571464D01*
X181620996Y-130304510D01*
X181618114Y-130275246D01*
X181595716Y-130221174D01*
X181554332Y-130179790D01*
X181500260Y-130157392D01*
X181470996Y-130154510D01*
X179970996Y-130154510D01*
X179941732Y-130157392D01*
X179887660Y-130179790D01*
X179846276Y-130221174D01*
X179823878Y-130275246D01*
X179654329Y-130275246D01*
X179654329Y-129774735D01*
X186617495Y-129774735D01*
X186617495Y-144549750D01*
G37*
D11*
X162500000Y-154000000D03*
D12*
X162500000Y-154000000D03*
D13*
X170300000Y-110240000D03*
D14*
X170300000Y-112780000D03*
X170300000Y-115320000D03*
X170300000Y-117860000D03*
X170300000Y-120400000D03*
X170300000Y-122940000D03*
X170300000Y-125480000D03*
X170300000Y-128020000D03*
X170300000Y-130560000D03*
X170300000Y-133100000D03*
X170300000Y-135640000D03*
X170300000Y-138180000D03*
X170300000Y-140720000D03*
X170300000Y-143260000D03*
X170300000Y-145800000D03*
X170300000Y-148340000D03*
X170300000Y-150880000D03*
X170300000Y-153420000D03*
X170300000Y-155960000D03*
X195700000Y-110240000D03*
X195700000Y-112780000D03*
X195700000Y-115320000D03*
X195700000Y-117860000D03*
X195700000Y-120400000D03*
X195700000Y-122940000D03*
X195700000Y-125480000D03*
X195700000Y-128020000D03*
X195700000Y-130560000D03*
X195700000Y-133100000D03*
X195700000Y-135640000D03*
X195700000Y-138180000D03*
X195700000Y-140720000D03*
X195700000Y-143260000D03*
X195700000Y-145800000D03*
X195700000Y-148340000D03*
X195700000Y-150880000D03*
X195700000Y-153420000D03*
X195700000Y-155960000D03*
D15*
X159500000Y-98250000D03*
D16*
X161500000Y-98250000D03*
X163500000Y-98250000D03*
X165500000Y-98250000D03*
D17*
X159960000Y-147230000D03*
D18*
X162500000Y-147230000D03*
X165040000Y-147230000D03*
D19*
X161050000Y-117710000D03*
D20*
X161050000Y-122790000D03*
D15*
X159500000Y-91950000D03*
D16*
X161500000Y-91950000D03*
X163500000Y-91950000D03*
X165500000Y-91950000D03*
D11*
X196500000Y-91500000D03*
D12*
X196500000Y-91500000D03*
D15*
X159500000Y-104750000D03*
D16*
X161500000Y-104750000D03*
X163500000Y-104750000D03*
X165500000Y-104750000D03*
D21*
X166975000Y-143000000D03*
X164025000Y-143000000D03*
D22*
X188000000Y-97690000D03*
X188000000Y-98960000D03*
X188000000Y-100230000D03*
X188000000Y-101500000D03*
X182793000Y-101500000D03*
X182793000Y-100230000D03*
X182793000Y-98960000D03*
X182793000Y-97690000D03*
X187957000Y-104940000D03*
X187957000Y-106210000D03*
X187957000Y-107480000D03*
X187957000Y-108750000D03*
X182750000Y-108750000D03*
X182750000Y-107480000D03*
X182750000Y-106210000D03*
X182750000Y-104940000D03*
X188000000Y-90690000D03*
X188000000Y-91960000D03*
X188000000Y-93230000D03*
X188000000Y-94500000D03*
X182793000Y-94500000D03*
X182793000Y-93230000D03*
X182793000Y-91960000D03*
X182793000Y-90690000D03*
D23*
X158275000Y-143000000D03*
X161225000Y-143000000D03*
D21*
X166950000Y-139500000D03*
X164000000Y-139500000D03*
D24*
X177669500Y-94480000D03*
X174744500Y-94480000D03*
X177682000Y-101480000D03*
X174757000Y-101480000D03*
D21*
X177694500Y-90980000D03*
X174744500Y-90980000D03*
D24*
X177707000Y-108730000D03*
X174782000Y-108730000D03*
D21*
X177657000Y-97980000D03*
X174707000Y-97980000D03*
X177694500Y-105230000D03*
X174744500Y-105230000D03*
D23*
X158275000Y-139500000D03*
X161225000Y-139500000D03*
D25*
X183250000Y-123000000D03*
X198750000Y-96250000D03*
X190750000Y-95750000D03*
X191250000Y-102750000D03*
X170250000Y-95000000D03*
X180250000Y-93250000D03*
X190500000Y-92750000D03*
X170250000Y-92000000D03*
X170250000Y-98250000D03*
X190750000Y-99500000D03*
X170250000Y-100750000D03*
X180250000Y-100750000D03*
X170500000Y-107500000D03*
X180250000Y-108000000D03*
X170250000Y-104750000D03*
X191000000Y-106750000D03*
D26*
X180250000Y-108000000D02*
X182040000Y-106210000D01*
X182040000Y-106210000D02*
X182750000Y-106210000D01*
X178477000Y-109500000D02*
X182000000Y-109500000D01*
X177707000Y-108730000D02*
X178477000Y-109500000D01*
X182000000Y-109500000D02*
X182750000Y-108750000D01*
X182040000Y-98960000D02*
X182793000Y-98960000D01*
X180250000Y-100750000D02*
X182040000Y-98960000D01*
X163500000Y-93500000D02*
X163500000Y-91950000D01*
X169500000Y-94000000D02*
X164000000Y-94000000D01*
X170250000Y-94750000D02*
X169500000Y-94000000D01*
X164000000Y-94000000D02*
X163500000Y-93500000D01*
X170250000Y-95000000D02*
X170250000Y-94750000D01*
X178452000Y-102250000D02*
X182043000Y-102250000D01*
X177682000Y-101480000D02*
X178452000Y-102250000D01*
X182043000Y-102250000D02*
X182793000Y-101500000D01*
X190210000Y-106210000D02*
X187957000Y-106210000D01*
X191000000Y-106750000D02*
X190750000Y-106750000D01*
X190750000Y-106750000D02*
X190210000Y-106210000D01*
X190000000Y-101500000D02*
X191250000Y-102750000D01*
X188000000Y-101500000D02*
X190000000Y-101500000D01*
X190750000Y-99500000D02*
X190210000Y-98960000D01*
X190210000Y-98960000D02*
X188000000Y-98960000D01*
X189500000Y-94500000D02*
X190750000Y-95750000D01*
X188000000Y-94500000D02*
X189500000Y-94500000D01*
X190210000Y-91960000D02*
X188000000Y-91960000D01*
X190500000Y-92750000D02*
X190500000Y-92250000D01*
X190500000Y-92250000D02*
X190210000Y-91960000D01*
X182043000Y-95250000D02*
X182793000Y-94500000D01*
X177669500Y-94480000D02*
X178439500Y-95250000D01*
X178439500Y-95250000D02*
X182043000Y-95250000D01*
X162500000Y-147230000D02*
X162500000Y-154000000D01*
X165500000Y-113750000D02*
X159500000Y-107750000D01*
X164025000Y-143000000D02*
X164025000Y-139525000D01*
X159500000Y-107750000D02*
X159500000Y-104750000D01*
X161050000Y-122790000D02*
X163460000Y-122790000D01*
X159500000Y-98250000D02*
X159500000Y-104750000D01*
X174757000Y-98030000D02*
X174707000Y-97980000D01*
X162500000Y-147230000D02*
X162500000Y-144000000D01*
X187957000Y-108750000D02*
X194210000Y-108750000D01*
X196500000Y-91500000D02*
X195000000Y-91500000D01*
X174744500Y-90980000D02*
X176724500Y-89000000D01*
X176724500Y-89000000D02*
X194000000Y-89000000D01*
X173250000Y-92474500D02*
X173250000Y-103735500D01*
X174744500Y-90980000D02*
X173250000Y-92474500D01*
X173250000Y-103735500D02*
X174744500Y-105230000D01*
X159500000Y-91950000D02*
X159500000Y-98250000D01*
X174782000Y-105267500D02*
X174744500Y-105230000D01*
X164025000Y-139525000D02*
X164000000Y-139500000D01*
X163460000Y-122790000D02*
X165500000Y-120750000D01*
X161225000Y-139500000D02*
X161225000Y-143000000D01*
X194210000Y-108750000D02*
X195700000Y-110240000D01*
X194000000Y-89000000D02*
X196500000Y-91500000D01*
X165500000Y-120750000D02*
X165500000Y-113750000D01*
X161500000Y-98250000D02*
X161500000Y-91950000D01*
X182750000Y-104940000D02*
X177984500Y-104940000D01*
X177657000Y-97392500D02*
X174744500Y-94480000D01*
X174744500Y-94480000D02*
X174744500Y-93930000D01*
X177984500Y-104940000D02*
X177694500Y-105230000D01*
X174707000Y-94517500D02*
X174744500Y-94480000D01*
X173272000Y-110240000D02*
X174782000Y-108730000D01*
X174782000Y-108142500D02*
X177694500Y-105230000D01*
X182793000Y-90690000D02*
X177984500Y-90690000D01*
X170300000Y-110240000D02*
X165490000Y-110240000D01*
X182793000Y-97690000D02*
X177947000Y-97690000D01*
X177984500Y-90690000D02*
X177694500Y-90980000D01*
X165490000Y-110240000D02*
X161500000Y-106250000D01*
X177694500Y-105230000D02*
X177694500Y-104417500D01*
X177657000Y-97980000D02*
X177657000Y-97392500D01*
X161500000Y-104750000D02*
X161500000Y-98250000D01*
X170300000Y-110240000D02*
X173272000Y-110240000D01*
X174757000Y-101480000D02*
X174757000Y-100880000D01*
X174744500Y-93930000D02*
X177694500Y-90980000D01*
X177947000Y-97690000D02*
X177657000Y-97980000D01*
X174757000Y-100880000D02*
X177657000Y-97980000D01*
X177694500Y-104417500D02*
X174757000Y-101480000D01*
X174782000Y-108730000D02*
X174782000Y-108142500D01*
X161500000Y-106250000D02*
X161500000Y-104750000D01*
X186000000Y-100250000D02*
X186000000Y-94000000D01*
X187957000Y-107480000D02*
X186020000Y-107480000D01*
X188000000Y-100230000D02*
X186020000Y-100230000D01*
X186770000Y-93230000D02*
X188000000Y-93230000D01*
X186020000Y-107480000D02*
X186000000Y-107500000D01*
X186000000Y-94000000D02*
X186770000Y-93230000D01*
X189820000Y-115320000D02*
X186000000Y-111500000D01*
X186020000Y-100230000D02*
X186000000Y-100250000D01*
X195700000Y-115320000D02*
X189820000Y-115320000D01*
X186000000Y-111500000D02*
X186000000Y-107500000D01*
X186000000Y-107500000D02*
X186000000Y-100250000D01*
X184980000Y-100230000D02*
X185000000Y-100250000D01*
X184230000Y-93230000D02*
X182793000Y-93230000D01*
X185000000Y-113250000D02*
X185000000Y-107500000D01*
X195700000Y-122940000D02*
X194690000Y-122940000D01*
X185000000Y-94000000D02*
X184230000Y-93230000D01*
X185000000Y-107500000D02*
X185000000Y-100250000D01*
X184980000Y-107480000D02*
X185000000Y-107500000D01*
X182793000Y-100230000D02*
X184980000Y-100230000D01*
X182750000Y-107480000D02*
X184980000Y-107480000D01*
X185000000Y-100250000D02*
X185000000Y-94000000D01*
X194690000Y-122940000D02*
X185000000Y-113250000D01*
X193940000Y-104940000D02*
X198250000Y-109250000D01*
X198250000Y-128750000D02*
X196440000Y-130560000D01*
X187957000Y-104940000D02*
X193940000Y-104940000D01*
X198250000Y-109250000D02*
X198250000Y-128750000D01*
X196440000Y-130560000D02*
X195700000Y-130560000D01*
X197610000Y-135640000D02*
X195700000Y-135640000D01*
X188000000Y-97690000D02*
X191690000Y-97690000D01*
X191690000Y-97690000D02*
X199250000Y-105250000D01*
X199250000Y-134000000D02*
X197610000Y-135640000D01*
X199250000Y-105250000D02*
X199250000Y-134000000D01*
X192250000Y-94000000D02*
X200250000Y-102000000D01*
X197450000Y-138180000D02*
X195700000Y-138180000D01*
X200250000Y-102000000D02*
X200250000Y-135380000D01*
X192250000Y-92000000D02*
X192250000Y-94000000D01*
X200250000Y-135380000D02*
X197450000Y-138180000D01*
X188000000Y-90690000D02*
X190940000Y-90690000D01*
X190940000Y-90690000D02*
X192250000Y-92000000D01*
X158275000Y-143000000D02*
X158275000Y-139500000D01*
X159960000Y-144685000D02*
X158275000Y-143000000D01*
X158275000Y-139500000D02*
X158275000Y-120485000D01*
X159960000Y-147230000D02*
X159960000Y-144685000D01*
X158275000Y-120485000D02*
X161050000Y-117710000D01*
X165040000Y-144935000D02*
X166975000Y-143000000D01*
X166975000Y-139525000D02*
X166950000Y-139500000D01*
X165040000Y-150700000D02*
X170300000Y-155960000D01*
X165040000Y-147230000D02*
X165040000Y-144935000D01*
X165040000Y-147230000D02*
X165040000Y-150700000D01*
X166975000Y-143000000D02*
X166975000Y-139525000D01*
X182793000Y-91960000D02*
X181540000Y-91960000D01*
X181540000Y-91960000D02*
X180250000Y-93250000D01*
X165550000Y-92000000D02*
X165500000Y-91950000D01*
X170250000Y-92000000D02*
X165550000Y-92000000D01*
X170250000Y-98250000D02*
X165500000Y-98250000D01*
X163500000Y-100000000D02*
X163500000Y-98250000D01*
X164250000Y-100750000D02*
X163500000Y-100000000D01*
X170250000Y-100750000D02*
X164250000Y-100750000D01*
X165000000Y-107500000D02*
X163500000Y-106000000D01*
X170500000Y-107500000D02*
X165000000Y-107500000D01*
X163500000Y-106000000D02*
X163500000Y-104750000D01*
X170250000Y-104750000D02*
X165500000Y-104750000D01*
G04 #@! TA.AperFunction,Conductor*
G36*
X193748363Y-105460185D02*
G01*
X193769005Y-105476819D01*
X197713181Y-109420995D01*
X197746666Y-109482318D01*
X197749500Y-109508676D01*
X197749500Y-110679557D01*
X197745953Y-110691633D01*
X197747032Y-110704174D01*
X197736296Y-110724523D01*
X197729815Y-110746596D01*
X197720303Y-110754837D01*
X197714430Y-110765971D01*
X197694395Y-110777286D01*
X197677011Y-110792351D01*
X197664554Y-110794142D01*
X197653594Y-110800333D01*
X197630622Y-110799021D01*
X197607853Y-110802295D01*
X197594735Y-110796971D01*
X197583838Y-110796349D01*
X197558638Y-110782322D01*
X197552621Y-110779880D01*
X197550360Y-110778237D01*
X197499248Y-110737477D01*
X197462234Y-110714219D01*
X197458858Y-110711767D01*
X197439965Y-110687270D01*
X197419474Y-110664103D01*
X197418818Y-110659848D01*
X197416189Y-110656440D01*
X197413539Y-110625615D01*
X197408826Y-110595049D01*
X197410339Y-110588388D01*
X197410205Y-110586827D01*
X197411064Y-110585198D01*
X197413810Y-110573113D01*
X197415528Y-110567826D01*
X197427855Y-110490000D01*
X197086134Y-110490000D01*
X197032332Y-110477720D01*
X197008415Y-110466202D01*
X197008401Y-110466196D01*
X196743329Y-110373443D01*
X196743317Y-110373439D01*
X196469512Y-110310945D01*
X196469494Y-110310942D01*
X196250000Y-110286211D01*
X196250000Y-110167591D01*
X196212518Y-110027708D01*
X196190748Y-109990000D01*
X197427855Y-109990000D01*
X197415526Y-109912164D01*
X197415526Y-109912161D01*
X197347432Y-109702589D01*
X197247386Y-109506239D01*
X197117857Y-109327958D01*
X196962041Y-109172142D01*
X196783760Y-109042613D01*
X196587410Y-108942567D01*
X196377835Y-108874473D01*
X196160181Y-108840000D01*
X195950000Y-108840000D01*
X195950000Y-109749252D01*
X195912292Y-109727482D01*
X195772409Y-109690000D01*
X195627591Y-109690000D01*
X195487708Y-109727482D01*
X195450000Y-109749252D01*
X195450000Y-108840000D01*
X195239819Y-108840000D01*
X195022164Y-108874473D01*
X194812589Y-108942567D01*
X194616239Y-109042613D01*
X194437958Y-109172142D01*
X194282142Y-109327958D01*
X194152613Y-109506239D01*
X194052567Y-109702589D01*
X193984473Y-109912161D01*
X193984473Y-109912164D01*
X193972145Y-109990000D01*
X195209252Y-109990000D01*
X195187482Y-110027708D01*
X195150000Y-110167591D01*
X195150000Y-110286211D01*
X194930505Y-110310942D01*
X194930487Y-110310945D01*
X194656682Y-110373439D01*
X194656670Y-110373443D01*
X194391598Y-110466196D01*
X194391584Y-110466202D01*
X194367668Y-110477720D01*
X194313866Y-110490000D01*
X193972145Y-110490000D01*
X193984472Y-110567833D01*
X193986193Y-110573128D01*
X193988187Y-110642969D01*
X193952105Y-110702801D01*
X193934236Y-110716436D01*
X193900754Y-110737475D01*
X193681175Y-110912583D01*
X193482583Y-111111175D01*
X193307476Y-111330753D01*
X193158053Y-111568557D01*
X193036200Y-111821588D01*
X192943443Y-112086670D01*
X192943439Y-112086682D01*
X192880945Y-112360487D01*
X192880942Y-112360505D01*
X192849500Y-112639568D01*
X192849500Y-112920431D01*
X192880942Y-113199494D01*
X192880945Y-113199512D01*
X192943439Y-113473317D01*
X192943443Y-113473329D01*
X193036200Y-113738411D01*
X193159564Y-113994579D01*
X193158416Y-113995131D01*
X193172462Y-114058261D01*
X193158732Y-114105020D01*
X193159564Y-114105421D01*
X193036200Y-114361588D01*
X192943443Y-114626670D01*
X192943439Y-114626682D01*
X192921435Y-114723092D01*
X192887326Y-114784071D01*
X192825665Y-114816929D01*
X192800544Y-114819500D01*
X190078676Y-114819500D01*
X190011637Y-114799815D01*
X189990995Y-114783181D01*
X186536819Y-111329005D01*
X186503334Y-111267682D01*
X186500500Y-111241324D01*
X186500500Y-109406730D01*
X186520185Y-109339691D01*
X186572989Y-109293936D01*
X186642147Y-109283992D01*
X186705703Y-109313017D01*
X186723768Y-109332420D01*
X186754510Y-109373488D01*
X186754514Y-109373491D01*
X186869606Y-109459650D01*
X186869613Y-109459654D01*
X187004320Y-109509896D01*
X187004327Y-109509898D01*
X187063855Y-109516299D01*
X187063872Y-109516300D01*
X187707000Y-109516300D01*
X187707000Y-109470800D01*
X187726685Y-109403761D01*
X187779489Y-109358006D01*
X187831000Y-109346800D01*
X188083000Y-109346800D01*
X188150039Y-109366485D01*
X188195794Y-109419289D01*
X188207000Y-109470800D01*
X188207000Y-109516300D01*
X188850128Y-109516300D01*
X188850144Y-109516299D01*
X188909672Y-109509898D01*
X188909679Y-109509896D01*
X189044386Y-109459654D01*
X189044388Y-109459652D01*
X189159486Y-109373490D01*
X189159488Y-109373488D01*
X189193785Y-109327673D01*
X189249718Y-109285801D01*
X189264091Y-109281412D01*
X189298411Y-109273173D01*
X189531159Y-109176766D01*
X189699915Y-109073351D01*
X189767359Y-109055107D01*
X189818502Y-109067357D01*
X190003263Y-109156335D01*
X190200930Y-109225501D01*
X190278943Y-109252799D01*
X190278952Y-109252802D01*
X190278955Y-109252803D01*
X190563714Y-109317798D01*
X190563723Y-109317799D01*
X190563728Y-109317800D01*
X190757210Y-109339599D01*
X190853953Y-109350499D01*
X190853956Y-109350500D01*
X190853959Y-109350500D01*
X191146044Y-109350500D01*
X191146045Y-109350499D01*
X191310388Y-109331983D01*
X191436271Y-109317800D01*
X191436274Y-109317799D01*
X191436286Y-109317798D01*
X191721045Y-109252803D01*
X191996737Y-109156335D01*
X192259893Y-109029605D01*
X192507206Y-108874208D01*
X192735565Y-108692098D01*
X192942098Y-108485565D01*
X193124208Y-108257206D01*
X193279605Y-108009893D01*
X193406335Y-107746737D01*
X193502803Y-107471045D01*
X193567798Y-107186286D01*
X193600500Y-106896041D01*
X193600500Y-106603959D01*
X193578746Y-106410882D01*
X193567800Y-106313728D01*
X193567799Y-106313723D01*
X193567798Y-106313714D01*
X193502803Y-106028955D01*
X193406335Y-105753263D01*
X193395113Y-105729961D01*
X193341341Y-105618302D01*
X193341127Y-105617003D01*
X193340267Y-105616011D01*
X193335467Y-105582634D01*
X193329989Y-105549361D01*
X193330510Y-105548155D01*
X193330323Y-105546853D01*
X193344339Y-105516162D01*
X193357711Y-105485226D01*
X193358801Y-105484493D01*
X193359348Y-105483297D01*
X193387713Y-105465067D01*
X193415706Y-105446260D01*
X193417381Y-105446001D01*
X193418126Y-105445523D01*
X193453061Y-105440500D01*
X193681324Y-105440500D01*
X193748363Y-105460185D01*
G37*
G04 #@! TD.AperFunction*
G04 #@! TA.AperFunction,Conductor*
G36*
X193422925Y-100142121D02*
G01*
X193459691Y-100167505D01*
X198713181Y-105420995D01*
X198746666Y-105482318D01*
X198749500Y-105508676D01*
X198749500Y-108742324D01*
X198729815Y-108809363D01*
X198677011Y-108855118D01*
X198607853Y-108865062D01*
X198544297Y-108836037D01*
X198537819Y-108830005D01*
X194247316Y-104539502D01*
X194247314Y-104539500D01*
X194190250Y-104506554D01*
X194133187Y-104473608D01*
X194044799Y-104449925D01*
X194005892Y-104439500D01*
X194005891Y-104439500D01*
X192224042Y-104439500D01*
X192170240Y-104427220D01*
X191996738Y-104343665D01*
X191721046Y-104247197D01*
X191721044Y-104247196D01*
X191501280Y-104197036D01*
X191436286Y-104182202D01*
X191436283Y-104182201D01*
X191436271Y-104182199D01*
X191146047Y-104149500D01*
X191146041Y-104149500D01*
X190853959Y-104149500D01*
X190853952Y-104149500D01*
X190563728Y-104182199D01*
X190563710Y-104182202D01*
X190453260Y-104207412D01*
X190383521Y-104203139D01*
X190327164Y-104161840D01*
X190311107Y-104133973D01*
X190232768Y-103944844D01*
X190232766Y-103944841D01*
X190115368Y-103753265D01*
X190101138Y-103730045D01*
X190101138Y-103730043D01*
X190050609Y-103670882D01*
X189937524Y-103538476D01*
X189780759Y-103404586D01*
X189745956Y-103374861D01*
X189745953Y-103374860D01*
X189531159Y-103243233D01*
X189298410Y-103146826D01*
X189053451Y-103088017D01*
X188865187Y-103073200D01*
X188865182Y-103073200D01*
X187048818Y-103073200D01*
X187048812Y-103073200D01*
X186966396Y-103079686D01*
X186860552Y-103088017D01*
X186860548Y-103088017D01*
X186860547Y-103088018D01*
X186653446Y-103137737D01*
X186583664Y-103134246D01*
X186526847Y-103093582D01*
X186501034Y-103028655D01*
X186500500Y-103017163D01*
X186500500Y-102142478D01*
X186507114Y-102119951D01*
X186509310Y-102096572D01*
X186516776Y-102087047D01*
X186520185Y-102075439D01*
X186537926Y-102060065D01*
X186552415Y-102041583D01*
X186563845Y-102037606D01*
X186572989Y-102029684D01*
X186596228Y-102026342D01*
X186618406Y-102018628D01*
X186634713Y-102020808D01*
X186642147Y-102019740D01*
X186653546Y-102021928D01*
X186658416Y-102023101D01*
X186658589Y-102023173D01*
X186692991Y-102031432D01*
X186723162Y-102048788D01*
X186753483Y-102066197D01*
X186753539Y-102066263D01*
X186753554Y-102066272D01*
X186753565Y-102066294D01*
X186763212Y-102077671D01*
X186797509Y-102123486D01*
X186797514Y-102123491D01*
X186912606Y-102209650D01*
X186912613Y-102209654D01*
X187047320Y-102259896D01*
X187047327Y-102259898D01*
X187106855Y-102266299D01*
X187106872Y-102266300D01*
X187750000Y-102266300D01*
X187750000Y-102220800D01*
X187769685Y-102153761D01*
X187822489Y-102108006D01*
X187874000Y-102096800D01*
X188126000Y-102096800D01*
X188193039Y-102116485D01*
X188238794Y-102169289D01*
X188250000Y-102220800D01*
X188250000Y-102266300D01*
X188893128Y-102266300D01*
X188893144Y-102266299D01*
X188952672Y-102259898D01*
X188952679Y-102259896D01*
X189087386Y-102209654D01*
X189087388Y-102209652D01*
X189202486Y-102123490D01*
X189202488Y-102123488D01*
X189236785Y-102077673D01*
X189292718Y-102035801D01*
X189307091Y-102031412D01*
X189341411Y-102023173D01*
X189574159Y-101926766D01*
X189613981Y-101902362D01*
X189681421Y-101884118D01*
X189732571Y-101896370D01*
X189753263Y-101906335D01*
X190028955Y-102002803D01*
X190313714Y-102067798D01*
X190313723Y-102067799D01*
X190313728Y-102067800D01*
X190507210Y-102089599D01*
X190603953Y-102100499D01*
X190603956Y-102100500D01*
X190603959Y-102100500D01*
X190896044Y-102100500D01*
X190896045Y-102100499D01*
X191060388Y-102081983D01*
X191186271Y-102067800D01*
X191186274Y-102067799D01*
X191186286Y-102067798D01*
X191471045Y-102002803D01*
X191746737Y-101906335D01*
X192009893Y-101779605D01*
X192257206Y-101624208D01*
X192485565Y-101442098D01*
X192692098Y-101235565D01*
X192874208Y-101007206D01*
X193029605Y-100759893D01*
X193156335Y-100496737D01*
X193252803Y-100221045D01*
X193252807Y-100221025D01*
X193252850Y-100220880D01*
X193252873Y-100220842D01*
X193253952Y-100217761D01*
X193254671Y-100218012D01*
X193290314Y-100161903D01*
X193353715Y-100132543D01*
X193422925Y-100142121D01*
G37*
G04 #@! TD.AperFunction*
G04 #@! TA.AperFunction,Conductor*
G36*
X172491786Y-102201422D02*
G01*
X172495185Y-102200898D01*
X172524190Y-102213784D01*
X172553855Y-102225102D01*
X172555895Y-102227870D01*
X172559036Y-102229266D01*
X172576471Y-102255790D01*
X172595307Y-102281348D01*
X172596260Y-102285894D01*
X172597415Y-102287651D01*
X172602550Y-102315884D01*
X172603644Y-102332980D01*
X172604195Y-102341589D01*
X172633964Y-102487752D01*
X172658253Y-102607013D01*
X172750382Y-102861743D01*
X172750384Y-102861748D01*
X172878617Y-103100341D01*
X172878622Y-103100349D01*
X173040221Y-103317721D01*
X173040237Y-103317740D01*
X173231759Y-103509262D01*
X173231765Y-103509267D01*
X173231769Y-103509271D01*
X173231774Y-103509275D01*
X173231778Y-103509278D01*
X173449150Y-103670877D01*
X173449158Y-103670882D01*
X173687751Y-103799115D01*
X173687750Y-103799115D01*
X173687754Y-103799116D01*
X173687757Y-103799118D01*
X173836228Y-103852816D01*
X173892575Y-103894127D01*
X173917643Y-103959345D01*
X173903472Y-104027763D01*
X173881735Y-104057104D01*
X173827182Y-104111657D01*
X173735143Y-104260875D01*
X173735141Y-104260880D01*
X173679994Y-104427302D01*
X173679993Y-104427309D01*
X173669500Y-104530013D01*
X173669500Y-104980000D01*
X174620500Y-104980000D01*
X174687539Y-104999685D01*
X174733294Y-105052489D01*
X174744500Y-105104000D01*
X174744500Y-105356000D01*
X174724815Y-105423039D01*
X174672011Y-105468794D01*
X174620500Y-105480000D01*
X173669501Y-105480000D01*
X173669501Y-105929986D01*
X173679994Y-106032697D01*
X173735141Y-106199119D01*
X173735145Y-106199128D01*
X173758572Y-106237109D01*
X173777012Y-106304502D01*
X173756089Y-106371165D01*
X173711736Y-106411429D01*
X173474158Y-106539117D01*
X173474150Y-106539122D01*
X173256778Y-106700721D01*
X173256759Y-106700737D01*
X173187901Y-106769596D01*
X173126578Y-106803081D01*
X173056886Y-106798097D01*
X173000953Y-106756225D01*
X172983178Y-106722869D01*
X172941567Y-106603952D01*
X172906335Y-106503263D01*
X172791024Y-106263818D01*
X172779606Y-106240109D01*
X172753856Y-106199128D01*
X172624208Y-105992794D01*
X172622225Y-105990308D01*
X172618935Y-105986181D01*
X172592528Y-105921494D01*
X172604163Y-105855071D01*
X172656335Y-105746737D01*
X172752803Y-105471045D01*
X172817798Y-105186286D01*
X172850500Y-104896041D01*
X172850500Y-104603959D01*
X172831537Y-104435654D01*
X172817800Y-104313728D01*
X172817799Y-104313723D01*
X172817798Y-104313714D01*
X172752803Y-104028955D01*
X172656335Y-103753263D01*
X172529605Y-103490107D01*
X172374208Y-103242794D01*
X172192098Y-103014435D01*
X172015344Y-102837681D01*
X171981859Y-102776358D01*
X171986843Y-102706666D01*
X172015344Y-102662319D01*
X172070651Y-102607012D01*
X172192098Y-102485565D01*
X172374208Y-102257206D01*
X172374212Y-102257199D01*
X172376225Y-102254364D01*
X172377068Y-102254962D01*
X172397574Y-102236819D01*
X172420193Y-102214537D01*
X172423557Y-102213831D01*
X172426132Y-102211554D01*
X172457502Y-102206712D01*
X172488575Y-102200197D01*
X172491786Y-102201422D01*
G37*
G04 #@! TD.AperFunction*
G04 #@! TA.AperFunction,Conductor*
G36*
X192281595Y-94748103D02*
G01*
X192313208Y-94771022D01*
X199713181Y-102170995D01*
X199746666Y-102232318D01*
X199749500Y-102258676D01*
X199749500Y-104742324D01*
X199729815Y-104809363D01*
X199677011Y-104855118D01*
X199607853Y-104865062D01*
X199544297Y-104836037D01*
X199537819Y-104830005D01*
X193120381Y-98412567D01*
X193096342Y-98378687D01*
X193029608Y-98240112D01*
X192945340Y-98106000D01*
X192874208Y-97992794D01*
X192692098Y-97764435D01*
X192485565Y-97557902D01*
X192257206Y-97375792D01*
X192009893Y-97220395D01*
X192009890Y-97220393D01*
X191746738Y-97093665D01*
X191471046Y-96997197D01*
X191471044Y-96997196D01*
X191223259Y-96940641D01*
X191186286Y-96932202D01*
X191186283Y-96932201D01*
X191186271Y-96932199D01*
X190896047Y-96899500D01*
X190896041Y-96899500D01*
X190603959Y-96899500D01*
X190603952Y-96899500D01*
X190464123Y-96915254D01*
X190395301Y-96903199D01*
X190343922Y-96855850D01*
X190335684Y-96839499D01*
X190275766Y-96694841D01*
X190267327Y-96681070D01*
X190144139Y-96480046D01*
X190144138Y-96480043D01*
X190107175Y-96436766D01*
X189980524Y-96288476D01*
X189810800Y-96143518D01*
X189788956Y-96124861D01*
X189788953Y-96124860D01*
X189574159Y-95993233D01*
X189341410Y-95896826D01*
X189096451Y-95838017D01*
X188908187Y-95823200D01*
X188908182Y-95823200D01*
X187091818Y-95823200D01*
X187091812Y-95823200D01*
X186903548Y-95838017D01*
X186653852Y-95897964D01*
X186653322Y-95895757D01*
X186592818Y-95897405D01*
X186533033Y-95861246D01*
X186502288Y-95798504D01*
X186500500Y-95777521D01*
X186500500Y-95142478D01*
X186507114Y-95119951D01*
X186509310Y-95096572D01*
X186516776Y-95087047D01*
X186520185Y-95075439D01*
X186537926Y-95060065D01*
X186552415Y-95041583D01*
X186563845Y-95037606D01*
X186572989Y-95029684D01*
X186596228Y-95026342D01*
X186618406Y-95018628D01*
X186634713Y-95020808D01*
X186642147Y-95019740D01*
X186653546Y-95021928D01*
X186658416Y-95023101D01*
X186658589Y-95023173D01*
X186692991Y-95031432D01*
X186723162Y-95048788D01*
X186753483Y-95066197D01*
X186753539Y-95066263D01*
X186753554Y-95066272D01*
X186753565Y-95066294D01*
X186763212Y-95077671D01*
X186797509Y-95123486D01*
X186797514Y-95123491D01*
X186912606Y-95209650D01*
X186912613Y-95209654D01*
X187047320Y-95259896D01*
X187047327Y-95259898D01*
X187106855Y-95266299D01*
X187106872Y-95266300D01*
X187750000Y-95266300D01*
X187750000Y-95220800D01*
X187769685Y-95153761D01*
X187822489Y-95108006D01*
X187874000Y-95096800D01*
X188126000Y-95096800D01*
X188193039Y-95116485D01*
X188238794Y-95169289D01*
X188250000Y-95220800D01*
X188250000Y-95266300D01*
X188893128Y-95266300D01*
X188893144Y-95266299D01*
X188952672Y-95259898D01*
X188952679Y-95259896D01*
X189087386Y-95209654D01*
X189087388Y-95209652D01*
X189202484Y-95123492D01*
X189202963Y-95122853D01*
X189203605Y-95122372D01*
X189208756Y-95117221D01*
X189209496Y-95117961D01*
X189258893Y-95080977D01*
X189328584Y-95075986D01*
X189356038Y-95085434D01*
X189503263Y-95156335D01*
X189778955Y-95252803D01*
X190063714Y-95317798D01*
X190063723Y-95317799D01*
X190063728Y-95317800D01*
X190257210Y-95339599D01*
X190353953Y-95350499D01*
X190353956Y-95350500D01*
X190353959Y-95350500D01*
X190646044Y-95350500D01*
X190646045Y-95350499D01*
X190794371Y-95333787D01*
X190936271Y-95317800D01*
X190936274Y-95317799D01*
X190936286Y-95317798D01*
X191221045Y-95252803D01*
X191496737Y-95156335D01*
X191759893Y-95029605D01*
X192007206Y-94874208D01*
X192148218Y-94761754D01*
X192212900Y-94735348D01*
X192281595Y-94748103D01*
G37*
G04 #@! TD.AperFunction*
G04 #@! TA.AperFunction,Conductor*
G36*
X172804373Y-96015794D02*
G01*
X172844444Y-96060016D01*
X172866120Y-96100346D01*
X172866122Y-96100349D01*
X173027721Y-96317721D01*
X173027737Y-96317740D01*
X173219259Y-96509262D01*
X173219265Y-96509267D01*
X173219269Y-96509271D01*
X173219274Y-96509275D01*
X173219278Y-96509278D01*
X173436650Y-96670877D01*
X173436658Y-96670882D01*
X173674236Y-96798570D01*
X173723968Y-96847646D01*
X173739273Y-96915819D01*
X173721073Y-96972889D01*
X173697645Y-97010873D01*
X173697641Y-97010880D01*
X173642494Y-97177302D01*
X173642493Y-97177309D01*
X173632000Y-97280013D01*
X173632000Y-97730000D01*
X174583000Y-97730000D01*
X174650039Y-97749685D01*
X174695794Y-97802489D01*
X174707000Y-97854000D01*
X174707000Y-98106000D01*
X174687315Y-98173039D01*
X174634511Y-98218794D01*
X174583000Y-98230000D01*
X173632001Y-98230000D01*
X173632001Y-98679986D01*
X173642494Y-98782697D01*
X173697641Y-98949119D01*
X173697643Y-98949124D01*
X173724185Y-98992154D01*
X173742625Y-99059546D01*
X173721703Y-99126210D01*
X173677349Y-99166475D01*
X173449158Y-99289117D01*
X173449150Y-99289122D01*
X173231778Y-99450721D01*
X173231759Y-99450737D01*
X173040237Y-99642259D01*
X173040226Y-99642272D01*
X172892179Y-99841415D01*
X172836385Y-99883471D01*
X172766710Y-99888687D01*
X172705276Y-99855406D01*
X172675624Y-99808388D01*
X172673305Y-99801761D01*
X172656335Y-99753263D01*
X172560277Y-99553799D01*
X172548926Y-99484861D01*
X172560276Y-99446202D01*
X172656335Y-99246737D01*
X172752803Y-98971045D01*
X172817798Y-98686286D01*
X172850500Y-98396041D01*
X172850500Y-98103959D01*
X172817798Y-97813714D01*
X172752803Y-97528955D01*
X172656335Y-97253263D01*
X172529605Y-96990107D01*
X172374208Y-96742794D01*
X172341924Y-96702312D01*
X172315517Y-96637627D01*
X172328272Y-96568931D01*
X172341923Y-96547689D01*
X172374208Y-96507206D01*
X172529605Y-96259893D01*
X172545958Y-96225937D01*
X172609014Y-96095000D01*
X172623500Y-96064918D01*
X172670322Y-96013059D01*
X172737749Y-95994746D01*
X172804373Y-96015794D01*
G37*
G04 #@! TD.AperFunction*
G04 #@! TA.AperFunction,Conductor*
G36*
X201222539Y-87840185D02*
G01*
X201268294Y-87892989D01*
X201279500Y-87944500D01*
X201279500Y-159535500D01*
X201259815Y-159602539D01*
X201207011Y-159648294D01*
X201155500Y-159659500D01*
X155964500Y-159659500D01*
X155897461Y-159639815D01*
X155851706Y-159587011D01*
X155840500Y-159535500D01*
X155840500Y-138772675D01*
X156099500Y-138772675D01*
X156099500Y-138772683D01*
X156099500Y-138772684D01*
X156099500Y-140227314D01*
X156109695Y-140386589D01*
X156126504Y-140469119D01*
X156163753Y-140652013D01*
X156249648Y-140889506D01*
X156255884Y-140906748D01*
X156384116Y-141145340D01*
X156406925Y-141176022D01*
X156431123Y-141241567D01*
X156416043Y-141309790D01*
X156406925Y-141323978D01*
X156384116Y-141354659D01*
X156255884Y-141593251D01*
X156253443Y-141600000D01*
X156163753Y-141847987D01*
X156109695Y-142113416D01*
X156099500Y-142272675D01*
X156099500Y-142272683D01*
X156099500Y-142272684D01*
X156099500Y-143727314D01*
X156109695Y-143886589D01*
X156123286Y-143953318D01*
X156163753Y-144152013D01*
X156249648Y-144389506D01*
X156255884Y-144406748D01*
X156384117Y-144645341D01*
X156384122Y-144645349D01*
X156545721Y-144862721D01*
X156545737Y-144862740D01*
X156737259Y-145054262D01*
X156737265Y-145054267D01*
X156737269Y-145054271D01*
X156737274Y-145054275D01*
X156737278Y-145054278D01*
X156954650Y-145215877D01*
X156954658Y-145215882D01*
X157193251Y-145344115D01*
X157193250Y-145344115D01*
X157193254Y-145344116D01*
X157193257Y-145344118D01*
X157340550Y-145397390D01*
X157396897Y-145438701D01*
X157421965Y-145503919D01*
X157418949Y-145542944D01*
X157374317Y-145728848D01*
X157359500Y-145917112D01*
X157359500Y-148542887D01*
X157374317Y-148731151D01*
X157433126Y-148976110D01*
X157529533Y-149208859D01*
X157661160Y-149423653D01*
X157661161Y-149423656D01*
X157661164Y-149423659D01*
X157824776Y-149615224D01*
X157887219Y-149668555D01*
X158016343Y-149778838D01*
X158016346Y-149778839D01*
X158231140Y-149910466D01*
X158463889Y-150006873D01*
X158708852Y-150065683D01*
X158897118Y-150080500D01*
X158897126Y-150080500D01*
X161022874Y-150080500D01*
X161022882Y-150080500D01*
X161211148Y-150065683D01*
X161456111Y-150006873D01*
X161688859Y-149910466D01*
X161903659Y-149778836D01*
X162095224Y-149615224D01*
X162258836Y-149423659D01*
X162390466Y-149208859D01*
X162486873Y-148976111D01*
X162505426Y-148898832D01*
X162540217Y-148838240D01*
X162602243Y-148806076D01*
X162671812Y-148812552D01*
X162698910Y-148827479D01*
X162898286Y-148972408D01*
X162906791Y-148983443D01*
X162922321Y-148995394D01*
X163097902Y-149215565D01*
X163304435Y-149422098D01*
X163532794Y-149604208D01*
X163780107Y-149759605D01*
X164043263Y-149886335D01*
X164318955Y-149982803D01*
X164443093Y-150011136D01*
X164504071Y-150045244D01*
X164536929Y-150106906D01*
X164539500Y-150132027D01*
X164539500Y-150765891D01*
X164573608Y-150893187D01*
X164606554Y-150950250D01*
X164639500Y-151007314D01*
X164639502Y-151007316D01*
X167458419Y-153826233D01*
X167491629Y-153886321D01*
X167543439Y-154113317D01*
X167543443Y-154113329D01*
X167636200Y-154378411D01*
X167759564Y-154634579D01*
X167758416Y-154635131D01*
X167772462Y-154698261D01*
X167758732Y-154745020D01*
X167759564Y-154745421D01*
X167636200Y-155001588D01*
X167543443Y-155266670D01*
X167543439Y-155266682D01*
X167480945Y-155540487D01*
X167480942Y-155540505D01*
X167449500Y-155819568D01*
X167449500Y-156100431D01*
X167480942Y-156379494D01*
X167480945Y-156379512D01*
X167543439Y-156653317D01*
X167543443Y-156653329D01*
X167636200Y-156918411D01*
X167758053Y-157171442D01*
X167758055Y-157171445D01*
X167907477Y-157409248D01*
X168082584Y-157628825D01*
X168281175Y-157827416D01*
X168500752Y-158002523D01*
X168738555Y-158151945D01*
X168991592Y-158273801D01*
X169190680Y-158343465D01*
X169256670Y-158366556D01*
X169256682Y-158366560D01*
X169530491Y-158429055D01*
X169530497Y-158429055D01*
X169530505Y-158429057D01*
X169716547Y-158450018D01*
X169809569Y-158460499D01*
X169809572Y-158460500D01*
X169809575Y-158460500D01*
X170790428Y-158460500D01*
X170790429Y-158460499D01*
X170933055Y-158444429D01*
X171069494Y-158429057D01*
X171069499Y-158429056D01*
X171069509Y-158429055D01*
X171343318Y-158366560D01*
X171608408Y-158273801D01*
X171861445Y-158151945D01*
X172099248Y-158002523D01*
X172318825Y-157827416D01*
X172517416Y-157628825D01*
X172692523Y-157409248D01*
X172841945Y-157171445D01*
X172963801Y-156918408D01*
X173056560Y-156653318D01*
X173119055Y-156379509D01*
X173150500Y-156100425D01*
X173150500Y-155819575D01*
X173119055Y-155540491D01*
X173056560Y-155266682D01*
X172963801Y-155001592D01*
X172841945Y-154748555D01*
X172840436Y-154745421D01*
X172841595Y-154744862D01*
X172827533Y-154681797D01*
X172841277Y-154634984D01*
X172840436Y-154634579D01*
X172878988Y-154554522D01*
X172963801Y-154378408D01*
X173056560Y-154113318D01*
X173119055Y-153839509D01*
X173150500Y-153560425D01*
X173150500Y-153279575D01*
X173119055Y-153000491D01*
X173056560Y-152726682D01*
X172963801Y-152461592D01*
X172841945Y-152208555D01*
X172840436Y-152205421D01*
X172841595Y-152204862D01*
X172827533Y-152141797D01*
X172841277Y-152094984D01*
X172840436Y-152094579D01*
X172878988Y-152014522D01*
X172963801Y-151838408D01*
X173056560Y-151573318D01*
X173119055Y-151299509D01*
X173150500Y-151020425D01*
X173150500Y-150739575D01*
X173126775Y-150529005D01*
X173119057Y-150460505D01*
X173119054Y-150460487D01*
X173056560Y-150186682D01*
X173056556Y-150186670D01*
X173019405Y-150080499D01*
X172963801Y-149921592D01*
X172895055Y-149778839D01*
X172840436Y-149665421D01*
X172841595Y-149664862D01*
X172827533Y-149601797D01*
X172841277Y-149554984D01*
X172840436Y-149554579D01*
X172904235Y-149422098D01*
X172963801Y-149298408D01*
X173056560Y-149033318D01*
X173119055Y-148759509D01*
X173122251Y-148731148D01*
X173150499Y-148480431D01*
X173150500Y-148480427D01*
X173150500Y-148199572D01*
X173150499Y-148199568D01*
X173119057Y-147920505D01*
X173119054Y-147920487D01*
X173056560Y-147646682D01*
X173056556Y-147646670D01*
X173018183Y-147537007D01*
X172963801Y-147381592D01*
X172841945Y-147128555D01*
X172840436Y-147125421D01*
X172841595Y-147124862D01*
X172827533Y-147061797D01*
X172841277Y-147014984D01*
X172840436Y-147014579D01*
X172884541Y-146922993D01*
X172963801Y-146758408D01*
X173056560Y-146493318D01*
X173119055Y-146219509D01*
X173150500Y-145940425D01*
X173150500Y-145659575D01*
X173125614Y-145438701D01*
X173119057Y-145380505D01*
X173119054Y-145380487D01*
X173089531Y-145251140D01*
X173056560Y-145106682D01*
X172963801Y-144841592D01*
X172864658Y-144635719D01*
X172840436Y-144585421D01*
X172841595Y-144584862D01*
X172827533Y-144521797D01*
X172841277Y-144474984D01*
X172840436Y-144474579D01*
X172881259Y-144389808D01*
X179815996Y-144389808D01*
X186457553Y-144389808D01*
X186457553Y-129933500D01*
X179815996Y-129933500D01*
X179815996Y-144389808D01*
X172881259Y-144389808D01*
X172906857Y-144336653D01*
X172963801Y-144218408D01*
X173056560Y-143953318D01*
X173119055Y-143679509D01*
X173150500Y-143400425D01*
X173150500Y-143119575D01*
X173119055Y-142840491D01*
X173056560Y-142566682D01*
X172963801Y-142301592D01*
X172873181Y-142113417D01*
X172840436Y-142045421D01*
X172841595Y-142044862D01*
X172827533Y-141981797D01*
X172841277Y-141934984D01*
X172840436Y-141934579D01*
X172882137Y-141847985D01*
X172963801Y-141678408D01*
X173056560Y-141413318D01*
X173119055Y-141139509D01*
X173150500Y-140860425D01*
X173150500Y-140579575D01*
X173128756Y-140386589D01*
X173119057Y-140300505D01*
X173119054Y-140300487D01*
X173056560Y-140026682D01*
X173056556Y-140026670D01*
X173033465Y-139960680D01*
X172963801Y-139761592D01*
X172841945Y-139508555D01*
X172840436Y-139505421D01*
X172841595Y-139504862D01*
X172827533Y-139441797D01*
X172841277Y-139394984D01*
X172840436Y-139394579D01*
X172910061Y-139250000D01*
X172963801Y-139138408D01*
X173056560Y-138873318D01*
X173119055Y-138599509D01*
X173150500Y-138320425D01*
X173150500Y-138039575D01*
X173150499Y-138039570D01*
X173150499Y-138039568D01*
X173119057Y-137760505D01*
X173119054Y-137760487D01*
X173056560Y-137486682D01*
X173056556Y-137486670D01*
X172985679Y-137284117D01*
X172963801Y-137221592D01*
X172865500Y-137017468D01*
X172840436Y-136965421D01*
X172841595Y-136964862D01*
X172827533Y-136901797D01*
X172841277Y-136854984D01*
X172840436Y-136854579D01*
X172878988Y-136774522D01*
X172963801Y-136598408D01*
X173056560Y-136333318D01*
X173119055Y-136059509D01*
X173150500Y-135780425D01*
X173150500Y-135499575D01*
X173119055Y-135220491D01*
X173056560Y-134946682D01*
X172963801Y-134681592D01*
X172841945Y-134428555D01*
X172840436Y-134425421D01*
X172841595Y-134424862D01*
X172827533Y-134361797D01*
X172841277Y-134314984D01*
X172840436Y-134314579D01*
X172898895Y-134193186D01*
X172963801Y-134058408D01*
X173056560Y-133793318D01*
X173119055Y-133519509D01*
X173150500Y-133240425D01*
X173150500Y-132959575D01*
X173134830Y-132820499D01*
X173119057Y-132680505D01*
X173119054Y-132680487D01*
X173056560Y-132406682D01*
X173056556Y-132406670D01*
X173033465Y-132340680D01*
X172963801Y-132141592D01*
X172841945Y-131888555D01*
X172840436Y-131885421D01*
X172841595Y-131884862D01*
X172827533Y-131821797D01*
X172841277Y-131774984D01*
X172840436Y-131774579D01*
X172878988Y-131694522D01*
X172963801Y-131518408D01*
X173056560Y-131253318D01*
X173119055Y-130979509D01*
X173150500Y-130700425D01*
X173150500Y-130419575D01*
X173119055Y-130140491D01*
X173071811Y-129933500D01*
X173066386Y-129909730D01*
X173056558Y-129866675D01*
X173056556Y-129866670D01*
X173033465Y-129800680D01*
X172963801Y-129601592D01*
X172880077Y-129427737D01*
X172840436Y-129345421D01*
X172841595Y-129344862D01*
X172827533Y-129281797D01*
X172841277Y-129234984D01*
X172840436Y-129234579D01*
X172878988Y-129154522D01*
X172963801Y-128978408D01*
X173056560Y-128713318D01*
X173119055Y-128439509D01*
X173150500Y-128160425D01*
X173150500Y-127879575D01*
X173119055Y-127600491D01*
X173056560Y-127326682D01*
X172963801Y-127061592D01*
X172841945Y-126808555D01*
X172840436Y-126805421D01*
X172841595Y-126804862D01*
X172827533Y-126741797D01*
X172841277Y-126694984D01*
X172840436Y-126694579D01*
X172878988Y-126614522D01*
X172963801Y-126438408D01*
X173056560Y-126173318D01*
X173119055Y-125899509D01*
X173150500Y-125620425D01*
X173150500Y-125339575D01*
X173119055Y-125060491D01*
X173056560Y-124786682D01*
X172963801Y-124521592D01*
X172841945Y-124268555D01*
X172840436Y-124265421D01*
X172841595Y-124264862D01*
X172827533Y-124201797D01*
X172841277Y-124154984D01*
X172840436Y-124154579D01*
X172898328Y-124034365D01*
X172963801Y-123898408D01*
X173056560Y-123633318D01*
X173119055Y-123359509D01*
X173150500Y-123080425D01*
X173150500Y-122799575D01*
X173140018Y-122706547D01*
X173119057Y-122520505D01*
X173119054Y-122520487D01*
X173056560Y-122246682D01*
X173056556Y-122246670D01*
X172992753Y-122064333D01*
X172963801Y-121981592D01*
X172841945Y-121728555D01*
X172840436Y-121725421D01*
X172841595Y-121724862D01*
X172827533Y-121661797D01*
X172841277Y-121614984D01*
X172840436Y-121614579D01*
X172882415Y-121527408D01*
X172963801Y-121358408D01*
X173056560Y-121093318D01*
X173119055Y-120819509D01*
X173119542Y-120815193D01*
X173150499Y-120540431D01*
X173150500Y-120540427D01*
X173150500Y-120259572D01*
X173150499Y-120259568D01*
X173149646Y-120252001D01*
X173138566Y-120153653D01*
X173119057Y-119980505D01*
X173119054Y-119980487D01*
X173056560Y-119706682D01*
X173056556Y-119706670D01*
X173033465Y-119640680D01*
X172963801Y-119441592D01*
X172841945Y-119188555D01*
X172840436Y-119185421D01*
X172841595Y-119184862D01*
X172827533Y-119121797D01*
X172841277Y-119074984D01*
X172840436Y-119074579D01*
X172878988Y-118994522D01*
X172963801Y-118818408D01*
X173056560Y-118553318D01*
X173119055Y-118279509D01*
X173150500Y-118000425D01*
X173150500Y-117719575D01*
X173119055Y-117440491D01*
X173056560Y-117166682D01*
X172963801Y-116901592D01*
X172841945Y-116648555D01*
X172840436Y-116645421D01*
X172841595Y-116644862D01*
X172827533Y-116581797D01*
X172841277Y-116534984D01*
X172840436Y-116534579D01*
X172878988Y-116454522D01*
X172963801Y-116278408D01*
X173056560Y-116013318D01*
X173119055Y-115739509D01*
X173150500Y-115460425D01*
X173150500Y-115179575D01*
X173120258Y-114911164D01*
X173119057Y-114900505D01*
X173119054Y-114900487D01*
X173099982Y-114816929D01*
X173056560Y-114626682D01*
X173055732Y-114624317D01*
X173033465Y-114560680D01*
X172963801Y-114361592D01*
X172841945Y-114108555D01*
X172840436Y-114105421D01*
X172841595Y-114104862D01*
X172827533Y-114041797D01*
X172841277Y-113994984D01*
X172840436Y-113994579D01*
X172878988Y-113914522D01*
X172963801Y-113738408D01*
X173056560Y-113473318D01*
X173119055Y-113199509D01*
X173120791Y-113184108D01*
X173139542Y-113017682D01*
X173150500Y-112920425D01*
X173150500Y-112639575D01*
X173119055Y-112360491D01*
X173056560Y-112086682D01*
X172996031Y-111913699D01*
X172992469Y-111843920D01*
X172998505Y-111825306D01*
X173076873Y-111636111D01*
X173135683Y-111391148D01*
X173150500Y-111202882D01*
X173150500Y-110926964D01*
X173170185Y-110859925D01*
X173222989Y-110814170D01*
X173292147Y-110804226D01*
X173348479Y-110827450D01*
X173398316Y-110864500D01*
X173474157Y-110920882D01*
X173712751Y-111049115D01*
X173712750Y-111049115D01*
X173712754Y-111049116D01*
X173712757Y-111049118D01*
X173967487Y-111141247D01*
X174232916Y-111195305D01*
X174392175Y-111205500D01*
X175171824Y-111205499D01*
X175331084Y-111195305D01*
X175596513Y-111141247D01*
X175851243Y-111049118D01*
X176089844Y-110920881D01*
X176170519Y-110860904D01*
X176236064Y-110836705D01*
X176304287Y-110851783D01*
X176318478Y-110860903D01*
X176359046Y-110891062D01*
X176399157Y-110920882D01*
X176637751Y-111049115D01*
X176637750Y-111049115D01*
X176637754Y-111049116D01*
X176637757Y-111049118D01*
X176892487Y-111141247D01*
X177157916Y-111195305D01*
X177317175Y-111205500D01*
X178096824Y-111205499D01*
X178256084Y-111195305D01*
X178521513Y-111141247D01*
X178776243Y-111049118D01*
X179014844Y-110920881D01*
X179232231Y-110759271D01*
X179423771Y-110567731D01*
X179432039Y-110556608D01*
X179487828Y-110514550D01*
X179557502Y-110509330D01*
X179559119Y-110509687D01*
X179813714Y-110567798D01*
X179813723Y-110567799D01*
X179813728Y-110567800D01*
X180007210Y-110589599D01*
X180103953Y-110600499D01*
X180103956Y-110600500D01*
X180103959Y-110600500D01*
X180396044Y-110600500D01*
X180396045Y-110600499D01*
X180544371Y-110583787D01*
X180686271Y-110567800D01*
X180686274Y-110567799D01*
X180686286Y-110567798D01*
X180971045Y-110502803D01*
X181110717Y-110453929D01*
X181180495Y-110450368D01*
X181199122Y-110456409D01*
X181408589Y-110543173D01*
X181653552Y-110601983D01*
X181841818Y-110616800D01*
X181841826Y-110616800D01*
X183658174Y-110616800D01*
X183658182Y-110616800D01*
X183846448Y-110601983D01*
X184091411Y-110543173D01*
X184324159Y-110446766D01*
X184324161Y-110446764D01*
X184328047Y-110445155D01*
X184397516Y-110437686D01*
X184459996Y-110468961D01*
X184495648Y-110529050D01*
X184499500Y-110559716D01*
X184499500Y-113315891D01*
X184533608Y-113443187D01*
X184551011Y-113473329D01*
X184599500Y-113557314D01*
X184599502Y-113557316D01*
X192977884Y-121935698D01*
X193011369Y-121997021D01*
X193007245Y-122064333D01*
X192943440Y-122246680D01*
X192943439Y-122246682D01*
X192880945Y-122520487D01*
X192880942Y-122520505D01*
X192849500Y-122799568D01*
X192849500Y-123080431D01*
X192880942Y-123359494D01*
X192880945Y-123359512D01*
X192943439Y-123633317D01*
X192943443Y-123633329D01*
X193036200Y-123898411D01*
X193159564Y-124154579D01*
X193158416Y-124155131D01*
X193172462Y-124218261D01*
X193158732Y-124265020D01*
X193159564Y-124265421D01*
X193036200Y-124521588D01*
X192943443Y-124786670D01*
X192943439Y-124786682D01*
X192880945Y-125060487D01*
X192880942Y-125060505D01*
X192849500Y-125339568D01*
X192849500Y-125620431D01*
X192880942Y-125899494D01*
X192880945Y-125899512D01*
X192943439Y-126173317D01*
X192943443Y-126173329D01*
X193036200Y-126438411D01*
X193159564Y-126694579D01*
X193158416Y-126695131D01*
X193172462Y-126758261D01*
X193158732Y-126805020D01*
X193159564Y-126805421D01*
X193036200Y-127061588D01*
X192943443Y-127326670D01*
X192943439Y-127326682D01*
X192880945Y-127600487D01*
X192880942Y-127600505D01*
X192849500Y-127879568D01*
X192849500Y-128160431D01*
X192880942Y-128439494D01*
X192880945Y-128439512D01*
X192943439Y-128713317D01*
X192943443Y-128713329D01*
X193036200Y-128978411D01*
X193159564Y-129234579D01*
X193158416Y-129235131D01*
X193172462Y-129298261D01*
X193158732Y-129345020D01*
X193159564Y-129345421D01*
X193036200Y-129601588D01*
X192943443Y-129866670D01*
X192943439Y-129866682D01*
X192880945Y-130140487D01*
X192880942Y-130140505D01*
X192849500Y-130419568D01*
X192849500Y-130700431D01*
X192880942Y-130979494D01*
X192880945Y-130979512D01*
X192943439Y-131253317D01*
X192943443Y-131253329D01*
X193036200Y-131518411D01*
X193159564Y-131774579D01*
X193158416Y-131775131D01*
X193172462Y-131838261D01*
X193158732Y-131885020D01*
X193159564Y-131885421D01*
X193036200Y-132141588D01*
X192943443Y-132406670D01*
X192943439Y-132406682D01*
X192880945Y-132680487D01*
X192880942Y-132680505D01*
X192849500Y-132959568D01*
X192849500Y-133240431D01*
X192880942Y-133519494D01*
X192880945Y-133519512D01*
X192943439Y-133793317D01*
X192943443Y-133793329D01*
X193036200Y-134058411D01*
X193159564Y-134314579D01*
X193158416Y-134315131D01*
X193172462Y-134378261D01*
X193158732Y-134425020D01*
X193159564Y-134425421D01*
X193036200Y-134681588D01*
X192943443Y-134946670D01*
X192943439Y-134946682D01*
X192880945Y-135220487D01*
X192880942Y-135220505D01*
X192849500Y-135499568D01*
X192849500Y-135780431D01*
X192880942Y-136059494D01*
X192880945Y-136059512D01*
X192943439Y-136333317D01*
X192943443Y-136333329D01*
X193036200Y-136598411D01*
X193159564Y-136854579D01*
X193158416Y-136855131D01*
X193172462Y-136918261D01*
X193158732Y-136965020D01*
X193159564Y-136965421D01*
X193036200Y-137221588D01*
X192943443Y-137486670D01*
X192943439Y-137486682D01*
X192880945Y-137760487D01*
X192880942Y-137760505D01*
X192849500Y-138039568D01*
X192849500Y-138320431D01*
X192880942Y-138599494D01*
X192880945Y-138599512D01*
X192943439Y-138873317D01*
X192943443Y-138873329D01*
X193036200Y-139138411D01*
X193159564Y-139394579D01*
X193158416Y-139395131D01*
X193172462Y-139458261D01*
X193158732Y-139505020D01*
X193159564Y-139505421D01*
X193036200Y-139761588D01*
X192943443Y-140026670D01*
X192943439Y-140026682D01*
X192880945Y-140300487D01*
X192880942Y-140300505D01*
X192849500Y-140579568D01*
X192849500Y-140860431D01*
X192880942Y-141139494D01*
X192880945Y-141139512D01*
X192943439Y-141413317D01*
X192943443Y-141413329D01*
X193036200Y-141678411D01*
X193159564Y-141934579D01*
X193158416Y-141935131D01*
X193172462Y-141998261D01*
X193158732Y-142045020D01*
X193159564Y-142045421D01*
X193036200Y-142301588D01*
X192943443Y-142566670D01*
X192943439Y-142566682D01*
X192880945Y-142840487D01*
X192880942Y-142840505D01*
X192849500Y-143119568D01*
X192849500Y-143400431D01*
X192880942Y-143679494D01*
X192880945Y-143679512D01*
X192943439Y-143953317D01*
X192943443Y-143953329D01*
X193036200Y-144218411D01*
X193159564Y-144474579D01*
X193158416Y-144475131D01*
X193172462Y-144538261D01*
X193158732Y-144585020D01*
X193159564Y-144585421D01*
X193036200Y-144841588D01*
X192943443Y-145106670D01*
X192943439Y-145106682D01*
X192880945Y-145380487D01*
X192880942Y-145380505D01*
X192849500Y-145659568D01*
X192849500Y-145940431D01*
X192880942Y-146219494D01*
X192880945Y-146219512D01*
X192943439Y-146493317D01*
X192943443Y-146493329D01*
X193036200Y-146758411D01*
X193159564Y-147014579D01*
X193158416Y-147015131D01*
X193172462Y-147078261D01*
X193158732Y-147125020D01*
X193159564Y-147125421D01*
X193036200Y-147381588D01*
X192943443Y-147646670D01*
X192943439Y-147646682D01*
X192880945Y-147920487D01*
X192880942Y-147920505D01*
X192849500Y-148199568D01*
X192849500Y-148480431D01*
X192880942Y-148759494D01*
X192880945Y-148759512D01*
X192943439Y-149033317D01*
X192943443Y-149033329D01*
X193036200Y-149298411D01*
X193159564Y-149554579D01*
X193158416Y-149555131D01*
X193172462Y-149618261D01*
X193158732Y-149665020D01*
X193159564Y-149665421D01*
X193036200Y-149921588D01*
X192943443Y-150186670D01*
X192943439Y-150186682D01*
X192880945Y-150460487D01*
X192880942Y-150460505D01*
X192849500Y-150739568D01*
X192849500Y-151020431D01*
X192880942Y-151299494D01*
X192880945Y-151299512D01*
X192943439Y-151573317D01*
X192943443Y-151573329D01*
X193036200Y-151838411D01*
X193159564Y-152094579D01*
X193158416Y-152095131D01*
X193172462Y-152158261D01*
X193158732Y-152205020D01*
X193159564Y-152205421D01*
X193036200Y-152461588D01*
X192943443Y-152726670D01*
X192943439Y-152726682D01*
X192880945Y-153000487D01*
X192880942Y-153000505D01*
X192849500Y-153279568D01*
X192849500Y-153560431D01*
X192880942Y-153839494D01*
X192880945Y-153839512D01*
X192943439Y-154113317D01*
X192943443Y-154113329D01*
X193036200Y-154378411D01*
X193159564Y-154634579D01*
X193158416Y-154635131D01*
X193172462Y-154698261D01*
X193158732Y-154745020D01*
X193159564Y-154745421D01*
X193036200Y-155001588D01*
X192943443Y-155266670D01*
X192943439Y-155266682D01*
X192880945Y-155540487D01*
X192880942Y-155540505D01*
X192849500Y-155819568D01*
X192849500Y-156100431D01*
X192880942Y-156379494D01*
X192880945Y-156379512D01*
X192943439Y-156653317D01*
X192943443Y-156653329D01*
X193036200Y-156918411D01*
X193158053Y-157171442D01*
X193158055Y-157171445D01*
X193307477Y-157409248D01*
X193482584Y-157628825D01*
X193681175Y-157827416D01*
X193900752Y-158002523D01*
X194138555Y-158151945D01*
X194391592Y-158273801D01*
X194590680Y-158343465D01*
X194656670Y-158366556D01*
X194656682Y-158366560D01*
X194930491Y-158429055D01*
X194930497Y-158429055D01*
X194930505Y-158429057D01*
X195116547Y-158450018D01*
X195209569Y-158460499D01*
X195209572Y-158460500D01*
X195209575Y-158460500D01*
X196190428Y-158460500D01*
X196190429Y-158460499D01*
X196333055Y-158444429D01*
X196469494Y-158429057D01*
X196469499Y-158429056D01*
X196469509Y-158429055D01*
X196743318Y-158366560D01*
X197008408Y-158273801D01*
X197261445Y-158151945D01*
X197499248Y-158002523D01*
X197718825Y-157827416D01*
X197917416Y-157628825D01*
X198092523Y-157409248D01*
X198241945Y-157171445D01*
X198363801Y-156918408D01*
X198456560Y-156653318D01*
X198519055Y-156379509D01*
X198550500Y-156100425D01*
X198550500Y-155819575D01*
X198519055Y-155540491D01*
X198456560Y-155266682D01*
X198363801Y-155001592D01*
X198241945Y-154748555D01*
X198240436Y-154745421D01*
X198241595Y-154744862D01*
X198227533Y-154681797D01*
X198241277Y-154634984D01*
X198240436Y-154634579D01*
X198278988Y-154554522D01*
X198363801Y-154378408D01*
X198456560Y-154113318D01*
X198519055Y-153839509D01*
X198550500Y-153560425D01*
X198550500Y-153279575D01*
X198519055Y-153000491D01*
X198456560Y-152726682D01*
X198363801Y-152461592D01*
X198241945Y-152208555D01*
X198240436Y-152205421D01*
X198241595Y-152204862D01*
X198227533Y-152141797D01*
X198241277Y-152094984D01*
X198240436Y-152094579D01*
X198278988Y-152014522D01*
X198363801Y-151838408D01*
X198456560Y-151573318D01*
X198519055Y-151299509D01*
X198550500Y-151020425D01*
X198550500Y-150739575D01*
X198526775Y-150529005D01*
X198519057Y-150460505D01*
X198519054Y-150460487D01*
X198456560Y-150186682D01*
X198456556Y-150186670D01*
X198419405Y-150080499D01*
X198363801Y-149921592D01*
X198295055Y-149778839D01*
X198240436Y-149665421D01*
X198241595Y-149664862D01*
X198227533Y-149601797D01*
X198241277Y-149554984D01*
X198240436Y-149554579D01*
X198304235Y-149422098D01*
X198363801Y-149298408D01*
X198456560Y-149033318D01*
X198519055Y-148759509D01*
X198522251Y-148731148D01*
X198550499Y-148480431D01*
X198550500Y-148480427D01*
X198550500Y-148199572D01*
X198550499Y-148199568D01*
X198519057Y-147920505D01*
X198519054Y-147920487D01*
X198456560Y-147646682D01*
X198456556Y-147646670D01*
X198418183Y-147537007D01*
X198363801Y-147381592D01*
X198241945Y-147128555D01*
X198240436Y-147125421D01*
X198241595Y-147124862D01*
X198227533Y-147061797D01*
X198241277Y-147014984D01*
X198240436Y-147014579D01*
X198284541Y-146922993D01*
X198363801Y-146758408D01*
X198456560Y-146493318D01*
X198519055Y-146219509D01*
X198550500Y-145940425D01*
X198550500Y-145659575D01*
X198525614Y-145438701D01*
X198519057Y-145380505D01*
X198519054Y-145380487D01*
X198489531Y-145251140D01*
X198456560Y-145106682D01*
X198363801Y-144841592D01*
X198264658Y-144635719D01*
X198240436Y-144585421D01*
X198241595Y-144584862D01*
X198227533Y-144521797D01*
X198241277Y-144474984D01*
X198240436Y-144474579D01*
X198306857Y-144336653D01*
X198363801Y-144218408D01*
X198456560Y-143953318D01*
X198519055Y-143679509D01*
X198550500Y-143400425D01*
X198550500Y-143119575D01*
X198519055Y-142840491D01*
X198456560Y-142566682D01*
X198363801Y-142301592D01*
X198273181Y-142113417D01*
X198240436Y-142045421D01*
X198241595Y-142044862D01*
X198227533Y-141981797D01*
X198241277Y-141934984D01*
X198240436Y-141934579D01*
X198282137Y-141847985D01*
X198363801Y-141678408D01*
X198456560Y-141413318D01*
X198519055Y-141139509D01*
X198550500Y-140860425D01*
X198550500Y-140579575D01*
X198528756Y-140386589D01*
X198519057Y-140300505D01*
X198519054Y-140300487D01*
X198456560Y-140026682D01*
X198456556Y-140026670D01*
X198433465Y-139960680D01*
X198363801Y-139761592D01*
X198241945Y-139508555D01*
X198240436Y-139505421D01*
X198241595Y-139504862D01*
X198227533Y-139441797D01*
X198241277Y-139394984D01*
X198240436Y-139394579D01*
X198310061Y-139250000D01*
X198363801Y-139138408D01*
X198456560Y-138873318D01*
X198519055Y-138599509D01*
X198550500Y-138320425D01*
X198550500Y-138039575D01*
X198531641Y-137872197D01*
X198543695Y-137803375D01*
X198567177Y-137770635D01*
X200650500Y-135687314D01*
X200716392Y-135573186D01*
X200750500Y-135445892D01*
X200750500Y-135314108D01*
X200750500Y-101934108D01*
X200743058Y-101906335D01*
X200716392Y-101806814D01*
X200700683Y-101779605D01*
X200650500Y-101692686D01*
X200557314Y-101599500D01*
X192902959Y-93945145D01*
X192869474Y-93883822D01*
X192874458Y-93814130D01*
X192878908Y-93803687D01*
X192906335Y-93746737D01*
X193002803Y-93471045D01*
X193067798Y-93186286D01*
X193069936Y-93167315D01*
X193089154Y-92996738D01*
X193100500Y-92896041D01*
X193100500Y-92603959D01*
X193086245Y-92477440D01*
X193067800Y-92313728D01*
X193067799Y-92313723D01*
X193067798Y-92313714D01*
X193002803Y-92028955D01*
X192906335Y-91753263D01*
X192779605Y-91490107D01*
X192624208Y-91242794D01*
X192442098Y-91014435D01*
X192235565Y-90807902D01*
X192007206Y-90625792D01*
X191836398Y-90518466D01*
X191759890Y-90470393D01*
X191496738Y-90343665D01*
X191221046Y-90247197D01*
X191221043Y-90247196D01*
X191161532Y-90233613D01*
X191161532Y-90233612D01*
X191143309Y-90229452D01*
X191133186Y-90223608D01*
X191005892Y-90189500D01*
X190968261Y-90189500D01*
X190954639Y-90186391D01*
X190936286Y-90182202D01*
X190936283Y-90182201D01*
X190936271Y-90182199D01*
X190646047Y-90149500D01*
X190646041Y-90149500D01*
X190523203Y-90149500D01*
X190456164Y-90129815D01*
X190410409Y-90077011D01*
X190402629Y-90054447D01*
X190372173Y-89927589D01*
X190275766Y-89694840D01*
X190144139Y-89480046D01*
X190144138Y-89480043D01*
X190075347Y-89399500D01*
X189980524Y-89288476D01*
X189853871Y-89180304D01*
X189788956Y-89124861D01*
X189788953Y-89124860D01*
X189574159Y-88993233D01*
X189341410Y-88896826D01*
X189096451Y-88838017D01*
X188908187Y-88823200D01*
X188908182Y-88823200D01*
X187091818Y-88823200D01*
X187091812Y-88823200D01*
X186903548Y-88838017D01*
X186658589Y-88896826D01*
X186425840Y-88993233D01*
X186211046Y-89124860D01*
X186211043Y-89124861D01*
X186019476Y-89288476D01*
X185855861Y-89480043D01*
X185855860Y-89480046D01*
X185724233Y-89694840D01*
X185627826Y-89927589D01*
X185569017Y-90172548D01*
X185554200Y-90360812D01*
X185554200Y-91019187D01*
X185566251Y-91172302D01*
X185569017Y-91207448D01*
X185569018Y-91207452D01*
X185590288Y-91296055D01*
X185589117Y-91319455D01*
X185592452Y-91342647D01*
X185590288Y-91353945D01*
X185569018Y-91442547D01*
X185569018Y-91442550D01*
X185569016Y-91442559D01*
X185554200Y-91630812D01*
X185554200Y-92289187D01*
X185569016Y-92477440D01*
X185569017Y-92477448D01*
X185569018Y-92477452D01*
X185590288Y-92566055D01*
X185589117Y-92589455D01*
X185592452Y-92612647D01*
X185590288Y-92623945D01*
X185576307Y-92682185D01*
X185569018Y-92712550D01*
X185569016Y-92712559D01*
X185554200Y-92900812D01*
X185554200Y-93547024D01*
X185547961Y-93568269D01*
X185546382Y-93590358D01*
X185538309Y-93601141D01*
X185534515Y-93614063D01*
X185517781Y-93628562D01*
X185504510Y-93646291D01*
X185491889Y-93650998D01*
X185481711Y-93659818D01*
X185459793Y-93662969D01*
X185439046Y-93670708D01*
X185425885Y-93667845D01*
X185412553Y-93669762D01*
X185392409Y-93660562D01*
X185370773Y-93655856D01*
X185353047Y-93642587D01*
X185348997Y-93640737D01*
X185342519Y-93634705D01*
X185275119Y-93567305D01*
X185241634Y-93505982D01*
X185238800Y-93479624D01*
X185238800Y-92900825D01*
X185238800Y-92900818D01*
X185223983Y-92712552D01*
X185202710Y-92623944D01*
X185202710Y-92592403D01*
X185200546Y-92577353D01*
X185202710Y-92572614D01*
X185202710Y-92566055D01*
X185223983Y-92477448D01*
X185238800Y-92289182D01*
X185238800Y-91630818D01*
X185223983Y-91442552D01*
X185202710Y-91353944D01*
X185202710Y-91322403D01*
X185200546Y-91307353D01*
X185202710Y-91302614D01*
X185202710Y-91296055D01*
X185223983Y-91207448D01*
X185238800Y-91019182D01*
X185238800Y-90360818D01*
X185223983Y-90172552D01*
X185165173Y-89927589D01*
X185077128Y-89715028D01*
X185068766Y-89694840D01*
X184937139Y-89480046D01*
X184937138Y-89480043D01*
X184868347Y-89399500D01*
X184773524Y-89288476D01*
X184646871Y-89180304D01*
X184581956Y-89124861D01*
X184581953Y-89124860D01*
X184367159Y-88993233D01*
X184134410Y-88896826D01*
X183889451Y-88838017D01*
X183701187Y-88823200D01*
X183701182Y-88823200D01*
X181884818Y-88823200D01*
X181884812Y-88823200D01*
X181696548Y-88838017D01*
X181451589Y-88896826D01*
X181218840Y-88993233D01*
X181004046Y-89124860D01*
X181004043Y-89124861D01*
X180812476Y-89288476D01*
X180648861Y-89480043D01*
X180648860Y-89480046D01*
X180517233Y-89694840D01*
X180420826Y-89927589D01*
X180380768Y-90094447D01*
X180345977Y-90155039D01*
X180283951Y-90187203D01*
X180260194Y-90189500D01*
X179980666Y-90189500D01*
X179913627Y-90169815D01*
X179867872Y-90117011D01*
X179859160Y-90090247D01*
X179842994Y-90010875D01*
X179805747Y-89827987D01*
X179713618Y-89573257D01*
X179663521Y-89480046D01*
X179585382Y-89334658D01*
X179585377Y-89334650D01*
X179423778Y-89117278D01*
X179423775Y-89117274D01*
X179423771Y-89117269D01*
X179423767Y-89117265D01*
X179423762Y-89117259D01*
X179232240Y-88925737D01*
X179232233Y-88925731D01*
X179232231Y-88925729D01*
X179232226Y-88925725D01*
X179232221Y-88925721D01*
X179014849Y-88764122D01*
X179014841Y-88764117D01*
X178776248Y-88635884D01*
X178776249Y-88635884D01*
X178722665Y-88616504D01*
X178521513Y-88543753D01*
X178256084Y-88489695D01*
X178096825Y-88479500D01*
X178096815Y-88479500D01*
X177292185Y-88479500D01*
X177132910Y-88489695D01*
X176867487Y-88543753D01*
X176709718Y-88600813D01*
X176612751Y-88635884D01*
X176374158Y-88764117D01*
X176374150Y-88764122D01*
X176156778Y-88925721D01*
X176156759Y-88925737D01*
X175965237Y-89117259D01*
X175965221Y-89117278D01*
X175803622Y-89334650D01*
X175803617Y-89334658D01*
X175675384Y-89573251D01*
X175675381Y-89573258D01*
X175653552Y-89633613D01*
X175612240Y-89689961D01*
X175547022Y-89715028D01*
X175478604Y-89700856D01*
X175471848Y-89696977D01*
X175388624Y-89645643D01*
X175388619Y-89645641D01*
X175222197Y-89590494D01*
X175222190Y-89590493D01*
X175119486Y-89580000D01*
X174994500Y-89580000D01*
X174994500Y-90856000D01*
X174974815Y-90923039D01*
X174922011Y-90968794D01*
X174870500Y-90980000D01*
X174744500Y-90980000D01*
X174744500Y-91106000D01*
X174724815Y-91173039D01*
X174672011Y-91218794D01*
X174620500Y-91230000D01*
X173669501Y-91230000D01*
X173669501Y-91679986D01*
X173679994Y-91782697D01*
X173735141Y-91949119D01*
X173735143Y-91949124D01*
X173750934Y-91974724D01*
X173769374Y-92042116D01*
X173748452Y-92108780D01*
X173694810Y-92153550D01*
X173687573Y-92156427D01*
X173675258Y-92160881D01*
X173675251Y-92160884D01*
X173436658Y-92289117D01*
X173436650Y-92289122D01*
X173219278Y-92450721D01*
X173219259Y-92450737D01*
X173027737Y-92642259D01*
X173027727Y-92642271D01*
X173008450Y-92668200D01*
X172952654Y-92710255D01*
X172882980Y-92715468D01*
X172821547Y-92682185D01*
X172787860Y-92620972D01*
X172788047Y-92566628D01*
X172817798Y-92436286D01*
X172825354Y-92369228D01*
X172846645Y-92180255D01*
X172850500Y-92146041D01*
X172850500Y-91853959D01*
X172833979Y-91707324D01*
X172817800Y-91563728D01*
X172817799Y-91563723D01*
X172817798Y-91563714D01*
X172752803Y-91278955D01*
X172656335Y-91003263D01*
X172529605Y-90740107D01*
X172374208Y-90492794D01*
X172288559Y-90385394D01*
X172263665Y-90354177D01*
X172204521Y-90280013D01*
X173669500Y-90280013D01*
X173669500Y-90730000D01*
X174494500Y-90730000D01*
X174494500Y-89580000D01*
X174369527Y-89580000D01*
X174369512Y-89580001D01*
X174266802Y-89590494D01*
X174100380Y-89645641D01*
X174100375Y-89645643D01*
X173951154Y-89737684D01*
X173827184Y-89861654D01*
X173735143Y-90010875D01*
X173735141Y-90010880D01*
X173679994Y-90177302D01*
X173679993Y-90177309D01*
X173669500Y-90280013D01*
X172204521Y-90280013D01*
X172192098Y-90264435D01*
X171985564Y-90057901D01*
X171822157Y-89927589D01*
X171757206Y-89875792D01*
X171509893Y-89720395D01*
X171509890Y-89720393D01*
X171246738Y-89593665D01*
X170971046Y-89497197D01*
X170971044Y-89497196D01*
X170751280Y-89447036D01*
X170686286Y-89432202D01*
X170686283Y-89432201D01*
X170686271Y-89432199D01*
X170396047Y-89399500D01*
X170396041Y-89399500D01*
X170103959Y-89399500D01*
X170103952Y-89399500D01*
X169813728Y-89432199D01*
X169813714Y-89432202D01*
X169528955Y-89497196D01*
X169528953Y-89497197D01*
X169253261Y-89593665D01*
X168990109Y-89720393D01*
X168742795Y-89875791D01*
X168514435Y-90057901D01*
X168307901Y-90264435D01*
X168125791Y-90492795D01*
X167970393Y-90740109D01*
X167843664Y-91003263D01*
X167843663Y-91003265D01*
X167837384Y-91021211D01*
X167796662Y-91077987D01*
X167731709Y-91103733D01*
X167663147Y-91090276D01*
X167612745Y-91041888D01*
X167600569Y-91012353D01*
X167588191Y-90966155D01*
X167588186Y-90966144D01*
X167588185Y-90966139D01*
X167477808Y-90699663D01*
X167477800Y-90699647D01*
X167333579Y-90449851D01*
X167333575Y-90449844D01*
X167178078Y-90247196D01*
X167157975Y-90220997D01*
X167157969Y-90220990D01*
X166954009Y-90017030D01*
X166954002Y-90017024D01*
X166725164Y-89841431D01*
X166725162Y-89841429D01*
X166725156Y-89841425D01*
X166725151Y-89841422D01*
X166725148Y-89841420D01*
X166475352Y-89697199D01*
X166475336Y-89697191D01*
X166208860Y-89586814D01*
X166208848Y-89586810D01*
X166208845Y-89586809D01*
X165930217Y-89512151D01*
X165930211Y-89512150D01*
X165930206Y-89512149D01*
X165644238Y-89474501D01*
X165644233Y-89474500D01*
X165644228Y-89474500D01*
X165355772Y-89474500D01*
X165355766Y-89474500D01*
X165355761Y-89474501D01*
X165069793Y-89512149D01*
X165069786Y-89512150D01*
X165069783Y-89512151D01*
X164841754Y-89573251D01*
X164791155Y-89586809D01*
X164791139Y-89586814D01*
X164547452Y-89687752D01*
X164477983Y-89695221D01*
X164452548Y-89687752D01*
X164208860Y-89586814D01*
X164208848Y-89586810D01*
X164208845Y-89586809D01*
X163930217Y-89512151D01*
X163930211Y-89512150D01*
X163930206Y-89512149D01*
X163644238Y-89474501D01*
X163644233Y-89474500D01*
X163644228Y-89474500D01*
X163355772Y-89474500D01*
X163355766Y-89474500D01*
X163355761Y-89474501D01*
X163069793Y-89512149D01*
X163069786Y-89512150D01*
X163069783Y-89512151D01*
X162841754Y-89573251D01*
X162791155Y-89586809D01*
X162791139Y-89586814D01*
X162547452Y-89687752D01*
X162477983Y-89695221D01*
X162452548Y-89687752D01*
X162208860Y-89586814D01*
X162208848Y-89586810D01*
X162208845Y-89586809D01*
X161930217Y-89512151D01*
X161930211Y-89512150D01*
X161930206Y-89512149D01*
X161644238Y-89474501D01*
X161644233Y-89474500D01*
X161644228Y-89474500D01*
X161355772Y-89474500D01*
X161355766Y-89474500D01*
X161355761Y-89474501D01*
X161069793Y-89512149D01*
X161069786Y-89512150D01*
X161069783Y-89512151D01*
X160841754Y-89573251D01*
X160791155Y-89586809D01*
X160791139Y-89586814D01*
X160524663Y-89697191D01*
X160524647Y-89697199D01*
X160274851Y-89841420D01*
X160274835Y-89841431D01*
X160045997Y-90017024D01*
X160045990Y-90017030D01*
X159842030Y-90220990D01*
X159842024Y-90220997D01*
X159666431Y-90449835D01*
X159666420Y-90449851D01*
X159522199Y-90699647D01*
X159522191Y-90699663D01*
X159488561Y-90780856D01*
X159444720Y-90835260D01*
X159378426Y-90857325D01*
X159310727Y-90840046D01*
X159263116Y-90788909D01*
X159250000Y-90733404D01*
X159250000Y-90575000D01*
X159100027Y-90575000D01*
X159100012Y-90575001D01*
X158997302Y-90585494D01*
X158830880Y-90640641D01*
X158830875Y-90640643D01*
X158681654Y-90732684D01*
X158557684Y-90856654D01*
X158465643Y-91005875D01*
X158465641Y-91005880D01*
X158410494Y-91172302D01*
X158410493Y-91172309D01*
X158400000Y-91275013D01*
X158400000Y-91700000D01*
X159175500Y-91700000D01*
X159209644Y-91710025D01*
X159199925Y-91719745D01*
X159150556Y-91805255D01*
X159125000Y-91900630D01*
X159125000Y-91999370D01*
X159150556Y-92094745D01*
X159199925Y-92180255D01*
X159211777Y-92192107D01*
X159175500Y-92200000D01*
X158400001Y-92200000D01*
X158400001Y-92624986D01*
X158410494Y-92727697D01*
X158465641Y-92894119D01*
X158465643Y-92894124D01*
X158557684Y-93043345D01*
X158681654Y-93167315D01*
X158830875Y-93259356D01*
X158830880Y-93259358D01*
X158997302Y-93314505D01*
X158997309Y-93314506D01*
X159100019Y-93324999D01*
X159249999Y-93324999D01*
X159250000Y-93324998D01*
X159250000Y-93166595D01*
X159269685Y-93099556D01*
X159322489Y-93053801D01*
X159391647Y-93043857D01*
X159455203Y-93072882D01*
X159488561Y-93119143D01*
X159522191Y-93200336D01*
X159522199Y-93200352D01*
X159666420Y-93450148D01*
X159666431Y-93450164D01*
X159842024Y-93679002D01*
X159842030Y-93679009D01*
X160045990Y-93882969D01*
X160045996Y-93882974D01*
X160274844Y-94058575D01*
X160274851Y-94058579D01*
X160524647Y-94202800D01*
X160524663Y-94202808D01*
X160791139Y-94313185D01*
X160791145Y-94313186D01*
X160791155Y-94313191D01*
X160907595Y-94344390D01*
X160967253Y-94380753D01*
X160997783Y-94443600D01*
X160999500Y-94464164D01*
X160999500Y-95735834D01*
X160979815Y-95802873D01*
X160927011Y-95848628D01*
X160907594Y-95855609D01*
X160791147Y-95886811D01*
X160524663Y-95997191D01*
X160524647Y-95997199D01*
X160274851Y-96141420D01*
X160274835Y-96141431D01*
X160045997Y-96317024D01*
X160045990Y-96317030D01*
X159842030Y-96520990D01*
X159842024Y-96520997D01*
X159666431Y-96749835D01*
X159666420Y-96749851D01*
X159522199Y-96999647D01*
X159522191Y-96999663D01*
X159488561Y-97080856D01*
X159444720Y-97135260D01*
X159378426Y-97157325D01*
X159310727Y-97140046D01*
X159263116Y-97088909D01*
X159250000Y-97033404D01*
X159250000Y-96875000D01*
X159100027Y-96875000D01*
X159100012Y-96875001D01*
X158997302Y-96885494D01*
X158830880Y-96940641D01*
X158830875Y-96940643D01*
X158681654Y-97032684D01*
X158557684Y-97156654D01*
X158465643Y-97305875D01*
X158465641Y-97305880D01*
X158410494Y-97472302D01*
X158410493Y-97472309D01*
X158400000Y-97575013D01*
X158400000Y-98000000D01*
X159175500Y-98000000D01*
X159209644Y-98010025D01*
X159199925Y-98019745D01*
X159150556Y-98105255D01*
X159125000Y-98200630D01*
X159125000Y-98299370D01*
X159150556Y-98394745D01*
X159199925Y-98480255D01*
X159211777Y-98492107D01*
X159175500Y-98500000D01*
X158400001Y-98500000D01*
X158400001Y-98924986D01*
X158410494Y-99027697D01*
X158465641Y-99194119D01*
X158465643Y-99194124D01*
X158557684Y-99343345D01*
X158681654Y-99467315D01*
X158830875Y-99559356D01*
X158830880Y-99559358D01*
X158997302Y-99614505D01*
X158997309Y-99614506D01*
X159100019Y-99624999D01*
X159249999Y-99624999D01*
X159250000Y-99624998D01*
X159250000Y-99466595D01*
X159269685Y-99399556D01*
X159322489Y-99353801D01*
X159391647Y-99343857D01*
X159455203Y-99372882D01*
X159488561Y-99419143D01*
X159522191Y-99500336D01*
X159522199Y-99500352D01*
X159666420Y-99750148D01*
X159666431Y-99750164D01*
X159842024Y-99979002D01*
X159842030Y-99979009D01*
X160045990Y-100182969D01*
X160045997Y-100182975D01*
X160095396Y-100220880D01*
X160274844Y-100358575D01*
X160274851Y-100358579D01*
X160524647Y-100502800D01*
X160524663Y-100502808D01*
X160791139Y-100613185D01*
X160791145Y-100613186D01*
X160791155Y-100613191D01*
X160907595Y-100644390D01*
X160967253Y-100680753D01*
X160997783Y-100743600D01*
X160999500Y-100764164D01*
X160999500Y-102235834D01*
X160979815Y-102302873D01*
X160927011Y-102348628D01*
X160907594Y-102355609D01*
X160791147Y-102386811D01*
X160524663Y-102497191D01*
X160524647Y-102497199D01*
X160274851Y-102641420D01*
X160274835Y-102641431D01*
X160045997Y-102817024D01*
X160045990Y-102817030D01*
X159842030Y-103020990D01*
X159842024Y-103020997D01*
X159666431Y-103249835D01*
X159666420Y-103249851D01*
X159522199Y-103499647D01*
X159522191Y-103499663D01*
X159488561Y-103580856D01*
X159444720Y-103635260D01*
X159378426Y-103657325D01*
X159310727Y-103640046D01*
X159263116Y-103588909D01*
X159250000Y-103533404D01*
X159250000Y-103375000D01*
X159100027Y-103375000D01*
X159100012Y-103375001D01*
X158997302Y-103385494D01*
X158830880Y-103440641D01*
X158830875Y-103440643D01*
X158681654Y-103532684D01*
X158557684Y-103656654D01*
X158465643Y-103805875D01*
X158465641Y-103805880D01*
X158410494Y-103972302D01*
X158410493Y-103972309D01*
X158400000Y-104075013D01*
X158400000Y-104500000D01*
X159175500Y-104500000D01*
X159209644Y-104510025D01*
X159199925Y-104519745D01*
X159150556Y-104605255D01*
X159125000Y-104700630D01*
X159125000Y-104799370D01*
X159150556Y-104894745D01*
X159199925Y-104980255D01*
X159211777Y-104992107D01*
X159175500Y-105000000D01*
X158400001Y-105000000D01*
X158400001Y-105424986D01*
X158410494Y-105527697D01*
X158465641Y-105694119D01*
X158465643Y-105694124D01*
X158557684Y-105843345D01*
X158681654Y-105967315D01*
X158830875Y-106059356D01*
X158830880Y-106059358D01*
X158997302Y-106114505D01*
X158997309Y-106114506D01*
X159100019Y-106124999D01*
X159249999Y-106124999D01*
X159250000Y-106124998D01*
X159250000Y-105966595D01*
X159269685Y-105899556D01*
X159322489Y-105853801D01*
X159391647Y-105843857D01*
X159455203Y-105872882D01*
X159488561Y-105919143D01*
X159522191Y-106000336D01*
X159522199Y-106000352D01*
X159666420Y-106250148D01*
X159666431Y-106250164D01*
X159842024Y-106479002D01*
X159842030Y-106479009D01*
X160045990Y-106682969D01*
X160045996Y-106682974D01*
X160274844Y-106858575D01*
X160274851Y-106858579D01*
X160524647Y-107002800D01*
X160524663Y-107002808D01*
X160791139Y-107113185D01*
X160791145Y-107113186D01*
X160791155Y-107113191D01*
X161069783Y-107187849D01*
X161355772Y-107225500D01*
X161355779Y-107225500D01*
X161644221Y-107225500D01*
X161644228Y-107225500D01*
X161692697Y-107219118D01*
X161761728Y-107229882D01*
X161796562Y-107254376D01*
X165182686Y-110640500D01*
X165296814Y-110706392D01*
X165424107Y-110740500D01*
X165424108Y-110740500D01*
X167325500Y-110740500D01*
X167392539Y-110760185D01*
X167438294Y-110812989D01*
X167449500Y-110864500D01*
X167449500Y-111202887D01*
X167464317Y-111391151D01*
X167523127Y-111636112D01*
X167523127Y-111636114D01*
X167601487Y-111825292D01*
X167608956Y-111894761D01*
X167603968Y-111913698D01*
X167543440Y-112086681D01*
X167543438Y-112086687D01*
X167480945Y-112360487D01*
X167480942Y-112360505D01*
X167449500Y-112639568D01*
X167449500Y-112920431D01*
X167480942Y-113199494D01*
X167480945Y-113199512D01*
X167543439Y-113473317D01*
X167543443Y-113473329D01*
X167636200Y-113738411D01*
X167759564Y-113994579D01*
X167758416Y-113995131D01*
X167772462Y-114058261D01*
X167758732Y-114105020D01*
X167759564Y-114105421D01*
X167636200Y-114361588D01*
X167543443Y-114626670D01*
X167543439Y-114626682D01*
X167480945Y-114900487D01*
X167480942Y-114900505D01*
X167449500Y-115179568D01*
X167449500Y-115460431D01*
X167480942Y-115739494D01*
X167480945Y-115739512D01*
X167543439Y-116013317D01*
X167543443Y-116013329D01*
X167636200Y-116278411D01*
X167759564Y-116534579D01*
X167758416Y-116535131D01*
X167772462Y-116598261D01*
X167758732Y-116645020D01*
X167759564Y-116645421D01*
X167636200Y-116901588D01*
X167543443Y-117166670D01*
X167543439Y-117166682D01*
X167480945Y-117440487D01*
X167480942Y-117440505D01*
X167449500Y-117719568D01*
X167449500Y-118000431D01*
X167480942Y-118279494D01*
X167480945Y-118279512D01*
X167543439Y-118553317D01*
X167543443Y-118553329D01*
X167636200Y-118818411D01*
X167759564Y-119074579D01*
X167758416Y-119075131D01*
X167772462Y-119138261D01*
X167758732Y-119185020D01*
X167759564Y-119185421D01*
X167636200Y-119441588D01*
X167543443Y-119706670D01*
X167543439Y-119706682D01*
X167480945Y-119980487D01*
X167480942Y-119980505D01*
X167449500Y-120259568D01*
X167449500Y-120540431D01*
X167480942Y-120819494D01*
X167480945Y-120819512D01*
X167543439Y-121093317D01*
X167543443Y-121093329D01*
X167636200Y-121358411D01*
X167759564Y-121614579D01*
X167758416Y-121615131D01*
X167772462Y-121678261D01*
X167758732Y-121725020D01*
X167759564Y-121725421D01*
X167636200Y-121981588D01*
X167543443Y-122246670D01*
X167543439Y-122246682D01*
X167480945Y-122520487D01*
X167480942Y-122520505D01*
X167449500Y-122799568D01*
X167449500Y-123080431D01*
X167480942Y-123359494D01*
X167480945Y-123359512D01*
X167543439Y-123633317D01*
X167543443Y-123633329D01*
X167636200Y-123898411D01*
X167759564Y-124154579D01*
X167758416Y-124155131D01*
X167772462Y-124218261D01*
X167758732Y-124265020D01*
X167759564Y-124265421D01*
X167636200Y-124521588D01*
X167543443Y-124786670D01*
X167543439Y-124786682D01*
X167480945Y-125060487D01*
X167480942Y-125060505D01*
X167449500Y-125339568D01*
X167449500Y-125620431D01*
X167480942Y-125899494D01*
X167480945Y-125899512D01*
X167543439Y-126173317D01*
X167543443Y-126173329D01*
X167636200Y-126438411D01*
X167759564Y-126694579D01*
X167758416Y-126695131D01*
X167772462Y-126758261D01*
X167758732Y-126805020D01*
X167759564Y-126805421D01*
X167636200Y-127061588D01*
X167543443Y-127326670D01*
X167543439Y-127326682D01*
X167480945Y-127600487D01*
X167480942Y-127600505D01*
X167449500Y-127879568D01*
X167449500Y-128160431D01*
X167480942Y-128439494D01*
X167480945Y-128439512D01*
X167543439Y-128713317D01*
X167543443Y-128713329D01*
X167636200Y-128978411D01*
X167759564Y-129234579D01*
X167758416Y-129235131D01*
X167772462Y-129298261D01*
X167758732Y-129345020D01*
X167759564Y-129345421D01*
X167636200Y-129601588D01*
X167543443Y-129866670D01*
X167543439Y-129866682D01*
X167480945Y-130140487D01*
X167480942Y-130140505D01*
X167449500Y-130419568D01*
X167449500Y-130700431D01*
X167480942Y-130979494D01*
X167480945Y-130979512D01*
X167543439Y-131253317D01*
X167543443Y-131253329D01*
X167636200Y-131518411D01*
X167759564Y-131774579D01*
X167758416Y-131775131D01*
X167772462Y-131838261D01*
X167758732Y-131885020D01*
X167759564Y-131885421D01*
X167636200Y-132141588D01*
X167543443Y-132406670D01*
X167543439Y-132406682D01*
X167480945Y-132680487D01*
X167480942Y-132680505D01*
X167449500Y-132959568D01*
X167449500Y-133240431D01*
X167480942Y-133519494D01*
X167480945Y-133519512D01*
X167543439Y-133793317D01*
X167543443Y-133793329D01*
X167636200Y-134058411D01*
X167759564Y-134314579D01*
X167758416Y-134315131D01*
X167772462Y-134378261D01*
X167758732Y-134425020D01*
X167759564Y-134425421D01*
X167636200Y-134681588D01*
X167543443Y-134946670D01*
X167543439Y-134946682D01*
X167480945Y-135220487D01*
X167480942Y-135220505D01*
X167449500Y-135499568D01*
X167449500Y-135780431D01*
X167480942Y-136059494D01*
X167480945Y-136059512D01*
X167543439Y-136333317D01*
X167543443Y-136333329D01*
X167636200Y-136598411D01*
X167759564Y-136854579D01*
X167758404Y-136855137D01*
X167759368Y-136859460D01*
X167765133Y-136867241D01*
X167766848Y-136893003D01*
X167772467Y-136918203D01*
X167769254Y-136929149D01*
X167769774Y-136936956D01*
X167757276Y-136969964D01*
X167756739Y-136970936D01*
X167707091Y-137020096D01*
X167638745Y-137034611D01*
X167623457Y-137032478D01*
X167511591Y-137009696D01*
X167511587Y-137009695D01*
X167511584Y-137009695D01*
X167352325Y-136999500D01*
X167352315Y-136999500D01*
X166547685Y-136999500D01*
X166388410Y-137009695D01*
X166122987Y-137063753D01*
X165965218Y-137120813D01*
X165868251Y-137155884D01*
X165629658Y-137284117D01*
X165629650Y-137284122D01*
X165412278Y-137445721D01*
X165412259Y-137445737D01*
X165220737Y-137637259D01*
X165220721Y-137637278D01*
X165059122Y-137854650D01*
X165059117Y-137854658D01*
X164930884Y-138093251D01*
X164930881Y-138093258D01*
X164909052Y-138153613D01*
X164867740Y-138209961D01*
X164802522Y-138235028D01*
X164734104Y-138220856D01*
X164727348Y-138216977D01*
X164644124Y-138165643D01*
X164644119Y-138165641D01*
X164477697Y-138110494D01*
X164477690Y-138110493D01*
X164374986Y-138100000D01*
X164250000Y-138100000D01*
X164250000Y-140899999D01*
X164374972Y-140899999D01*
X164374986Y-140899998D01*
X164477697Y-140889505D01*
X164644119Y-140834358D01*
X164644126Y-140834355D01*
X164727347Y-140783023D01*
X164794739Y-140764582D01*
X164861403Y-140785504D01*
X164906173Y-140839145D01*
X164909052Y-140846386D01*
X164930881Y-140906741D01*
X164930884Y-140906748D01*
X165059116Y-141145340D01*
X165059117Y-141145342D01*
X165094424Y-141192835D01*
X165118623Y-141258380D01*
X165103544Y-141326603D01*
X165094426Y-141340790D01*
X165084119Y-141354654D01*
X165084116Y-141354659D01*
X164955884Y-141593251D01*
X164955881Y-141593258D01*
X164934052Y-141653613D01*
X164892740Y-141709961D01*
X164827522Y-141735028D01*
X164759104Y-141720856D01*
X164752348Y-141716977D01*
X164669124Y-141665643D01*
X164669119Y-141665641D01*
X164502697Y-141610494D01*
X164502690Y-141610493D01*
X164399986Y-141600000D01*
X164275000Y-141600000D01*
X164275000Y-142876000D01*
X164255315Y-142943039D01*
X164202511Y-142988794D01*
X164151000Y-143000000D01*
X164025000Y-143000000D01*
X164025000Y-143126000D01*
X164005315Y-143193039D01*
X163952511Y-143238794D01*
X163901000Y-143250000D01*
X162950001Y-143250000D01*
X162950001Y-143699986D01*
X162960494Y-143802697D01*
X163015641Y-143969119D01*
X163015643Y-143969124D01*
X163107684Y-144118345D01*
X163231654Y-144242315D01*
X163380875Y-144334356D01*
X163380880Y-144334358D01*
X163547302Y-144389505D01*
X163547309Y-144389506D01*
X163650019Y-144399999D01*
X163860602Y-144399999D01*
X163927642Y-144419683D01*
X163973397Y-144472487D01*
X163983341Y-144541645D01*
X163954316Y-144605201D01*
X163914405Y-144635719D01*
X163780109Y-144700393D01*
X163532795Y-144855791D01*
X163304435Y-145037901D01*
X163097901Y-145244435D01*
X162922323Y-145464604D01*
X162898286Y-145487591D01*
X162698910Y-145632520D01*
X162687037Y-145636759D01*
X162677511Y-145645014D01*
X162654758Y-145648285D01*
X162633109Y-145656016D01*
X162620830Y-145653163D01*
X162608353Y-145654958D01*
X162587441Y-145645407D01*
X162565051Y-145640207D01*
X162556264Y-145631169D01*
X162544797Y-145625933D01*
X162532368Y-145606594D01*
X162516344Y-145590113D01*
X162513837Y-145577758D01*
X162507023Y-145567155D01*
X162505426Y-145561167D01*
X162486873Y-145483889D01*
X162390466Y-145251140D01*
X162258839Y-145036346D01*
X162258838Y-145036343D01*
X162221875Y-144993066D01*
X162095224Y-144844776D01*
X161926176Y-144700395D01*
X161903656Y-144681161D01*
X161903653Y-144681160D01*
X161751820Y-144588116D01*
X161704945Y-144536304D01*
X161693522Y-144467375D01*
X161721179Y-144403212D01*
X161777606Y-144364683D01*
X161869119Y-144334358D01*
X161869124Y-144334356D01*
X162018345Y-144242315D01*
X162142315Y-144118345D01*
X162234356Y-143969124D01*
X162234358Y-143969119D01*
X162289505Y-143802697D01*
X162289506Y-143802690D01*
X162299999Y-143699986D01*
X162300000Y-143699973D01*
X162300000Y-143250000D01*
X161349000Y-143250000D01*
X161281961Y-143230315D01*
X161236206Y-143177511D01*
X161225000Y-143126000D01*
X161225000Y-143000000D01*
X161099000Y-143000000D01*
X161031961Y-142980315D01*
X160986206Y-142927511D01*
X160975000Y-142876000D01*
X160975000Y-142750000D01*
X161475000Y-142750000D01*
X162299999Y-142750000D01*
X162299999Y-142300029D01*
X162299998Y-142300013D01*
X162950000Y-142300013D01*
X162950000Y-142750000D01*
X163775000Y-142750000D01*
X163775000Y-141600000D01*
X163650027Y-141600000D01*
X163650012Y-141600001D01*
X163547302Y-141610494D01*
X163380880Y-141665641D01*
X163380875Y-141665643D01*
X163231654Y-141757684D01*
X163107684Y-141881654D01*
X163015643Y-142030875D01*
X163015641Y-142030880D01*
X162960494Y-142197302D01*
X162960493Y-142197309D01*
X162950000Y-142300013D01*
X162299998Y-142300013D01*
X162299998Y-142300012D01*
X162289505Y-142197302D01*
X162234358Y-142030880D01*
X162234356Y-142030875D01*
X162142315Y-141881654D01*
X162018345Y-141757684D01*
X161869124Y-141665643D01*
X161869119Y-141665641D01*
X161702697Y-141610494D01*
X161702690Y-141610493D01*
X161599986Y-141600000D01*
X161475000Y-141600000D01*
X161475000Y-142750000D01*
X160975000Y-142750000D01*
X160975000Y-141600000D01*
X160850027Y-141600000D01*
X160850012Y-141600001D01*
X160747302Y-141610494D01*
X160580880Y-141665641D01*
X160580871Y-141665645D01*
X160497650Y-141716977D01*
X160430258Y-141735417D01*
X160363595Y-141714494D01*
X160318825Y-141660852D01*
X160315954Y-141653633D01*
X160294118Y-141593257D01*
X160165881Y-141354656D01*
X160165881Y-141354655D01*
X160143077Y-141323982D01*
X160118876Y-141258437D01*
X160133954Y-141190213D01*
X160143077Y-141176018D01*
X160165881Y-141145344D01*
X160165882Y-141145342D01*
X160294118Y-140906743D01*
X160315948Y-140846383D01*
X160357258Y-140790039D01*
X160422476Y-140764971D01*
X160490893Y-140779142D01*
X160497651Y-140783023D01*
X160580869Y-140834353D01*
X160580880Y-140834358D01*
X160747302Y-140889505D01*
X160747309Y-140889506D01*
X160850019Y-140899999D01*
X160974999Y-140899999D01*
X161475000Y-140899999D01*
X161599972Y-140899999D01*
X161599986Y-140899998D01*
X161702697Y-140889505D01*
X161869119Y-140834358D01*
X161869124Y-140834356D01*
X162018345Y-140742315D01*
X162142315Y-140618345D01*
X162234356Y-140469124D01*
X162234358Y-140469119D01*
X162289505Y-140302697D01*
X162289506Y-140302690D01*
X162299999Y-140199986D01*
X162925001Y-140199986D01*
X162935494Y-140302697D01*
X162990641Y-140469119D01*
X162990643Y-140469124D01*
X163082684Y-140618345D01*
X163206654Y-140742315D01*
X163355875Y-140834356D01*
X163355880Y-140834358D01*
X163522302Y-140889505D01*
X163522309Y-140889506D01*
X163625019Y-140899999D01*
X163749999Y-140899999D01*
X163750000Y-140899998D01*
X163750000Y-139750000D01*
X162925001Y-139750000D01*
X162925001Y-140199986D01*
X162299999Y-140199986D01*
X162300000Y-140199973D01*
X162300000Y-139750000D01*
X161475000Y-139750000D01*
X161475000Y-140899999D01*
X160974999Y-140899999D01*
X160975000Y-140899998D01*
X160975000Y-139250000D01*
X161475000Y-139250000D01*
X162299999Y-139250000D01*
X162299999Y-138800029D01*
X162299998Y-138800013D01*
X162925000Y-138800013D01*
X162925000Y-139250000D01*
X163750000Y-139250000D01*
X163750000Y-138100000D01*
X163625027Y-138100000D01*
X163625012Y-138100001D01*
X163522302Y-138110494D01*
X163355880Y-138165641D01*
X163355875Y-138165643D01*
X163206654Y-138257684D01*
X163082684Y-138381654D01*
X162990643Y-138530875D01*
X162990641Y-138530880D01*
X162935494Y-138697302D01*
X162935493Y-138697309D01*
X162925000Y-138800013D01*
X162299998Y-138800013D01*
X162299998Y-138800012D01*
X162289505Y-138697302D01*
X162234358Y-138530880D01*
X162234356Y-138530875D01*
X162142315Y-138381654D01*
X162018345Y-138257684D01*
X161869124Y-138165643D01*
X161869119Y-138165641D01*
X161702697Y-138110494D01*
X161702690Y-138110493D01*
X161599986Y-138100000D01*
X161475000Y-138100000D01*
X161475000Y-139250000D01*
X160975000Y-139250000D01*
X160975000Y-138100000D01*
X160850027Y-138100000D01*
X160850012Y-138100001D01*
X160747302Y-138110494D01*
X160580880Y-138165641D01*
X160580871Y-138165645D01*
X160497650Y-138216977D01*
X160430258Y-138235417D01*
X160363595Y-138214494D01*
X160318825Y-138160852D01*
X160315954Y-138153633D01*
X160294118Y-138093257D01*
X160265266Y-138039575D01*
X160165882Y-137854658D01*
X160165877Y-137854650D01*
X160004278Y-137637278D01*
X160004275Y-137637274D01*
X160004271Y-137637269D01*
X160004267Y-137637265D01*
X160004262Y-137637259D01*
X159812740Y-137445737D01*
X159812733Y-137445731D01*
X159812731Y-137445729D01*
X159812726Y-137445725D01*
X159812721Y-137445721D01*
X159595349Y-137284122D01*
X159595341Y-137284117D01*
X159356748Y-137155884D01*
X159356749Y-137155884D01*
X159303165Y-137136504D01*
X159102013Y-137063753D01*
X158874753Y-137017468D01*
X158812991Y-136984801D01*
X158778695Y-136923928D01*
X158775500Y-136895963D01*
X158775500Y-130422486D01*
X160249500Y-130422486D01*
X160249500Y-130717513D01*
X160279972Y-130948964D01*
X160288007Y-131009993D01*
X160364361Y-131294951D01*
X160364364Y-131294961D01*
X160477254Y-131567500D01*
X160477258Y-131567510D01*
X160624761Y-131822993D01*
X160804352Y-132057040D01*
X160804358Y-132057047D01*
X161012952Y-132265641D01*
X161012959Y-132265647D01*
X161247006Y-132445238D01*
X161502489Y-132592741D01*
X161502490Y-132592741D01*
X161502493Y-132592743D01*
X161775048Y-132705639D01*
X162060007Y-132781993D01*
X162352494Y-132820500D01*
X162352501Y-132820500D01*
X162647499Y-132820500D01*
X162647506Y-132820500D01*
X162939993Y-132781993D01*
X163224952Y-132705639D01*
X163497507Y-132592743D01*
X163752994Y-132445238D01*
X163987042Y-132265646D01*
X164195646Y-132057042D01*
X164375238Y-131822994D01*
X164522743Y-131567507D01*
X164635639Y-131294952D01*
X164711993Y-131009993D01*
X164750500Y-130717506D01*
X164750500Y-130422494D01*
X164711993Y-130130007D01*
X164635639Y-129845048D01*
X164522743Y-129572493D01*
X164375238Y-129317006D01*
X164360854Y-129298261D01*
X164195647Y-129082959D01*
X164195641Y-129082952D01*
X163987047Y-128874358D01*
X163987040Y-128874352D01*
X163752993Y-128694761D01*
X163497510Y-128547258D01*
X163497500Y-128547254D01*
X163224961Y-128434364D01*
X163224954Y-128434362D01*
X163224952Y-128434361D01*
X162939993Y-128358007D01*
X162891113Y-128351571D01*
X162647513Y-128319500D01*
X162647506Y-128319500D01*
X162352494Y-128319500D01*
X162352486Y-128319500D01*
X162074085Y-128356153D01*
X162060007Y-128358007D01*
X161775048Y-128434361D01*
X161775038Y-128434364D01*
X161502499Y-128547254D01*
X161502489Y-128547258D01*
X161247006Y-128694761D01*
X161012959Y-128874352D01*
X161012952Y-128874358D01*
X160804358Y-129082952D01*
X160804352Y-129082959D01*
X160624761Y-129317006D01*
X160477258Y-129572489D01*
X160477254Y-129572499D01*
X160364364Y-129845038D01*
X160364361Y-129845048D01*
X160300190Y-130084541D01*
X160288008Y-130130004D01*
X160288006Y-130130015D01*
X160249500Y-130422486D01*
X158775500Y-130422486D01*
X158775500Y-124128078D01*
X158795185Y-124061039D01*
X158847989Y-124015284D01*
X158917147Y-124005340D01*
X158980703Y-124034365D01*
X158997876Y-124052592D01*
X159043092Y-124111519D01*
X159043098Y-124111526D01*
X159228473Y-124296901D01*
X159228480Y-124296907D01*
X159436471Y-124456503D01*
X159663517Y-124587590D01*
X159663528Y-124587595D01*
X159905744Y-124687924D01*
X160158979Y-124755777D01*
X160158990Y-124755779D01*
X160418905Y-124789999D01*
X160418920Y-124790000D01*
X160800000Y-124790000D01*
X160800000Y-123498240D01*
X160831233Y-123511178D01*
X160976131Y-123540000D01*
X161123869Y-123540000D01*
X161268767Y-123511178D01*
X161300000Y-123498240D01*
X161300000Y-124790000D01*
X161681080Y-124790000D01*
X161681094Y-124789999D01*
X161941009Y-124755779D01*
X161941020Y-124755777D01*
X162194255Y-124687924D01*
X162436471Y-124587595D01*
X162436482Y-124587590D01*
X162663528Y-124456503D01*
X162871519Y-124296907D01*
X162871526Y-124296901D01*
X163056901Y-124111526D01*
X163056907Y-124111519D01*
X163216503Y-123903528D01*
X163347590Y-123676482D01*
X163347595Y-123676471D01*
X163447924Y-123434255D01*
X163515778Y-123181016D01*
X163534345Y-123040000D01*
X161758241Y-123040000D01*
X161771178Y-123008767D01*
X161800000Y-122863869D01*
X161800000Y-122716131D01*
X161771178Y-122571233D01*
X161758241Y-122540000D01*
X163534345Y-122540000D01*
X163534345Y-122539999D01*
X163515778Y-122398983D01*
X163447924Y-122145744D01*
X163347595Y-121903528D01*
X163347590Y-121903517D01*
X163216503Y-121676471D01*
X163056907Y-121468480D01*
X163056901Y-121468473D01*
X162871526Y-121283098D01*
X162871519Y-121283092D01*
X162663531Y-121123498D01*
X162522178Y-121041887D01*
X162473963Y-120991319D01*
X162460741Y-120922712D01*
X162486709Y-120857848D01*
X162543623Y-120817320D01*
X162584179Y-120810500D01*
X163112874Y-120810500D01*
X163112882Y-120810500D01*
X163301148Y-120795683D01*
X163546111Y-120736873D01*
X163778859Y-120640466D01*
X163993659Y-120508836D01*
X164185224Y-120345224D01*
X164348836Y-120153659D01*
X164480466Y-119938859D01*
X164576873Y-119706111D01*
X164635683Y-119461148D01*
X164650500Y-119272882D01*
X164650500Y-116147118D01*
X164635683Y-115958852D01*
X164576873Y-115713889D01*
X164480466Y-115481141D01*
X164480466Y-115481140D01*
X164348839Y-115266346D01*
X164348838Y-115266343D01*
X164274725Y-115179568D01*
X164185224Y-115074776D01*
X164058571Y-114966604D01*
X163993656Y-114911161D01*
X163993653Y-114911160D01*
X163778859Y-114779533D01*
X163546110Y-114683126D01*
X163301151Y-114624317D01*
X163112887Y-114609500D01*
X163112882Y-114609500D01*
X158987118Y-114609500D01*
X158987112Y-114609500D01*
X158798848Y-114624317D01*
X158553889Y-114683126D01*
X158321140Y-114779533D01*
X158106346Y-114911160D01*
X158106343Y-114911161D01*
X157914776Y-115074776D01*
X157751161Y-115266343D01*
X157751160Y-115266346D01*
X157619533Y-115481140D01*
X157523126Y-115713889D01*
X157464317Y-115958848D01*
X157449500Y-116147112D01*
X157449500Y-119272887D01*
X157464317Y-119461151D01*
X157523126Y-119706110D01*
X157619533Y-119938859D01*
X157751160Y-120153653D01*
X157751161Y-120153655D01*
X157780698Y-120188239D01*
X157809268Y-120252001D01*
X157806182Y-120300862D01*
X157774500Y-120419106D01*
X157774500Y-136895962D01*
X157754815Y-136963001D01*
X157702011Y-137008756D01*
X157675247Y-137017468D01*
X157591076Y-137034611D01*
X157447987Y-137063753D01*
X157290218Y-137120813D01*
X157193251Y-137155884D01*
X156954658Y-137284117D01*
X156954650Y-137284122D01*
X156737278Y-137445721D01*
X156737259Y-137445737D01*
X156545737Y-137637259D01*
X156545721Y-137637278D01*
X156384122Y-137854650D01*
X156384117Y-137854658D01*
X156255884Y-138093251D01*
X156253443Y-138100000D01*
X156163753Y-138347987D01*
X156109695Y-138613416D01*
X156099500Y-138772675D01*
X155840500Y-138772675D01*
X155840500Y-87944500D01*
X155860185Y-87877461D01*
X155912989Y-87831706D01*
X155964500Y-87820500D01*
X201155500Y-87820500D01*
X201222539Y-87840185D01*
G37*
G04 #@! TD.AperFunction*
M02*
