G04 #@! TF.GenerationSoftware,KiCad,Pcbnew,9.0.6*
G04 #@! TF.CreationDate,2026-05-27T14:02:08+02:00*
G04 #@! TF.ProjectId,carte_mpu6050,63617274-655f-46d7-9075-363035302e6b,rev?*
G04 #@! TF.SameCoordinates,Original*
G04 #@! TF.FileFunction,Copper,L2,Bot*
G04 #@! TF.FilePolarity,Positive*
%FSLAX46Y46*%
G04 Gerber Fmt 4.6, Leading zero omitted, Abs format (unit mm)*
G04 Created by KiCad (PCBNEW 9.0.6) date 2026-05-27 14:02:08*
%MOMM*%
%LPD*%
G01*
G04 APERTURE LIST*
G04 Aperture macros list*
%AMRoundRect*
0 Rectangle with rounded corners*
0 $1 Rounding radius*
0 $2 $3 $4 $5 $6 $7 $8 $9 X,Y pos of 4 corners*
0 Add a 4 corners polygon primitive as box body*
4,1,4,$2,$3,$4,$5,$6,$7,$8,$9,$2,$3,0*
0 Add four circle primitives for the rounded corners*
1,1,$1+$1,$2,$3*
1,1,$1+$1,$4,$5*
1,1,$1+$1,$6,$7*
1,1,$1+$1,$8,$9*
0 Add four rect primitives between the rounded corners*
20,1,$1+$1,$2,$3,$4,$5,0*
20,1,$1+$1,$4,$5,$6,$7,0*
20,1,$1+$1,$6,$7,$8,$9,0*
20,1,$1+$1,$8,$9,$2,$3,0*%
G04 Aperture macros list end*
%ADD10C,0.250000*%
G04 #@! TA.AperFunction,ComponentPad*
%ADD11R,1.700000X1.700000*%
G04 #@! TD*
G04 #@! TA.AperFunction,ComponentPad*
%ADD12C,1.700000*%
G04 #@! TD*
G04 #@! TA.AperFunction,ComponentPad*
%ADD13C,2.600000*%
G04 #@! TD*
G04 #@! TA.AperFunction,ConnectorPad*
%ADD14C,3.800000*%
G04 #@! TD*
G04 #@! TA.AperFunction,ComponentPad*
%ADD15RoundRect,0.250000X0.350000X0.625000X-0.350000X0.625000X-0.350000X-0.625000X0.350000X-0.625000X0*%
G04 #@! TD*
G04 #@! TA.AperFunction,ComponentPad*
%ADD16O,1.200000X1.750000*%
G04 #@! TD*
G04 #@! TA.AperFunction,ComponentPad*
%ADD17RoundRect,0.250000X-0.350000X-0.625000X0.350000X-0.625000X0.350000X0.625000X-0.350000X0.625000X0*%
G04 #@! TD*
G04 #@! TA.AperFunction,Conductor*
%ADD18C,0.500000*%
G04 #@! TD*
G04 #@! TA.AperFunction,Conductor*
%ADD19C,0.600000*%
G04 #@! TD*
G04 #@! TA.AperFunction,Conductor*
%ADD20C,0.300000*%
G04 #@! TD*
G04 APERTURE END LIST*
D10*
G36*
X125388622Y-75904969D02*
G01*
X125407554Y-75923902D01*
X125439964Y-75988723D01*
X125480524Y-76150960D01*
X125480524Y-76358277D01*
X125439964Y-76520513D01*
X125407553Y-76585336D01*
X125388622Y-76604268D01*
X125337921Y-76629619D01*
X125301700Y-76629619D01*
X125250998Y-76604268D01*
X125232066Y-76585336D01*
X125199655Y-76520515D01*
X125159096Y-76358277D01*
X125159096Y-76150960D01*
X125199655Y-75988722D01*
X125232065Y-75923901D01*
X125250998Y-75904969D01*
X125301700Y-75879619D01*
X125337921Y-75879619D01*
X125388622Y-75904969D01*
G37*
G36*
X127293384Y-75904969D02*
G01*
X127312316Y-75923902D01*
X127344726Y-75988723D01*
X127385286Y-76150960D01*
X127385286Y-76358277D01*
X127344726Y-76520513D01*
X127312315Y-76585336D01*
X127293384Y-76604268D01*
X127242683Y-76629619D01*
X127206462Y-76629619D01*
X127155760Y-76604268D01*
X127136828Y-76585336D01*
X127104417Y-76520515D01*
X127063858Y-76358277D01*
X127063858Y-76150960D01*
X127104417Y-75988722D01*
X127136827Y-75923901D01*
X127155760Y-75904969D01*
X127206462Y-75879619D01*
X127242683Y-75879619D01*
X127293384Y-75904969D01*
G37*
G36*
X128293384Y-76285921D02*
G01*
X128312316Y-76304854D01*
X128337667Y-76355555D01*
X128337667Y-76534633D01*
X128312315Y-76585336D01*
X128293384Y-76604268D01*
X128242683Y-76629619D01*
X128111224Y-76629619D01*
X128060522Y-76604268D01*
X128041590Y-76585336D01*
X128016239Y-76534634D01*
X128016239Y-76355555D01*
X128041589Y-76304853D01*
X128060522Y-76285921D01*
X128111224Y-76260571D01*
X128242683Y-76260571D01*
X128293384Y-76285921D01*
G37*
G36*
X135131402Y-76228740D02*
G01*
X135147191Y-76260317D01*
X135147191Y-76268809D01*
X134939663Y-76227303D01*
X134968367Y-76212952D01*
X135099826Y-76212952D01*
X135131402Y-76228740D01*
G37*
G36*
X137655212Y-76228740D02*
G01*
X137671001Y-76260317D01*
X137671001Y-76268809D01*
X137463473Y-76227303D01*
X137492177Y-76212952D01*
X137623636Y-76212952D01*
X137655212Y-76228740D01*
G37*
G36*
X148226641Y-76228740D02*
G01*
X148242430Y-76260317D01*
X148242430Y-76268809D01*
X148034902Y-76227303D01*
X148063606Y-76212952D01*
X148195065Y-76212952D01*
X148226641Y-76228740D01*
G37*
G36*
X149655213Y-76514454D02*
G01*
X149671002Y-76546031D01*
X149671002Y-76582252D01*
X149655212Y-76613831D01*
X149623637Y-76629619D01*
X149444812Y-76629619D01*
X149444812Y-76498666D01*
X149623637Y-76498666D01*
X149655213Y-76514454D01*
G37*
G36*
X152179023Y-76514454D02*
G01*
X152194812Y-76546031D01*
X152194812Y-76582252D01*
X152179022Y-76613831D01*
X152147447Y-76629619D01*
X151968622Y-76629619D01*
X151968622Y-76498666D01*
X152147447Y-76498666D01*
X152179023Y-76514454D01*
G37*
G36*
X141717811Y-76343904D02*
G01*
X141588477Y-76343904D01*
X141653143Y-76149903D01*
X141717811Y-76343904D01*
G37*
G36*
X130337667Y-76153428D02*
G01*
X130111224Y-76153428D01*
X130060522Y-76128077D01*
X130041589Y-76109145D01*
X130016239Y-76058444D01*
X130016239Y-75974603D01*
X130041589Y-75923901D01*
X130060522Y-75904969D01*
X130111224Y-75879619D01*
X130337667Y-75879619D01*
X130337667Y-76153428D01*
G37*
G36*
X154617431Y-77004619D02*
G01*
X124784096Y-77004619D01*
X124784096Y-76135571D01*
X124909096Y-76135571D01*
X124909096Y-76373666D01*
X124909515Y-76377920D01*
X124909244Y-76379742D01*
X124910593Y-76388870D01*
X124911498Y-76398052D01*
X124912202Y-76399753D01*
X124912828Y-76403983D01*
X124960447Y-76594459D01*
X124961090Y-76596258D01*
X124961154Y-76597158D01*
X124965036Y-76607304D01*
X124968692Y-76617534D01*
X124969228Y-76618258D01*
X124969912Y-76620044D01*
X125017530Y-76715281D01*
X125024137Y-76725777D01*
X125025400Y-76728825D01*
X125028217Y-76732258D01*
X125030585Y-76736019D01*
X125033079Y-76738182D01*
X125040945Y-76747767D01*
X125088564Y-76795387D01*
X125098152Y-76803256D01*
X125100314Y-76805749D01*
X125104068Y-76808112D01*
X125107505Y-76810933D01*
X125110558Y-76812197D01*
X125121051Y-76818803D01*
X125216289Y-76866422D01*
X125239175Y-76875180D01*
X125243655Y-76875498D01*
X125247805Y-76877217D01*
X125272191Y-76879619D01*
X125367429Y-76879619D01*
X125391815Y-76877217D01*
X125395963Y-76875498D01*
X125400445Y-76875180D01*
X125423331Y-76866422D01*
X125518568Y-76818804D01*
X125529064Y-76812196D01*
X125532114Y-76810933D01*
X125535547Y-76808114D01*
X125539306Y-76805749D01*
X125541468Y-76803255D01*
X125551056Y-76795387D01*
X125598675Y-76747768D01*
X125606542Y-76738180D01*
X125609035Y-76736019D01*
X125611401Y-76732259D01*
X125614220Y-76728825D01*
X125615482Y-76725776D01*
X125622089Y-76715282D01*
X125669708Y-76620044D01*
X125670391Y-76618258D01*
X125670928Y-76617534D01*
X125674583Y-76607304D01*
X125678466Y-76597158D01*
X125678529Y-76596258D01*
X125679173Y-76594459D01*
X125726792Y-76403983D01*
X125727417Y-76399753D01*
X125728122Y-76398052D01*
X125729026Y-76388872D01*
X125730376Y-76379743D01*
X125730104Y-76377920D01*
X125730524Y-76373666D01*
X125730524Y-76326047D01*
X125861477Y-76326047D01*
X125861477Y-76564142D01*
X125863879Y-76588528D01*
X125865597Y-76592676D01*
X125865916Y-76597158D01*
X125874674Y-76620044D01*
X125922292Y-76715281D01*
X125928899Y-76725777D01*
X125930162Y-76728825D01*
X125932979Y-76732258D01*
X125935347Y-76736019D01*
X125937841Y-76738182D01*
X125945707Y-76747767D01*
X125993326Y-76795387D01*
X126002914Y-76803256D01*
X126005076Y-76805749D01*
X126008830Y-76808112D01*
X126012267Y-76810933D01*
X126015320Y-76812197D01*
X126025813Y-76818803D01*
X126121051Y-76866422D01*
X126143937Y-76875180D01*
X126148417Y-76875498D01*
X126152567Y-76877217D01*
X126176953Y-76879619D01*
X126415048Y-76879619D01*
X126439434Y-76877217D01*
X126443582Y-76875498D01*
X126448064Y-76875180D01*
X126470950Y-76866422D01*
X126566187Y-76818804D01*
X126576683Y-76812196D01*
X126579733Y-76810933D01*
X126583166Y-76808114D01*
X126586925Y-76805749D01*
X126589087Y-76803255D01*
X126598675Y-76795387D01*
X126646294Y-76747768D01*
X126661839Y-76728825D01*
X126680503Y-76683766D01*
X126680503Y-76634992D01*
X126661838Y-76589933D01*
X126627350Y-76555446D01*
X126582290Y-76536782D01*
X126533517Y-76536782D01*
X126488457Y-76555447D01*
X126469516Y-76570993D01*
X126436241Y-76604268D01*
X126385540Y-76629619D01*
X126206462Y-76629619D01*
X126155760Y-76604268D01*
X126136828Y-76585336D01*
X126111477Y-76534634D01*
X126111477Y-76355555D01*
X126136827Y-76304853D01*
X126155760Y-76285921D01*
X126206462Y-76260571D01*
X126385540Y-76260571D01*
X126436241Y-76285921D01*
X126469516Y-76319197D01*
X126488458Y-76334742D01*
X126494272Y-76337150D01*
X126499145Y-76341137D01*
X126516637Y-76346414D01*
X126533518Y-76353407D01*
X126539813Y-76353407D01*
X126545839Y-76355225D01*
X126564019Y-76353407D01*
X126582291Y-76353407D01*
X126588105Y-76350998D01*
X126594369Y-76350372D01*
X126610473Y-76341732D01*
X126627351Y-76334742D01*
X126631799Y-76330293D01*
X126637348Y-76327317D01*
X126648922Y-76313170D01*
X126661838Y-76300255D01*
X126664245Y-76294442D01*
X126668233Y-76289569D01*
X126673511Y-76272073D01*
X126680503Y-76255195D01*
X126680503Y-76248900D01*
X126682321Y-76242875D01*
X126682285Y-76218371D01*
X126674005Y-76135571D01*
X126813858Y-76135571D01*
X126813858Y-76373666D01*
X126814277Y-76377920D01*
X126814006Y-76379742D01*
X126815355Y-76388870D01*
X126816260Y-76398052D01*
X126816964Y-76399753D01*
X126817590Y-76403983D01*
X126865209Y-76594459D01*
X126865852Y-76596258D01*
X126865916Y-76597158D01*
X126869798Y-76607304D01*
X126873454Y-76617534D01*
X126873990Y-76618258D01*
X126874674Y-76620044D01*
X126922292Y-76715281D01*
X126928899Y-76725777D01*
X126930162Y-76728825D01*
X126932979Y-76732258D01*
X126935347Y-76736019D01*
X126937841Y-76738182D01*
X126945707Y-76747767D01*
X126993326Y-76795387D01*
X127002914Y-76803256D01*
X127005076Y-76805749D01*
X127008830Y-76808112D01*
X127012267Y-76810933D01*
X127015320Y-76812197D01*
X127025813Y-76818803D01*
X127121051Y-76866422D01*
X127143937Y-76875180D01*
X127148417Y-76875498D01*
X127152567Y-76877217D01*
X127176953Y-76879619D01*
X127272191Y-76879619D01*
X127296577Y-76877217D01*
X127300725Y-76875498D01*
X127305207Y-76875180D01*
X127328093Y-76866422D01*
X127423330Y-76818804D01*
X127433826Y-76812196D01*
X127436876Y-76810933D01*
X127440309Y-76808114D01*
X127444068Y-76805749D01*
X127446230Y-76803255D01*
X127455818Y-76795387D01*
X127503437Y-76747768D01*
X127511304Y-76738180D01*
X127513797Y-76736019D01*
X127516163Y-76732259D01*
X127518982Y-76728825D01*
X127520244Y-76725776D01*
X127526851Y-76715282D01*
X127574470Y-76620044D01*
X127575153Y-76618258D01*
X127575690Y-76617534D01*
X127579345Y-76607304D01*
X127583228Y-76597158D01*
X127583291Y-76596258D01*
X127583935Y-76594459D01*
X127631554Y-76403983D01*
X127632179Y-76399753D01*
X127632884Y-76398052D01*
X127633788Y-76388872D01*
X127635138Y-76379743D01*
X127634866Y-76377920D01*
X127635286Y-76373666D01*
X127635286Y-76326047D01*
X127766239Y-76326047D01*
X127766239Y-76564142D01*
X127768641Y-76588528D01*
X127770359Y-76592676D01*
X127770678Y-76597158D01*
X127779436Y-76620044D01*
X127827054Y-76715281D01*
X127833661Y-76725777D01*
X127834924Y-76728825D01*
X127837741Y-76732258D01*
X127840109Y-76736019D01*
X127842603Y-76738182D01*
X127850469Y-76747767D01*
X127898088Y-76795387D01*
X127907676Y-76803256D01*
X127909838Y-76805749D01*
X127913592Y-76808112D01*
X127917029Y-76810933D01*
X127920082Y-76812197D01*
X127930575Y-76818803D01*
X128025813Y-76866422D01*
X128048699Y-76875180D01*
X128053179Y-76875498D01*
X128057329Y-76877217D01*
X128081715Y-76879619D01*
X128272191Y-76879619D01*
X128296577Y-76877217D01*
X128300725Y-76875498D01*
X128305207Y-76875180D01*
X128328093Y-76866422D01*
X128423330Y-76818804D01*
X128433826Y-76812196D01*
X128436876Y-76810933D01*
X128440309Y-76808114D01*
X128444068Y-76805749D01*
X128446230Y-76803255D01*
X128455818Y-76795387D01*
X128503437Y-76747768D01*
X128511304Y-76738180D01*
X128513797Y-76736019D01*
X128516163Y-76732259D01*
X128518982Y-76728825D01*
X128520244Y-76725776D01*
X128526851Y-76715282D01*
X128574470Y-76620044D01*
X128583228Y-76597158D01*
X128583546Y-76592677D01*
X128585265Y-76588528D01*
X128587667Y-76564142D01*
X128587667Y-76183190D01*
X128587247Y-76178935D01*
X128587519Y-76177113D01*
X128586169Y-76167983D01*
X128585265Y-76158804D01*
X128584560Y-76157102D01*
X128583935Y-76152873D01*
X128536316Y-75962397D01*
X128531182Y-75948030D01*
X128530583Y-75944999D01*
X128529117Y-75942249D01*
X128528071Y-75939322D01*
X128526233Y-75936842D01*
X128519054Y-75923377D01*
X128423816Y-75780519D01*
X128423759Y-75780450D01*
X128423743Y-75780410D01*
X128416106Y-75771104D01*
X128408291Y-75761561D01*
X128408253Y-75761536D01*
X128408198Y-75761468D01*
X128401349Y-75754619D01*
X128766239Y-75754619D01*
X128766239Y-76564142D01*
X128768641Y-76588528D01*
X128770359Y-76592676D01*
X128770678Y-76597158D01*
X128779436Y-76620044D01*
X128827054Y-76715281D01*
X128833661Y-76725777D01*
X128834924Y-76728825D01*
X128837741Y-76732258D01*
X128840109Y-76736019D01*
X128842603Y-76738182D01*
X128850469Y-76747767D01*
X128898088Y-76795387D01*
X128907676Y-76803256D01*
X128909838Y-76805749D01*
X128913592Y-76808112D01*
X128917029Y-76810933D01*
X128920082Y-76812197D01*
X128930575Y-76818803D01*
X129025813Y-76866422D01*
X129048699Y-76875180D01*
X129053179Y-76875498D01*
X129057329Y-76877217D01*
X129081715Y-76879619D01*
X129272191Y-76879619D01*
X129296577Y-76877217D01*
X129300725Y-76875498D01*
X129305207Y-76875180D01*
X129328093Y-76866422D01*
X129423330Y-76818804D01*
X129433826Y-76812196D01*
X129436876Y-76810933D01*
X129440309Y-76808114D01*
X129444068Y-76805749D01*
X129446230Y-76803255D01*
X129455818Y-76795387D01*
X129503437Y-76747768D01*
X129511304Y-76738180D01*
X129513797Y-76736019D01*
X129516163Y-76732259D01*
X129518982Y-76728825D01*
X129520244Y-76725776D01*
X129526851Y-76715282D01*
X129574470Y-76620044D01*
X129583228Y-76597158D01*
X129583546Y-76592677D01*
X129585265Y-76588528D01*
X129587667Y-76564142D01*
X129587667Y-75945095D01*
X129766239Y-75945095D01*
X129766239Y-76087952D01*
X129768641Y-76112338D01*
X129770359Y-76116486D01*
X129770678Y-76120968D01*
X129779436Y-76143854D01*
X129827054Y-76239091D01*
X129833663Y-76249589D01*
X129834925Y-76252636D01*
X129837740Y-76256067D01*
X129840109Y-76259829D01*
X129842603Y-76261992D01*
X129850470Y-76271578D01*
X129898088Y-76319197D01*
X129907676Y-76327066D01*
X129909838Y-76329558D01*
X129913595Y-76331923D01*
X129917030Y-76334742D01*
X129920080Y-76336005D01*
X129930575Y-76342612D01*
X130025813Y-76390231D01*
X130048699Y-76398989D01*
X130053179Y-76399307D01*
X130057329Y-76401026D01*
X130081715Y-76403428D01*
X130337667Y-76403428D01*
X130337667Y-76754619D01*
X130340069Y-76779005D01*
X130358733Y-76824065D01*
X130393221Y-76858553D01*
X130438281Y-76877217D01*
X130487053Y-76877217D01*
X130532113Y-76858553D01*
X130566601Y-76824065D01*
X130585265Y-76779005D01*
X130587667Y-76754619D01*
X130587667Y-75754619D01*
X130813858Y-75754619D01*
X130813858Y-76754619D01*
X130816260Y-76779005D01*
X130834924Y-76824065D01*
X130869412Y-76858553D01*
X130914472Y-76877217D01*
X130963244Y-76877217D01*
X131008304Y-76858553D01*
X131042792Y-76824065D01*
X131061456Y-76779005D01*
X131063858Y-76754619D01*
X131063858Y-76318065D01*
X131158918Y-76521765D01*
X131164207Y-76530694D01*
X131165308Y-76533720D01*
X131167267Y-76535860D01*
X131171407Y-76542847D01*
X131185415Y-76555675D01*
X131198248Y-76569688D01*
X131203280Y-76572036D01*
X131207376Y-76575787D01*
X131225226Y-76582278D01*
X131242444Y-76590313D01*
X131247993Y-76590556D01*
X131253213Y-76592455D01*
X131272191Y-76591620D01*
X131291170Y-76592455D01*
X131296389Y-76590556D01*
X131301938Y-76590313D01*
X131319151Y-76582279D01*
X131337007Y-76575787D01*
X131341103Y-76572035D01*
X131346134Y-76569688D01*
X131358964Y-76555677D01*
X131372975Y-76542847D01*
X131377114Y-76535860D01*
X131379074Y-76533720D01*
X131380174Y-76530694D01*
X131385464Y-76521765D01*
X131480524Y-76318064D01*
X131480524Y-76754619D01*
X131482926Y-76779005D01*
X131501590Y-76824065D01*
X131536078Y-76858553D01*
X131581138Y-76877217D01*
X131629910Y-76877217D01*
X131674970Y-76858553D01*
X131709458Y-76824065D01*
X131728122Y-76779005D01*
X131730524Y-76754619D01*
X131730524Y-76349280D01*
X132721022Y-76349280D01*
X132721022Y-76398052D01*
X132739686Y-76443112D01*
X132774174Y-76477600D01*
X132819234Y-76496264D01*
X132843620Y-76498666D01*
X133605524Y-76498666D01*
X133629910Y-76496264D01*
X133674970Y-76477600D01*
X133709458Y-76443112D01*
X133728122Y-76398052D01*
X133728122Y-76349280D01*
X133709458Y-76304220D01*
X133674970Y-76269732D01*
X133629910Y-76251068D01*
X133605524Y-76248666D01*
X132843620Y-76248666D01*
X132819234Y-76251068D01*
X132774174Y-76269732D01*
X132739686Y-76304220D01*
X132721022Y-76349280D01*
X131730524Y-76349280D01*
X131730524Y-76230809D01*
X134671001Y-76230809D01*
X134671001Y-76326047D01*
X134673403Y-76350433D01*
X134678089Y-76361747D01*
X134680466Y-76373761D01*
X134687330Y-76384058D01*
X134692067Y-76395493D01*
X134700726Y-76404152D01*
X134707520Y-76414343D01*
X134717804Y-76421230D01*
X134726555Y-76429981D01*
X134737869Y-76434667D01*
X134748045Y-76441482D01*
X134771486Y-76448620D01*
X135147191Y-76523761D01*
X135147191Y-76582252D01*
X135131401Y-76613831D01*
X135099826Y-76629619D01*
X134968367Y-76629619D01*
X134899522Y-76595197D01*
X134876636Y-76586439D01*
X134827986Y-76582981D01*
X134781716Y-76598405D01*
X134744871Y-76630361D01*
X134723059Y-76673984D01*
X134719601Y-76722634D01*
X134735025Y-76768904D01*
X134766981Y-76805749D01*
X134787718Y-76818803D01*
X134882956Y-76866422D01*
X134905842Y-76875180D01*
X134910322Y-76875498D01*
X134914472Y-76877217D01*
X134938858Y-76879619D01*
X135129334Y-76879619D01*
X135153720Y-76877217D01*
X135157868Y-76875498D01*
X135162350Y-76875180D01*
X135185236Y-76866422D01*
X135280473Y-76818804D01*
X135284550Y-76816237D01*
X135286477Y-76815595D01*
X135288876Y-76813513D01*
X135301211Y-76805749D01*
X135311477Y-76793911D01*
X135323322Y-76783639D01*
X135331089Y-76771299D01*
X135333167Y-76768904D01*
X135333808Y-76766980D01*
X135336376Y-76762901D01*
X135383995Y-76667662D01*
X135392752Y-76644777D01*
X135393070Y-76640296D01*
X135394789Y-76636147D01*
X135397191Y-76611761D01*
X135397191Y-76230809D01*
X135394789Y-76206423D01*
X135393070Y-76202273D01*
X135392752Y-76197793D01*
X135383994Y-76174907D01*
X135336375Y-76079669D01*
X135333808Y-76075592D01*
X135333167Y-76073667D01*
X135331087Y-76071268D01*
X135323321Y-76058932D01*
X135311480Y-76048662D01*
X135301211Y-76036822D01*
X135288873Y-76029055D01*
X135286476Y-76026976D01*
X135284551Y-76026334D01*
X135280473Y-76023767D01*
X135185236Y-75976149D01*
X135162350Y-75967391D01*
X135157868Y-75967072D01*
X135153720Y-75965354D01*
X135129334Y-75962952D01*
X134938858Y-75962952D01*
X134914472Y-75965354D01*
X134910322Y-75967072D01*
X134905842Y-75967391D01*
X134882956Y-75976149D01*
X134787718Y-76023768D01*
X134783641Y-76026334D01*
X134781716Y-76026976D01*
X134779317Y-76029055D01*
X134766981Y-76036822D01*
X134756711Y-76048662D01*
X134744871Y-76058932D01*
X134737104Y-76071269D01*
X134735025Y-76073667D01*
X134734383Y-76075591D01*
X134731816Y-76079670D01*
X134684198Y-76174907D01*
X134675440Y-76197793D01*
X134675121Y-76202274D01*
X134673403Y-76206423D01*
X134671001Y-76230809D01*
X131730524Y-76230809D01*
X131730524Y-75777851D01*
X135530545Y-75777851D01*
X135530545Y-75826625D01*
X135549210Y-75871684D01*
X135564755Y-75890626D01*
X135612373Y-75938245D01*
X135631315Y-75953790D01*
X135631316Y-75953791D01*
X135653433Y-75962952D01*
X135667803Y-75968904D01*
X135631316Y-75984018D01*
X135596828Y-76018506D01*
X135578164Y-76063566D01*
X135575762Y-76087952D01*
X135575762Y-76754619D01*
X135578164Y-76779005D01*
X135596828Y-76824065D01*
X135631316Y-76858553D01*
X135676376Y-76877217D01*
X135725148Y-76877217D01*
X135770208Y-76858553D01*
X135804696Y-76824065D01*
X135823360Y-76779005D01*
X135825762Y-76754619D01*
X135825762Y-76087952D01*
X135823360Y-76063566D01*
X135911498Y-76063566D01*
X135911498Y-76112338D01*
X135930162Y-76157398D01*
X135964650Y-76191886D01*
X136009710Y-76210550D01*
X136034096Y-76212952D01*
X136099826Y-76212952D01*
X136150527Y-76238302D01*
X136169459Y-76257235D01*
X136194810Y-76307936D01*
X136194810Y-76754619D01*
X136197212Y-76779005D01*
X136215876Y-76824065D01*
X136250364Y-76858553D01*
X136295424Y-76877217D01*
X136344196Y-76877217D01*
X136389256Y-76858553D01*
X136423744Y-76824065D01*
X136442408Y-76779005D01*
X136444810Y-76754619D01*
X136444810Y-76087952D01*
X136442408Y-76063566D01*
X136530546Y-76063566D01*
X136530546Y-76112338D01*
X136549210Y-76157398D01*
X136583698Y-76191886D01*
X136628758Y-76210550D01*
X136653144Y-76212952D01*
X136766239Y-76212952D01*
X136766239Y-76582252D01*
X136750449Y-76613831D01*
X136718874Y-76629619D01*
X136653144Y-76629619D01*
X136628758Y-76632021D01*
X136583698Y-76650685D01*
X136549210Y-76685173D01*
X136530546Y-76730233D01*
X136530546Y-76779005D01*
X136549210Y-76824065D01*
X136583698Y-76858553D01*
X136628758Y-76877217D01*
X136653144Y-76879619D01*
X136748382Y-76879619D01*
X136772768Y-76877217D01*
X136776916Y-76875498D01*
X136781398Y-76875180D01*
X136804284Y-76866422D01*
X136899521Y-76818804D01*
X136903598Y-76816237D01*
X136905525Y-76815595D01*
X136907924Y-76813513D01*
X136920259Y-76805749D01*
X136930525Y-76793911D01*
X136942370Y-76783639D01*
X136950137Y-76771299D01*
X136952215Y-76768904D01*
X136952856Y-76766980D01*
X136955424Y-76762901D01*
X137003043Y-76667662D01*
X137011800Y-76644777D01*
X137012118Y-76640296D01*
X137013837Y-76636147D01*
X137016239Y-76611761D01*
X137016239Y-76230809D01*
X137194811Y-76230809D01*
X137194811Y-76326047D01*
X137197213Y-76350433D01*
X137201899Y-76361747D01*
X137204276Y-76373761D01*
X137211140Y-76384058D01*
X137215877Y-76395493D01*
X137224536Y-76404152D01*
X137231330Y-76414343D01*
X137241614Y-76421230D01*
X137250365Y-76429981D01*
X137261679Y-76434667D01*
X137271855Y-76441482D01*
X137295296Y-76448620D01*
X137671001Y-76523761D01*
X137671001Y-76582252D01*
X137655211Y-76613831D01*
X137623636Y-76629619D01*
X137492177Y-76629619D01*
X137423332Y-76595197D01*
X137400446Y-76586439D01*
X137351796Y-76582981D01*
X137305526Y-76598405D01*
X137268681Y-76630361D01*
X137246869Y-76673984D01*
X137243411Y-76722634D01*
X137258835Y-76768904D01*
X137290791Y-76805749D01*
X137311528Y-76818803D01*
X137406766Y-76866422D01*
X137429652Y-76875180D01*
X137434132Y-76875498D01*
X137438282Y-76877217D01*
X137462668Y-76879619D01*
X137653144Y-76879619D01*
X137677530Y-76877217D01*
X137681678Y-76875498D01*
X137686160Y-76875180D01*
X137709046Y-76866422D01*
X137804283Y-76818804D01*
X137808360Y-76816237D01*
X137810287Y-76815595D01*
X137812686Y-76813513D01*
X137825021Y-76805749D01*
X137835287Y-76793911D01*
X137847132Y-76783639D01*
X137854899Y-76771299D01*
X137856977Y-76768904D01*
X137857618Y-76766980D01*
X137860186Y-76762901D01*
X137907805Y-76667662D01*
X137916562Y-76644777D01*
X137916880Y-76640296D01*
X137918599Y-76636147D01*
X137921001Y-76611761D01*
X137921001Y-76230809D01*
X138099572Y-76230809D01*
X138099572Y-76754619D01*
X138101974Y-76779005D01*
X138120638Y-76824065D01*
X138155126Y-76858553D01*
X138200186Y-76877217D01*
X138248958Y-76877217D01*
X138294018Y-76858553D01*
X138328506Y-76824065D01*
X138347170Y-76779005D01*
X138349572Y-76754619D01*
X138349572Y-76260317D01*
X138365359Y-76228741D01*
X138396939Y-76212952D01*
X138480779Y-76212952D01*
X138512355Y-76228740D01*
X138528144Y-76260317D01*
X138528144Y-76754619D01*
X138530546Y-76779005D01*
X138549210Y-76824065D01*
X138583698Y-76858553D01*
X138628758Y-76877217D01*
X138677530Y-76877217D01*
X138722590Y-76858553D01*
X138757078Y-76824065D01*
X138775742Y-76779005D01*
X138778144Y-76754619D01*
X138778144Y-76260317D01*
X138793932Y-76228740D01*
X138825510Y-76212952D01*
X138909350Y-76212952D01*
X138956715Y-76236634D01*
X138956715Y-76754619D01*
X138959117Y-76779005D01*
X138977781Y-76824065D01*
X139012269Y-76858553D01*
X139057329Y-76877217D01*
X139106101Y-76877217D01*
X139151161Y-76858553D01*
X139185649Y-76824065D01*
X139204313Y-76779005D01*
X139206715Y-76754619D01*
X139206715Y-76087952D01*
X139204313Y-76063566D01*
X139185649Y-76018506D01*
X139151161Y-75984018D01*
X139106101Y-75965354D01*
X139057329Y-75965354D01*
X139012269Y-75984018D01*
X139011678Y-75984608D01*
X138994760Y-75976149D01*
X138971874Y-75967391D01*
X138967392Y-75967072D01*
X138963244Y-75965354D01*
X138938858Y-75962952D01*
X138796001Y-75962952D01*
X138771615Y-75965354D01*
X138767465Y-75967072D01*
X138762985Y-75967391D01*
X138740099Y-75976149D01*
X138653144Y-76019626D01*
X138566189Y-75976149D01*
X138543303Y-75967391D01*
X138538821Y-75967072D01*
X138534673Y-75965354D01*
X138510287Y-75962952D01*
X138367430Y-75962952D01*
X138343044Y-75965354D01*
X138338894Y-75967072D01*
X138334414Y-75967391D01*
X138311529Y-75976148D01*
X138216290Y-76023767D01*
X138212210Y-76026334D01*
X138210287Y-76026976D01*
X138207891Y-76029053D01*
X138195552Y-76036821D01*
X138185279Y-76048665D01*
X138173442Y-76058932D01*
X138165677Y-76071266D01*
X138163596Y-76073666D01*
X138162953Y-76075592D01*
X138160387Y-76079670D01*
X138112769Y-76174907D01*
X138104011Y-76197793D01*
X138103692Y-76202274D01*
X138101974Y-76206423D01*
X138099572Y-76230809D01*
X137921001Y-76230809D01*
X137918599Y-76206423D01*
X137916880Y-76202273D01*
X137916562Y-76197793D01*
X137907804Y-76174907D01*
X137860185Y-76079669D01*
X137857618Y-76075592D01*
X137856977Y-76073667D01*
X137854897Y-76071268D01*
X137847131Y-76058932D01*
X137835290Y-76048662D01*
X137825021Y-76036822D01*
X137812683Y-76029055D01*
X137810286Y-76026976D01*
X137808361Y-76026334D01*
X137804283Y-76023767D01*
X137709046Y-75976149D01*
X137686160Y-75967391D01*
X137681678Y-75967072D01*
X137677530Y-75965354D01*
X137653144Y-75962952D01*
X137652853Y-75962952D01*
X137674971Y-75953790D01*
X137709458Y-75919303D01*
X137728123Y-75874243D01*
X137728123Y-75825470D01*
X137709458Y-75780410D01*
X137707358Y-75777851D01*
X139387688Y-75777851D01*
X139387688Y-75826625D01*
X139406353Y-75871684D01*
X139421898Y-75890626D01*
X139469516Y-75938245D01*
X139488458Y-75953790D01*
X139488459Y-75953791D01*
X139510576Y-75962952D01*
X139524946Y-75968904D01*
X139488459Y-75984018D01*
X139453971Y-76018506D01*
X139435307Y-76063566D01*
X139432905Y-76087952D01*
X139432905Y-76754619D01*
X139435307Y-76779005D01*
X139453971Y-76824065D01*
X139488459Y-76858553D01*
X139533519Y-76877217D01*
X139582291Y-76877217D01*
X139627351Y-76858553D01*
X139661839Y-76824065D01*
X139680503Y-76779005D01*
X139682905Y-76754619D01*
X139682905Y-76087952D01*
X139680503Y-76063566D01*
X139768641Y-76063566D01*
X139768641Y-76112338D01*
X139787305Y-76157398D01*
X139821793Y-76191886D01*
X139866853Y-76210550D01*
X139891239Y-76212952D01*
X140004334Y-76212952D01*
X140004334Y-76582252D01*
X139988544Y-76613831D01*
X139956969Y-76629619D01*
X139891239Y-76629619D01*
X139866853Y-76632021D01*
X139821793Y-76650685D01*
X139787305Y-76685173D01*
X139768641Y-76730233D01*
X139768641Y-76779005D01*
X139787305Y-76824065D01*
X139821793Y-76858553D01*
X139866853Y-76877217D01*
X139891239Y-76879619D01*
X139986477Y-76879619D01*
X140010863Y-76877217D01*
X140015011Y-76875498D01*
X140019493Y-76875180D01*
X140042379Y-76866422D01*
X140137616Y-76818804D01*
X140141693Y-76816237D01*
X140143620Y-76815595D01*
X140146019Y-76813513D01*
X140158354Y-76805749D01*
X140168620Y-76793911D01*
X140180465Y-76783639D01*
X140188232Y-76771299D01*
X140190310Y-76768904D01*
X140190951Y-76766980D01*
X140193519Y-76762901D01*
X140241138Y-76667662D01*
X140249895Y-76644777D01*
X140250213Y-76640296D01*
X140251932Y-76636147D01*
X140254334Y-76611761D01*
X140254334Y-76212952D01*
X140272191Y-76212952D01*
X140296577Y-76210550D01*
X140341637Y-76191886D01*
X140376125Y-76157398D01*
X140391641Y-76119937D01*
X140433887Y-76119937D01*
X140437345Y-76168587D01*
X140459157Y-76212210D01*
X140496002Y-76244166D01*
X140542272Y-76259590D01*
X140590922Y-76256132D01*
X140613808Y-76247374D01*
X140682653Y-76212952D01*
X140814112Y-76212952D01*
X140864813Y-76238302D01*
X140883745Y-76257235D01*
X140909096Y-76307936D01*
X140909096Y-76534633D01*
X140883744Y-76585336D01*
X140864813Y-76604268D01*
X140814112Y-76629619D01*
X140682653Y-76629619D01*
X140613808Y-76595197D01*
X140590922Y-76586439D01*
X140542272Y-76582981D01*
X140496002Y-76598405D01*
X140459157Y-76630361D01*
X140437345Y-76673984D01*
X140433887Y-76722634D01*
X140449311Y-76768904D01*
X140481267Y-76805749D01*
X140502004Y-76818803D01*
X140597242Y-76866422D01*
X140620128Y-76875180D01*
X140624608Y-76875498D01*
X140628758Y-76877217D01*
X140653144Y-76879619D01*
X140843620Y-76879619D01*
X140868006Y-76877217D01*
X140872154Y-76875498D01*
X140876636Y-76875180D01*
X140899522Y-76866422D01*
X140994759Y-76818804D01*
X141005255Y-76812196D01*
X141008305Y-76810933D01*
X141011738Y-76808114D01*
X141015497Y-76805749D01*
X141017659Y-76803255D01*
X141027247Y-76795387D01*
X141074866Y-76747768D01*
X141082072Y-76738985D01*
X141195793Y-76738985D01*
X141199250Y-76787634D01*
X141221062Y-76831259D01*
X141257908Y-76863214D01*
X141304177Y-76878637D01*
X141352826Y-76875180D01*
X141396451Y-76853368D01*
X141428406Y-76816522D01*
X141438396Y-76794147D01*
X141505144Y-76593904D01*
X141801144Y-76593904D01*
X141867891Y-76794147D01*
X141877882Y-76816522D01*
X141909837Y-76853368D01*
X141953461Y-76875180D01*
X142002111Y-76878637D01*
X142048380Y-76863214D01*
X142085226Y-76831258D01*
X142107038Y-76787634D01*
X142110495Y-76738984D01*
X142105062Y-76715090D01*
X141983125Y-76349280D01*
X142959118Y-76349280D01*
X142959118Y-76398052D01*
X142977782Y-76443112D01*
X143012270Y-76477600D01*
X143057330Y-76496264D01*
X143081716Y-76498666D01*
X143843620Y-76498666D01*
X143868006Y-76496264D01*
X143913066Y-76477600D01*
X143947554Y-76443112D01*
X143966218Y-76398052D01*
X143966218Y-76349280D01*
X143947554Y-76304220D01*
X143913066Y-76269732D01*
X143868006Y-76251068D01*
X143843620Y-76248666D01*
X143081716Y-76248666D01*
X143057330Y-76251068D01*
X143012270Y-76269732D01*
X142977782Y-76304220D01*
X142959118Y-76349280D01*
X141983125Y-76349280D01*
X141943635Y-76230809D01*
X144956716Y-76230809D01*
X144956716Y-76754619D01*
X144959118Y-76779005D01*
X144977782Y-76824065D01*
X145012270Y-76858553D01*
X145057330Y-76877217D01*
X145106102Y-76877217D01*
X145151162Y-76858553D01*
X145185650Y-76824065D01*
X145204314Y-76779005D01*
X145206716Y-76754619D01*
X145206716Y-76260317D01*
X145222504Y-76228740D01*
X145254082Y-76212952D01*
X145337922Y-76212952D01*
X145385287Y-76236634D01*
X145385287Y-76754619D01*
X145387689Y-76779005D01*
X145406353Y-76824065D01*
X145440841Y-76858553D01*
X145485901Y-76877217D01*
X145534673Y-76877217D01*
X145579733Y-76858553D01*
X145614221Y-76824065D01*
X145632885Y-76779005D01*
X145635287Y-76754619D01*
X145635287Y-76087952D01*
X145632885Y-76063566D01*
X145614221Y-76018506D01*
X145579733Y-75984018D01*
X145534673Y-75965354D01*
X145485901Y-75965354D01*
X145440841Y-75984018D01*
X145440250Y-75984608D01*
X145423332Y-75976149D01*
X145400446Y-75967391D01*
X145395964Y-75967072D01*
X145391816Y-75965354D01*
X145367430Y-75962952D01*
X145224573Y-75962952D01*
X145200187Y-75965354D01*
X145196037Y-75967072D01*
X145191557Y-75967391D01*
X145168671Y-75976149D01*
X145073433Y-76023768D01*
X145069356Y-76026334D01*
X145067431Y-76026976D01*
X145065032Y-76029055D01*
X145052696Y-76036822D01*
X145042426Y-76048662D01*
X145030586Y-76058932D01*
X145022819Y-76071269D01*
X145020740Y-76073667D01*
X145020098Y-76075591D01*
X145017531Y-76079670D01*
X144969913Y-76174907D01*
X144961155Y-76197793D01*
X144960836Y-76202274D01*
X144959118Y-76206423D01*
X144956716Y-76230809D01*
X141943635Y-76230809D01*
X141792649Y-75777851D01*
X145816260Y-75777851D01*
X145816260Y-75826625D01*
X145834925Y-75871684D01*
X145850470Y-75890626D01*
X145898088Y-75938245D01*
X145917030Y-75953790D01*
X145917031Y-75953791D01*
X145939148Y-75962952D01*
X145953518Y-75968904D01*
X145917031Y-75984018D01*
X145882543Y-76018506D01*
X145863879Y-76063566D01*
X145861477Y-76087952D01*
X145861477Y-76754619D01*
X145863879Y-76779005D01*
X145882543Y-76824065D01*
X145917031Y-76858553D01*
X145962091Y-76877217D01*
X146010863Y-76877217D01*
X146055923Y-76858553D01*
X146090411Y-76824065D01*
X146109075Y-76779005D01*
X146111477Y-76754619D01*
X146111477Y-76087952D01*
X146109075Y-76063566D01*
X146197213Y-76063566D01*
X146197213Y-76112338D01*
X146215877Y-76157398D01*
X146250365Y-76191886D01*
X146295425Y-76210550D01*
X146319811Y-76212952D01*
X146432906Y-76212952D01*
X146432906Y-76582252D01*
X146417116Y-76613831D01*
X146385541Y-76629619D01*
X146319811Y-76629619D01*
X146295425Y-76632021D01*
X146250365Y-76650685D01*
X146215877Y-76685173D01*
X146197213Y-76730233D01*
X146197213Y-76779005D01*
X146215877Y-76824065D01*
X146250365Y-76858553D01*
X146295425Y-76877217D01*
X146319811Y-76879619D01*
X146415049Y-76879619D01*
X146439435Y-76877217D01*
X146443583Y-76875498D01*
X146448065Y-76875180D01*
X146470951Y-76866422D01*
X146566188Y-76818804D01*
X146570265Y-76816237D01*
X146572192Y-76815595D01*
X146574591Y-76813513D01*
X146586926Y-76805749D01*
X146597192Y-76793911D01*
X146609037Y-76783639D01*
X146616804Y-76771299D01*
X146618882Y-76768904D01*
X146619523Y-76766980D01*
X146622091Y-76762901D01*
X146669710Y-76667662D01*
X146678467Y-76644777D01*
X146678785Y-76640296D01*
X146680504Y-76636147D01*
X146682906Y-76611761D01*
X146682906Y-76230809D01*
X146909097Y-76230809D01*
X146909097Y-76754619D01*
X146911499Y-76779005D01*
X146930163Y-76824065D01*
X146964651Y-76858553D01*
X147009711Y-76877217D01*
X147058483Y-76877217D01*
X147103543Y-76858553D01*
X147138031Y-76824065D01*
X147156695Y-76779005D01*
X147159097Y-76754619D01*
X147159097Y-76260317D01*
X147174885Y-76228740D01*
X147206463Y-76212952D01*
X147290303Y-76212952D01*
X147337668Y-76236634D01*
X147337668Y-76754619D01*
X147340070Y-76779005D01*
X147358734Y-76824065D01*
X147393222Y-76858553D01*
X147438282Y-76877217D01*
X147487054Y-76877217D01*
X147532114Y-76858553D01*
X147566602Y-76824065D01*
X147585266Y-76779005D01*
X147587668Y-76754619D01*
X147587668Y-76230809D01*
X147766240Y-76230809D01*
X147766240Y-76326047D01*
X147768642Y-76350433D01*
X147773328Y-76361747D01*
X147775705Y-76373761D01*
X147782569Y-76384058D01*
X147787306Y-76395493D01*
X147795965Y-76404152D01*
X147802759Y-76414343D01*
X147813043Y-76421230D01*
X147821794Y-76429981D01*
X147833108Y-76434667D01*
X147843284Y-76441482D01*
X147866725Y-76448620D01*
X148242430Y-76523761D01*
X148242430Y-76582252D01*
X148226640Y-76613831D01*
X148195065Y-76629619D01*
X148063606Y-76629619D01*
X147994761Y-76595197D01*
X147971875Y-76586439D01*
X147923225Y-76582981D01*
X147876955Y-76598405D01*
X147840110Y-76630361D01*
X147818298Y-76673984D01*
X147814840Y-76722634D01*
X147830264Y-76768904D01*
X147862220Y-76805749D01*
X147882957Y-76818803D01*
X147978195Y-76866422D01*
X148001081Y-76875180D01*
X148005561Y-76875498D01*
X148009711Y-76877217D01*
X148034097Y-76879619D01*
X148224573Y-76879619D01*
X148248959Y-76877217D01*
X148253107Y-76875498D01*
X148257589Y-76875180D01*
X148280475Y-76866422D01*
X148375712Y-76818804D01*
X148379789Y-76816237D01*
X148381716Y-76815595D01*
X148384115Y-76813513D01*
X148396450Y-76805749D01*
X148406716Y-76793911D01*
X148418561Y-76783639D01*
X148426328Y-76771299D01*
X148428406Y-76768904D01*
X148429047Y-76766980D01*
X148431615Y-76762901D01*
X148443573Y-76738985D01*
X148576745Y-76738985D01*
X148580203Y-76787635D01*
X148602015Y-76831258D01*
X148638860Y-76863214D01*
X148685130Y-76878638D01*
X148733780Y-76875180D01*
X148756666Y-76866422D01*
X148851903Y-76818804D01*
X148855980Y-76816237D01*
X148857907Y-76815595D01*
X148860306Y-76813513D01*
X148872641Y-76805749D01*
X148882907Y-76793911D01*
X148894752Y-76783639D01*
X148902519Y-76771299D01*
X148904597Y-76768904D01*
X148905238Y-76766980D01*
X148907806Y-76762901D01*
X148955425Y-76667662D01*
X148964182Y-76644777D01*
X148964500Y-76640296D01*
X148966219Y-76636147D01*
X148968621Y-76611761D01*
X148968621Y-76230809D01*
X149194812Y-76230809D01*
X149194812Y-76754619D01*
X149197214Y-76779005D01*
X149215878Y-76824065D01*
X149250366Y-76858553D01*
X149295426Y-76877217D01*
X149344198Y-76877217D01*
X149364923Y-76868632D01*
X149382034Y-76875180D01*
X149386514Y-76875498D01*
X149390664Y-76877217D01*
X149415050Y-76879619D01*
X149653145Y-76879619D01*
X149677531Y-76877217D01*
X149681679Y-76875498D01*
X149686161Y-76875180D01*
X149709047Y-76866422D01*
X149804284Y-76818804D01*
X149808361Y-76816237D01*
X149810288Y-76815595D01*
X149812687Y-76813513D01*
X149825022Y-76805749D01*
X149835288Y-76793911D01*
X149847133Y-76783639D01*
X149854900Y-76771299D01*
X149856978Y-76768904D01*
X149857619Y-76766980D01*
X149860187Y-76762901D01*
X149907806Y-76667662D01*
X149916563Y-76644777D01*
X149916881Y-76640296D01*
X149918600Y-76636147D01*
X149921002Y-76611761D01*
X149921002Y-76516523D01*
X149918600Y-76492137D01*
X149916881Y-76487987D01*
X149916563Y-76483507D01*
X149907805Y-76460621D01*
X149860186Y-76365383D01*
X149857619Y-76361306D01*
X149856978Y-76359381D01*
X149854898Y-76356982D01*
X149847132Y-76344646D01*
X149835291Y-76334376D01*
X149825022Y-76322536D01*
X149812684Y-76314769D01*
X149810287Y-76312690D01*
X149808362Y-76312048D01*
X149804284Y-76309481D01*
X149709047Y-76261863D01*
X149686161Y-76253105D01*
X149681679Y-76252786D01*
X149677531Y-76251068D01*
X149653145Y-76248666D01*
X149450637Y-76248666D01*
X149460600Y-76228740D01*
X149492178Y-76212952D01*
X149623637Y-76212952D01*
X149692481Y-76247374D01*
X149715367Y-76256132D01*
X149764016Y-76259589D01*
X149810287Y-76244166D01*
X149847132Y-76212210D01*
X149868943Y-76168587D01*
X149872401Y-76119937D01*
X149856978Y-76073667D01*
X149825022Y-76036822D01*
X149804284Y-76023767D01*
X149709047Y-75976149D01*
X149686161Y-75967391D01*
X149681679Y-75967072D01*
X149677531Y-75965354D01*
X149653145Y-75962952D01*
X149462669Y-75962952D01*
X149438283Y-75965354D01*
X149434133Y-75967072D01*
X149429653Y-75967391D01*
X149406767Y-75976149D01*
X149311529Y-76023768D01*
X149307452Y-76026334D01*
X149305527Y-76026976D01*
X149303128Y-76029055D01*
X149290792Y-76036822D01*
X149280522Y-76048662D01*
X149268682Y-76058932D01*
X149260915Y-76071269D01*
X149258836Y-76073667D01*
X149258194Y-76075591D01*
X149255627Y-76079670D01*
X149208009Y-76174907D01*
X149199251Y-76197793D01*
X149198932Y-76202274D01*
X149197214Y-76206423D01*
X149194812Y-76230809D01*
X148968621Y-76230809D01*
X148968621Y-75754619D01*
X148966219Y-75730233D01*
X150006738Y-75730233D01*
X150006738Y-75779005D01*
X150025402Y-75824065D01*
X150059890Y-75858553D01*
X150104950Y-75877217D01*
X150129336Y-75879619D01*
X150480526Y-75879619D01*
X150480526Y-76105809D01*
X150272193Y-76105809D01*
X150247807Y-76108211D01*
X150202747Y-76126875D01*
X150168259Y-76161363D01*
X150149595Y-76206423D01*
X150149595Y-76255195D01*
X150168259Y-76300255D01*
X150202747Y-76334743D01*
X150247807Y-76353407D01*
X150272193Y-76355809D01*
X150480526Y-76355809D01*
X150480526Y-76754619D01*
X150482928Y-76779005D01*
X150501592Y-76824065D01*
X150536080Y-76858553D01*
X150581140Y-76877217D01*
X150629912Y-76877217D01*
X150674972Y-76858553D01*
X150709460Y-76824065D01*
X150728124Y-76779005D01*
X150730526Y-76754619D01*
X150730526Y-76230809D01*
X151718622Y-76230809D01*
X151718622Y-76754619D01*
X151721024Y-76779005D01*
X151739688Y-76824065D01*
X151774176Y-76858553D01*
X151819236Y-76877217D01*
X151868008Y-76877217D01*
X151888733Y-76868632D01*
X151905844Y-76875180D01*
X151910324Y-76875498D01*
X151914474Y-76877217D01*
X151938860Y-76879619D01*
X152176955Y-76879619D01*
X152201341Y-76877217D01*
X152205489Y-76875498D01*
X152209971Y-76875180D01*
X152232857Y-76866422D01*
X152328094Y-76818804D01*
X152332171Y-76816237D01*
X152334098Y-76815595D01*
X152336497Y-76813513D01*
X152348832Y-76805749D01*
X152359098Y-76793911D01*
X152370943Y-76783639D01*
X152378710Y-76771299D01*
X152380788Y-76768904D01*
X152381429Y-76766980D01*
X152383997Y-76762901D01*
X152431616Y-76667662D01*
X152440373Y-76644777D01*
X152440691Y-76640296D01*
X152442410Y-76636147D01*
X152444812Y-76611761D01*
X152444812Y-76564142D01*
X152575765Y-76564142D01*
X152575765Y-76611761D01*
X152578167Y-76636147D01*
X152579885Y-76640296D01*
X152580204Y-76644776D01*
X152588961Y-76667662D01*
X152636580Y-76762901D01*
X152639147Y-76766979D01*
X152639789Y-76768904D01*
X152641867Y-76771300D01*
X152649634Y-76783638D01*
X152661476Y-76793909D01*
X152671745Y-76805749D01*
X152684078Y-76813513D01*
X152686479Y-76815595D01*
X152688406Y-76816237D01*
X152692482Y-76818803D01*
X152787720Y-76866422D01*
X152810606Y-76875180D01*
X152815086Y-76875498D01*
X152819236Y-76877217D01*
X152843622Y-76879619D01*
X153034098Y-76879619D01*
X153058484Y-76877217D01*
X153062632Y-76875498D01*
X153067114Y-76875180D01*
X153090000Y-76866422D01*
X153185237Y-76818804D01*
X153205975Y-76805749D01*
X153237931Y-76768904D01*
X153253354Y-76722634D01*
X153249896Y-76673984D01*
X153228085Y-76630361D01*
X153191240Y-76598405D01*
X153144969Y-76582982D01*
X153096320Y-76586439D01*
X153073434Y-76595197D01*
X153004590Y-76629619D01*
X152873131Y-76629619D01*
X152841554Y-76613830D01*
X152828614Y-76587951D01*
X152841553Y-76562073D01*
X152873131Y-76546285D01*
X152986479Y-76546285D01*
X153010865Y-76543883D01*
X153015013Y-76542164D01*
X153019495Y-76541846D01*
X153042381Y-76533088D01*
X153137618Y-76485470D01*
X153141696Y-76482902D01*
X153143621Y-76482261D01*
X153146018Y-76480181D01*
X153158356Y-76472415D01*
X153168625Y-76460574D01*
X153180466Y-76450305D01*
X153188232Y-76437968D01*
X153190312Y-76435570D01*
X153190953Y-76433644D01*
X153193520Y-76429568D01*
X153241139Y-76334330D01*
X153249897Y-76311444D01*
X153250215Y-76306963D01*
X153251934Y-76302814D01*
X153254336Y-76278428D01*
X153254336Y-76230809D01*
X153251934Y-76206423D01*
X153250215Y-76202273D01*
X153249897Y-76197793D01*
X153241139Y-76174907D01*
X153193520Y-76079669D01*
X153190953Y-76075592D01*
X153190312Y-76073667D01*
X153188232Y-76071268D01*
X153180466Y-76058932D01*
X153168625Y-76048662D01*
X153158356Y-76036822D01*
X153146018Y-76029055D01*
X153143621Y-76026976D01*
X153141696Y-76026334D01*
X153137618Y-76023767D01*
X153042381Y-75976149D01*
X153019495Y-75967391D01*
X153015013Y-75967072D01*
X153010865Y-75965354D01*
X152986479Y-75962952D01*
X152843622Y-75962952D01*
X152819236Y-75965354D01*
X152815086Y-75967072D01*
X152810606Y-75967391D01*
X152787720Y-75976149D01*
X152692482Y-76023768D01*
X152671745Y-76036822D01*
X152639789Y-76073667D01*
X152624365Y-76119937D01*
X152627823Y-76168587D01*
X152649635Y-76212210D01*
X152686480Y-76244166D01*
X152732750Y-76259590D01*
X152781400Y-76256132D01*
X152804286Y-76247374D01*
X152873131Y-76212952D01*
X152956971Y-76212952D01*
X152988547Y-76228740D01*
X153001486Y-76254618D01*
X152988547Y-76280496D01*
X152956971Y-76296285D01*
X152843622Y-76296285D01*
X152819236Y-76298687D01*
X152815086Y-76300405D01*
X152810606Y-76300724D01*
X152787720Y-76309482D01*
X152692482Y-76357101D01*
X152688405Y-76359667D01*
X152686480Y-76360309D01*
X152684081Y-76362388D01*
X152671745Y-76370155D01*
X152661475Y-76381995D01*
X152649635Y-76392265D01*
X152641868Y-76404602D01*
X152639789Y-76407000D01*
X152639147Y-76408924D01*
X152636580Y-76413003D01*
X152588962Y-76508240D01*
X152580204Y-76531126D01*
X152579885Y-76535607D01*
X152578167Y-76539756D01*
X152575765Y-76564142D01*
X152444812Y-76564142D01*
X152444812Y-76516523D01*
X152442410Y-76492137D01*
X152440691Y-76487987D01*
X152440373Y-76483507D01*
X152431615Y-76460621D01*
X152383996Y-76365383D01*
X152381429Y-76361306D01*
X152380788Y-76359381D01*
X152378708Y-76356982D01*
X152370942Y-76344646D01*
X152359101Y-76334376D01*
X152348832Y-76322536D01*
X152336494Y-76314769D01*
X152334097Y-76312690D01*
X152332172Y-76312048D01*
X152328094Y-76309481D01*
X152232857Y-76261863D01*
X152209971Y-76253105D01*
X152205489Y-76252786D01*
X152201341Y-76251068D01*
X152176955Y-76248666D01*
X151974447Y-76248666D01*
X151984410Y-76228740D01*
X152015988Y-76212952D01*
X152147447Y-76212952D01*
X152216291Y-76247374D01*
X152239177Y-76256132D01*
X152287826Y-76259589D01*
X152334097Y-76244166D01*
X152370942Y-76212210D01*
X152392753Y-76168587D01*
X152396211Y-76119937D01*
X152380788Y-76073667D01*
X152348832Y-76036822D01*
X152328094Y-76023767D01*
X152232857Y-75976149D01*
X152209971Y-75967391D01*
X152205489Y-75967072D01*
X152201341Y-75965354D01*
X152176955Y-75962952D01*
X151986479Y-75962952D01*
X151962093Y-75965354D01*
X151957943Y-75967072D01*
X151953463Y-75967391D01*
X151930577Y-75976149D01*
X151835339Y-76023768D01*
X151831262Y-76026334D01*
X151829337Y-76026976D01*
X151826938Y-76029055D01*
X151814602Y-76036822D01*
X151804332Y-76048662D01*
X151792492Y-76058932D01*
X151784725Y-76071269D01*
X151782646Y-76073667D01*
X151782004Y-76075591D01*
X151779437Y-76079670D01*
X151731819Y-76174907D01*
X151723061Y-76197793D01*
X151722742Y-76202274D01*
X151721024Y-76206423D01*
X151718622Y-76230809D01*
X150730526Y-76230809D01*
X150730526Y-75777851D01*
X153387690Y-75777851D01*
X153387690Y-75826625D01*
X153406355Y-75871684D01*
X153421900Y-75890626D01*
X153469518Y-75938245D01*
X153488460Y-75953790D01*
X153488461Y-75953791D01*
X153510578Y-75962952D01*
X153524948Y-75968904D01*
X153488461Y-75984018D01*
X153453973Y-76018506D01*
X153435309Y-76063566D01*
X153432907Y-76087952D01*
X153432907Y-76754619D01*
X153435309Y-76779005D01*
X153453973Y-76824065D01*
X153488461Y-76858553D01*
X153533521Y-76877217D01*
X153582293Y-76877217D01*
X153627353Y-76858553D01*
X153661841Y-76824065D01*
X153680505Y-76779005D01*
X153682907Y-76754619D01*
X153682907Y-76730233D01*
X153768643Y-76730233D01*
X153768643Y-76779005D01*
X153787307Y-76824065D01*
X153821795Y-76858553D01*
X153866855Y-76877217D01*
X153891241Y-76879619D01*
X154367431Y-76879619D01*
X154391817Y-76877217D01*
X154436877Y-76858553D01*
X154471365Y-76824065D01*
X154490029Y-76779005D01*
X154492431Y-76754619D01*
X154492431Y-75754619D01*
X154490029Y-75730233D01*
X154471365Y-75685173D01*
X154436877Y-75650685D01*
X154391817Y-75632021D01*
X154343045Y-75632021D01*
X154297985Y-75650685D01*
X154263497Y-75685173D01*
X154244833Y-75730233D01*
X154242431Y-75754619D01*
X154242431Y-76629619D01*
X153891241Y-76629619D01*
X153866855Y-76632021D01*
X153821795Y-76650685D01*
X153787307Y-76685173D01*
X153768643Y-76730233D01*
X153682907Y-76730233D01*
X153682907Y-76087952D01*
X153680505Y-76063566D01*
X153661841Y-76018506D01*
X153627353Y-75984018D01*
X153590865Y-75968904D01*
X153595491Y-75966988D01*
X153627353Y-75953791D01*
X153627358Y-75953785D01*
X153646295Y-75938245D01*
X153693914Y-75890627D01*
X153709459Y-75871685D01*
X153728124Y-75826625D01*
X153728124Y-75777852D01*
X153726205Y-75773218D01*
X153709459Y-75732791D01*
X153693914Y-75713849D01*
X153646295Y-75666231D01*
X153627358Y-75650690D01*
X153627353Y-75650685D01*
X153595491Y-75637487D01*
X153582294Y-75632021D01*
X153582293Y-75632021D01*
X153533520Y-75632021D01*
X153520163Y-75637554D01*
X153488461Y-75650685D01*
X153488460Y-75650686D01*
X153469518Y-75666231D01*
X153421900Y-75713850D01*
X153406356Y-75732791D01*
X153406355Y-75732792D01*
X153387690Y-75777851D01*
X150730526Y-75777851D01*
X150730526Y-75754619D01*
X150728124Y-75730233D01*
X150709460Y-75685173D01*
X150674972Y-75650685D01*
X150629912Y-75632021D01*
X150605526Y-75629619D01*
X150129336Y-75629619D01*
X150104950Y-75632021D01*
X150059890Y-75650685D01*
X150025402Y-75685173D01*
X150006738Y-75730233D01*
X148966219Y-75730233D01*
X148947555Y-75685173D01*
X148913067Y-75650685D01*
X148868007Y-75632021D01*
X148819235Y-75632021D01*
X148774175Y-75650685D01*
X148739687Y-75685173D01*
X148721023Y-75730233D01*
X148718621Y-75754619D01*
X148718621Y-76582252D01*
X148702831Y-76613831D01*
X148644862Y-76642816D01*
X148624125Y-76655870D01*
X148592169Y-76692715D01*
X148576745Y-76738985D01*
X148443573Y-76738985D01*
X148479234Y-76667662D01*
X148487991Y-76644777D01*
X148488309Y-76640296D01*
X148490028Y-76636147D01*
X148492430Y-76611761D01*
X148492430Y-76230809D01*
X148490028Y-76206423D01*
X148488309Y-76202273D01*
X148487991Y-76197793D01*
X148479233Y-76174907D01*
X148431614Y-76079669D01*
X148429047Y-76075592D01*
X148428406Y-76073667D01*
X148426326Y-76071268D01*
X148418560Y-76058932D01*
X148406719Y-76048662D01*
X148396450Y-76036822D01*
X148384112Y-76029055D01*
X148381715Y-76026976D01*
X148379790Y-76026334D01*
X148375712Y-76023767D01*
X148280475Y-75976149D01*
X148257589Y-75967391D01*
X148253107Y-75967072D01*
X148248959Y-75965354D01*
X148224573Y-75962952D01*
X148034097Y-75962952D01*
X148009711Y-75965354D01*
X148005561Y-75967072D01*
X148001081Y-75967391D01*
X147978195Y-75976149D01*
X147882957Y-76023768D01*
X147878880Y-76026334D01*
X147876955Y-76026976D01*
X147874556Y-76029055D01*
X147862220Y-76036822D01*
X147851950Y-76048662D01*
X147840110Y-76058932D01*
X147832343Y-76071269D01*
X147830264Y-76073667D01*
X147829622Y-76075591D01*
X147827055Y-76079670D01*
X147779437Y-76174907D01*
X147770679Y-76197793D01*
X147770360Y-76202274D01*
X147768642Y-76206423D01*
X147766240Y-76230809D01*
X147587668Y-76230809D01*
X147587668Y-76087952D01*
X147585266Y-76063566D01*
X147566602Y-76018506D01*
X147532114Y-75984018D01*
X147487054Y-75965354D01*
X147438282Y-75965354D01*
X147393222Y-75984018D01*
X147392631Y-75984608D01*
X147375713Y-75976149D01*
X147352827Y-75967391D01*
X147348345Y-75967072D01*
X147344197Y-75965354D01*
X147319811Y-75962952D01*
X147176954Y-75962952D01*
X147152568Y-75965354D01*
X147148418Y-75967072D01*
X147143938Y-75967391D01*
X147121052Y-75976149D01*
X147025814Y-76023768D01*
X147021737Y-76026334D01*
X147019812Y-76026976D01*
X147017413Y-76029055D01*
X147005077Y-76036822D01*
X146994807Y-76048662D01*
X146982967Y-76058932D01*
X146975200Y-76071269D01*
X146973121Y-76073667D01*
X146972479Y-76075591D01*
X146969912Y-76079670D01*
X146922294Y-76174907D01*
X146913536Y-76197793D01*
X146913217Y-76202274D01*
X146911499Y-76206423D01*
X146909097Y-76230809D01*
X146682906Y-76230809D01*
X146682906Y-76212952D01*
X146700763Y-76212952D01*
X146725149Y-76210550D01*
X146770209Y-76191886D01*
X146804697Y-76157398D01*
X146823361Y-76112338D01*
X146823361Y-76063566D01*
X146804697Y-76018506D01*
X146770209Y-75984018D01*
X146725149Y-75965354D01*
X146700763Y-75962952D01*
X146682906Y-75962952D01*
X146682906Y-75754619D01*
X146680504Y-75730233D01*
X146661840Y-75685173D01*
X146627352Y-75650685D01*
X146582292Y-75632021D01*
X146533520Y-75632021D01*
X146488460Y-75650685D01*
X146453972Y-75685173D01*
X146435308Y-75730233D01*
X146432906Y-75754619D01*
X146432906Y-75962952D01*
X146319811Y-75962952D01*
X146295425Y-75965354D01*
X146250365Y-75984018D01*
X146215877Y-76018506D01*
X146197213Y-76063566D01*
X146109075Y-76063566D01*
X146090411Y-76018506D01*
X146055923Y-75984018D01*
X146019435Y-75968904D01*
X146024061Y-75966988D01*
X146055923Y-75953791D01*
X146055928Y-75953785D01*
X146074865Y-75938245D01*
X146122484Y-75890627D01*
X146138029Y-75871685D01*
X146156694Y-75826625D01*
X146156694Y-75777852D01*
X146154775Y-75773218D01*
X146138029Y-75732791D01*
X146122484Y-75713849D01*
X146074865Y-75666231D01*
X146055928Y-75650690D01*
X146055923Y-75650685D01*
X146024061Y-75637487D01*
X146010864Y-75632021D01*
X146010863Y-75632021D01*
X145962090Y-75632021D01*
X145948733Y-75637554D01*
X145917031Y-75650685D01*
X145917030Y-75650686D01*
X145898088Y-75666231D01*
X145850470Y-75713850D01*
X145834926Y-75732791D01*
X145834925Y-75732792D01*
X145816260Y-75777851D01*
X141792649Y-75777851D01*
X141771729Y-75715091D01*
X141761739Y-75692716D01*
X141755887Y-75685968D01*
X141751893Y-75677980D01*
X141740055Y-75667713D01*
X141729784Y-75655870D01*
X141721792Y-75651874D01*
X141715047Y-75646024D01*
X141700179Y-75641068D01*
X141686159Y-75634058D01*
X141677249Y-75633424D01*
X141668778Y-75630601D01*
X141653143Y-75631711D01*
X141637510Y-75630601D01*
X141629038Y-75633424D01*
X141620128Y-75634058D01*
X141606106Y-75641069D01*
X141591241Y-75646024D01*
X141584495Y-75651874D01*
X141576504Y-75655870D01*
X141566235Y-75667710D01*
X141554395Y-75677979D01*
X141550399Y-75685969D01*
X141544549Y-75692716D01*
X141534558Y-75715091D01*
X141201226Y-76715091D01*
X141195793Y-76738985D01*
X141082072Y-76738985D01*
X141082733Y-76738180D01*
X141085226Y-76736019D01*
X141087592Y-76732259D01*
X141090411Y-76728825D01*
X141091673Y-76725776D01*
X141098280Y-76715282D01*
X141145899Y-76620044D01*
X141154657Y-76597158D01*
X141154975Y-76592677D01*
X141156694Y-76588528D01*
X141159096Y-76564142D01*
X141159096Y-76278428D01*
X141156694Y-76254042D01*
X141154975Y-76249892D01*
X141154657Y-76245412D01*
X141145899Y-76222526D01*
X141098280Y-76127288D01*
X141091673Y-76116793D01*
X141090410Y-76113743D01*
X141087591Y-76110308D01*
X141085226Y-76106551D01*
X141082734Y-76104389D01*
X141074865Y-76094801D01*
X141027246Y-76047183D01*
X141017660Y-76039316D01*
X141015497Y-76036822D01*
X141011735Y-76034453D01*
X141008304Y-76031638D01*
X141005257Y-76030376D01*
X140994759Y-76023767D01*
X140899522Y-75976149D01*
X140876636Y-75967391D01*
X140872154Y-75967072D01*
X140868006Y-75965354D01*
X140843620Y-75962952D01*
X140653144Y-75962952D01*
X140628758Y-75965354D01*
X140624608Y-75967072D01*
X140620128Y-75967391D01*
X140597242Y-75976149D01*
X140502004Y-76023768D01*
X140481267Y-76036822D01*
X140449311Y-76073667D01*
X140433887Y-76119937D01*
X140391641Y-76119937D01*
X140394789Y-76112338D01*
X140394789Y-76063566D01*
X140376125Y-76018506D01*
X140341637Y-75984018D01*
X140296577Y-75965354D01*
X140272191Y-75962952D01*
X140254334Y-75962952D01*
X140254334Y-75754619D01*
X140251932Y-75730233D01*
X140233268Y-75685173D01*
X140198780Y-75650685D01*
X140153720Y-75632021D01*
X140104948Y-75632021D01*
X140059888Y-75650685D01*
X140025400Y-75685173D01*
X140006736Y-75730233D01*
X140004334Y-75754619D01*
X140004334Y-75962952D01*
X139891239Y-75962952D01*
X139866853Y-75965354D01*
X139821793Y-75984018D01*
X139787305Y-76018506D01*
X139768641Y-76063566D01*
X139680503Y-76063566D01*
X139661839Y-76018506D01*
X139627351Y-75984018D01*
X139590863Y-75968904D01*
X139595489Y-75966988D01*
X139627351Y-75953791D01*
X139627356Y-75953785D01*
X139646293Y-75938245D01*
X139693912Y-75890627D01*
X139709457Y-75871685D01*
X139728122Y-75826625D01*
X139728122Y-75777852D01*
X139726203Y-75773218D01*
X139709457Y-75732791D01*
X139693912Y-75713849D01*
X139646293Y-75666231D01*
X139627356Y-75650690D01*
X139627351Y-75650685D01*
X139595489Y-75637487D01*
X139582292Y-75632021D01*
X139582291Y-75632021D01*
X139533518Y-75632021D01*
X139520161Y-75637554D01*
X139488459Y-75650685D01*
X139488458Y-75650686D01*
X139469516Y-75666231D01*
X139421898Y-75713850D01*
X139406354Y-75732791D01*
X139406353Y-75732792D01*
X139387688Y-75777851D01*
X137707358Y-75777851D01*
X137693913Y-75761468D01*
X137551056Y-75618612D01*
X137532114Y-75603067D01*
X137487055Y-75584402D01*
X137438281Y-75584402D01*
X137393222Y-75603067D01*
X137358735Y-75637554D01*
X137340070Y-75682613D01*
X137340070Y-75731387D01*
X137358735Y-75776446D01*
X137374280Y-75795388D01*
X137517136Y-75938245D01*
X137536078Y-75953790D01*
X137558196Y-75962952D01*
X137462668Y-75962952D01*
X137438282Y-75965354D01*
X137434132Y-75967072D01*
X137429652Y-75967391D01*
X137406766Y-75976149D01*
X137311528Y-76023768D01*
X137307451Y-76026334D01*
X137305526Y-76026976D01*
X137303127Y-76029055D01*
X137290791Y-76036822D01*
X137280521Y-76048662D01*
X137268681Y-76058932D01*
X137260914Y-76071269D01*
X137258835Y-76073667D01*
X137258193Y-76075591D01*
X137255626Y-76079670D01*
X137208008Y-76174907D01*
X137199250Y-76197793D01*
X137198931Y-76202274D01*
X137197213Y-76206423D01*
X137194811Y-76230809D01*
X137016239Y-76230809D01*
X137016239Y-76212952D01*
X137034096Y-76212952D01*
X137058482Y-76210550D01*
X137103542Y-76191886D01*
X137138030Y-76157398D01*
X137156694Y-76112338D01*
X137156694Y-76063566D01*
X137138030Y-76018506D01*
X137103542Y-75984018D01*
X137058482Y-75965354D01*
X137034096Y-75962952D01*
X137016239Y-75962952D01*
X137016239Y-75754619D01*
X137013837Y-75730233D01*
X136995173Y-75685173D01*
X136960685Y-75650685D01*
X136915625Y-75632021D01*
X136866853Y-75632021D01*
X136821793Y-75650685D01*
X136787305Y-75685173D01*
X136768641Y-75730233D01*
X136766239Y-75754619D01*
X136766239Y-75962952D01*
X136653144Y-75962952D01*
X136628758Y-75965354D01*
X136583698Y-75984018D01*
X136549210Y-76018506D01*
X136530546Y-76063566D01*
X136442408Y-76063566D01*
X136423744Y-76018506D01*
X136389256Y-75984018D01*
X136344196Y-75965354D01*
X136295424Y-75965354D01*
X136250364Y-75984018D01*
X136233900Y-76000481D01*
X136185236Y-75976149D01*
X136162350Y-75967391D01*
X136157868Y-75967072D01*
X136153720Y-75965354D01*
X136129334Y-75962952D01*
X136034096Y-75962952D01*
X136009710Y-75965354D01*
X135964650Y-75984018D01*
X135930162Y-76018506D01*
X135911498Y-76063566D01*
X135823360Y-76063566D01*
X135804696Y-76018506D01*
X135770208Y-75984018D01*
X135733720Y-75968904D01*
X135738346Y-75966988D01*
X135770208Y-75953791D01*
X135770213Y-75953785D01*
X135789150Y-75938245D01*
X135836769Y-75890627D01*
X135852314Y-75871685D01*
X135870979Y-75826625D01*
X135870979Y-75777852D01*
X135869060Y-75773218D01*
X135852314Y-75732791D01*
X135836769Y-75713849D01*
X135789150Y-75666231D01*
X135770213Y-75650690D01*
X135770208Y-75650685D01*
X135738346Y-75637487D01*
X135725149Y-75632021D01*
X135725148Y-75632021D01*
X135676375Y-75632021D01*
X135663018Y-75637554D01*
X135631316Y-75650685D01*
X135631315Y-75650686D01*
X135612373Y-75666231D01*
X135564755Y-75713850D01*
X135549211Y-75732791D01*
X135549210Y-75732792D01*
X135530545Y-75777851D01*
X131730524Y-75777851D01*
X131730524Y-75754619D01*
X131728945Y-75738591D01*
X131729075Y-75735640D01*
X131728498Y-75734054D01*
X131728122Y-75730233D01*
X131719822Y-75710196D01*
X131712407Y-75689803D01*
X131710524Y-75687747D01*
X131709458Y-75685173D01*
X131694120Y-75669835D01*
X131679467Y-75653835D01*
X131676941Y-75652656D01*
X131674970Y-75650685D01*
X131654931Y-75642384D01*
X131635271Y-75633210D01*
X131632484Y-75633087D01*
X131629910Y-75632021D01*
X131608224Y-75632021D01*
X131586546Y-75631068D01*
X131583925Y-75632021D01*
X131581138Y-75632021D01*
X131561094Y-75640323D01*
X131540709Y-75647736D01*
X131538653Y-75649618D01*
X131536078Y-75650685D01*
X131520735Y-75666027D01*
X131504740Y-75680676D01*
X131502782Y-75683980D01*
X131501590Y-75685173D01*
X131500460Y-75687900D01*
X131492251Y-75701758D01*
X131272190Y-76173315D01*
X131052131Y-75701758D01*
X131043921Y-75687900D01*
X131042792Y-75685173D01*
X131041599Y-75683980D01*
X131039642Y-75680676D01*
X131023641Y-75666022D01*
X131008304Y-75650685D01*
X131005729Y-75649618D01*
X131003674Y-75647736D01*
X130983280Y-75640320D01*
X130963244Y-75632021D01*
X130960458Y-75632021D01*
X130957837Y-75631068D01*
X130936158Y-75632021D01*
X130914472Y-75632021D01*
X130911897Y-75633087D01*
X130909111Y-75633210D01*
X130889450Y-75642384D01*
X130869412Y-75650685D01*
X130867440Y-75652656D01*
X130864915Y-75653835D01*
X130850261Y-75669835D01*
X130834924Y-75685173D01*
X130833857Y-75687747D01*
X130831975Y-75689803D01*
X130824559Y-75710196D01*
X130816260Y-75730233D01*
X130815883Y-75734054D01*
X130815307Y-75735640D01*
X130815436Y-75738591D01*
X130813858Y-75754619D01*
X130587667Y-75754619D01*
X130585265Y-75730233D01*
X130566601Y-75685173D01*
X130532113Y-75650685D01*
X130487053Y-75632021D01*
X130462667Y-75629619D01*
X130081715Y-75629619D01*
X130057329Y-75632021D01*
X130053179Y-75633739D01*
X130048699Y-75634058D01*
X130025813Y-75642816D01*
X129930575Y-75690435D01*
X129920080Y-75697041D01*
X129917030Y-75698305D01*
X129913595Y-75701123D01*
X129909838Y-75703489D01*
X129907676Y-75705980D01*
X129898088Y-75713850D01*
X129850470Y-75761469D01*
X129842603Y-75771054D01*
X129840109Y-75773218D01*
X129837740Y-75776979D01*
X129834925Y-75780411D01*
X129833663Y-75783457D01*
X129827054Y-75793956D01*
X129779436Y-75889193D01*
X129770678Y-75912079D01*
X129770359Y-75916560D01*
X129768641Y-75920709D01*
X129766239Y-75945095D01*
X129587667Y-75945095D01*
X129587667Y-75754619D01*
X129585265Y-75730233D01*
X129566601Y-75685173D01*
X129532113Y-75650685D01*
X129487053Y-75632021D01*
X129438281Y-75632021D01*
X129393221Y-75650685D01*
X129358733Y-75685173D01*
X129340069Y-75730233D01*
X129337667Y-75754619D01*
X129337667Y-76534633D01*
X129312315Y-76585336D01*
X129293384Y-76604268D01*
X129242683Y-76629619D01*
X129111224Y-76629619D01*
X129060522Y-76604268D01*
X129041590Y-76585336D01*
X129016239Y-76534634D01*
X129016239Y-75754619D01*
X129013837Y-75730233D01*
X128995173Y-75685173D01*
X128960685Y-75650685D01*
X128915625Y-75632021D01*
X128866853Y-75632021D01*
X128821793Y-75650685D01*
X128787305Y-75685173D01*
X128768641Y-75730233D01*
X128766239Y-75754619D01*
X128401349Y-75754619D01*
X128360579Y-75713850D01*
X128350993Y-75705983D01*
X128348830Y-75703489D01*
X128345068Y-75701120D01*
X128341637Y-75698305D01*
X128338590Y-75697043D01*
X128328092Y-75690434D01*
X128232855Y-75642816D01*
X128209969Y-75634058D01*
X128205487Y-75633739D01*
X128201339Y-75632021D01*
X128176953Y-75629619D01*
X127986477Y-75629619D01*
X127962091Y-75632021D01*
X127917031Y-75650685D01*
X127882543Y-75685173D01*
X127863879Y-75730233D01*
X127863879Y-75779005D01*
X127882543Y-75824065D01*
X127917031Y-75858553D01*
X127962091Y-75877217D01*
X127986477Y-75879619D01*
X128147445Y-75879619D01*
X128198146Y-75904969D01*
X128222669Y-75929493D01*
X128277039Y-76011048D01*
X128272191Y-76010571D01*
X128081715Y-76010571D01*
X128057329Y-76012973D01*
X128053179Y-76014691D01*
X128048699Y-76015010D01*
X128025813Y-76023768D01*
X127930575Y-76071387D01*
X127920080Y-76077993D01*
X127917030Y-76079257D01*
X127913595Y-76082075D01*
X127909838Y-76084441D01*
X127907676Y-76086932D01*
X127898088Y-76094802D01*
X127850470Y-76142421D01*
X127842603Y-76152006D01*
X127840109Y-76154170D01*
X127837740Y-76157931D01*
X127834925Y-76161363D01*
X127833663Y-76164409D01*
X127827054Y-76174908D01*
X127779436Y-76270145D01*
X127770678Y-76293031D01*
X127770359Y-76297512D01*
X127768641Y-76301661D01*
X127766239Y-76326047D01*
X127635286Y-76326047D01*
X127635286Y-76135571D01*
X127634866Y-76131316D01*
X127635138Y-76129494D01*
X127633788Y-76120364D01*
X127632884Y-76111185D01*
X127632179Y-76109483D01*
X127631554Y-76105254D01*
X127583935Y-75914778D01*
X127583291Y-75912978D01*
X127583228Y-75912079D01*
X127579345Y-75901932D01*
X127575690Y-75891703D01*
X127575153Y-75890978D01*
X127574470Y-75889193D01*
X127526851Y-75793955D01*
X127520244Y-75783460D01*
X127518981Y-75780410D01*
X127516162Y-75776975D01*
X127513797Y-75773218D01*
X127511305Y-75771056D01*
X127503436Y-75761468D01*
X127455817Y-75713850D01*
X127446231Y-75705983D01*
X127444068Y-75703489D01*
X127440306Y-75701120D01*
X127436875Y-75698305D01*
X127433828Y-75697043D01*
X127423330Y-75690434D01*
X127328093Y-75642816D01*
X127305207Y-75634058D01*
X127300725Y-75633739D01*
X127296577Y-75632021D01*
X127272191Y-75629619D01*
X127176953Y-75629619D01*
X127152567Y-75632021D01*
X127148417Y-75633739D01*
X127143937Y-75634058D01*
X127121051Y-75642816D01*
X127025813Y-75690435D01*
X127015318Y-75697041D01*
X127012268Y-75698305D01*
X127008833Y-75701123D01*
X127005076Y-75703489D01*
X127002914Y-75705980D01*
X126993326Y-75713850D01*
X126945708Y-75761469D01*
X126937841Y-75771054D01*
X126935347Y-75773218D01*
X126932978Y-75776979D01*
X126930163Y-75780411D01*
X126928901Y-75783457D01*
X126922292Y-75793956D01*
X126874674Y-75889193D01*
X126873990Y-75890978D01*
X126873454Y-75891703D01*
X126869798Y-75901932D01*
X126865916Y-75912079D01*
X126865852Y-75912978D01*
X126865209Y-75914778D01*
X126817590Y-76105254D01*
X126816964Y-76109483D01*
X126816260Y-76111185D01*
X126815355Y-76120366D01*
X126814006Y-76129495D01*
X126814277Y-76131316D01*
X126813858Y-76135571D01*
X126674005Y-76135571D01*
X126634666Y-75742181D01*
X126632884Y-75733292D01*
X126632884Y-75730233D01*
X126631695Y-75727362D01*
X126629849Y-75718155D01*
X126621212Y-75702055D01*
X126614220Y-75685173D01*
X126609769Y-75680722D01*
X126606794Y-75675176D01*
X126592652Y-75663605D01*
X126579732Y-75650685D01*
X126573917Y-75648276D01*
X126569046Y-75644291D01*
X126551553Y-75639013D01*
X126534672Y-75632021D01*
X126525326Y-75631100D01*
X126522352Y-75630203D01*
X126519306Y-75630507D01*
X126510286Y-75629619D01*
X126034096Y-75629619D01*
X126009710Y-75632021D01*
X125964650Y-75650685D01*
X125930162Y-75685173D01*
X125911498Y-75730233D01*
X125911498Y-75779005D01*
X125930162Y-75824065D01*
X125964650Y-75858553D01*
X126009710Y-75877217D01*
X126034096Y-75879619D01*
X126397162Y-75879619D01*
X126410257Y-76010571D01*
X126176953Y-76010571D01*
X126152567Y-76012973D01*
X126148417Y-76014691D01*
X126143937Y-76015010D01*
X126121051Y-76023768D01*
X126025813Y-76071387D01*
X126015318Y-76077993D01*
X126012268Y-76079257D01*
X126008833Y-76082075D01*
X126005076Y-76084441D01*
X126002914Y-76086932D01*
X125993326Y-76094802D01*
X125945708Y-76142421D01*
X125937841Y-76152006D01*
X125935347Y-76154170D01*
X125932978Y-76157931D01*
X125930163Y-76161363D01*
X125928901Y-76164409D01*
X125922292Y-76174908D01*
X125874674Y-76270145D01*
X125865916Y-76293031D01*
X125865597Y-76297512D01*
X125863879Y-76301661D01*
X125861477Y-76326047D01*
X125730524Y-76326047D01*
X125730524Y-76135571D01*
X125730104Y-76131316D01*
X125730376Y-76129494D01*
X125729026Y-76120364D01*
X125728122Y-76111185D01*
X125727417Y-76109483D01*
X125726792Y-76105254D01*
X125679173Y-75914778D01*
X125678529Y-75912978D01*
X125678466Y-75912079D01*
X125674583Y-75901932D01*
X125670928Y-75891703D01*
X125670391Y-75890978D01*
X125669708Y-75889193D01*
X125622089Y-75793955D01*
X125615482Y-75783460D01*
X125614219Y-75780410D01*
X125611400Y-75776975D01*
X125609035Y-75773218D01*
X125606543Y-75771056D01*
X125598674Y-75761468D01*
X125551055Y-75713850D01*
X125541469Y-75705983D01*
X125539306Y-75703489D01*
X125535544Y-75701120D01*
X125532113Y-75698305D01*
X125529066Y-75697043D01*
X125518568Y-75690434D01*
X125423331Y-75642816D01*
X125400445Y-75634058D01*
X125395963Y-75633739D01*
X125391815Y-75632021D01*
X125367429Y-75629619D01*
X125272191Y-75629619D01*
X125247805Y-75632021D01*
X125243655Y-75633739D01*
X125239175Y-75634058D01*
X125216289Y-75642816D01*
X125121051Y-75690435D01*
X125110556Y-75697041D01*
X125107506Y-75698305D01*
X125104071Y-75701123D01*
X125100314Y-75703489D01*
X125098152Y-75705980D01*
X125088564Y-75713850D01*
X125040946Y-75761469D01*
X125033079Y-75771054D01*
X125030585Y-75773218D01*
X125028216Y-75776979D01*
X125025401Y-75780411D01*
X125024139Y-75783457D01*
X125017530Y-75793956D01*
X124969912Y-75889193D01*
X124969228Y-75890978D01*
X124968692Y-75891703D01*
X124965036Y-75901932D01*
X124961154Y-75912079D01*
X124961090Y-75912978D01*
X124960447Y-75914778D01*
X124912828Y-76105254D01*
X124912202Y-76109483D01*
X124911498Y-76111185D01*
X124910593Y-76120366D01*
X124909244Y-76129495D01*
X124909515Y-76131316D01*
X124909096Y-76135571D01*
X124784096Y-76135571D01*
X124784096Y-75459402D01*
X154617431Y-75459402D01*
X154617431Y-77004619D01*
G37*
D11*
X125570000Y-99865000D03*
D12*
X125570000Y-97325000D03*
X125570000Y-94785000D03*
X125570000Y-92245000D03*
X125570000Y-89705000D03*
X125570000Y-87165000D03*
X125570000Y-84625000D03*
X125570000Y-82085000D03*
D13*
X153420000Y-80725000D03*
D14*
X153420000Y-80725000D03*
D15*
X153270000Y-107310000D03*
D16*
X151270000Y-107310000D03*
X149270000Y-107310000D03*
X147270000Y-107310000D03*
D11*
X125690000Y-105760000D03*
D12*
X128230000Y-105760000D03*
X130770000Y-105760000D03*
D17*
X135870000Y-106190000D03*
D16*
X137870000Y-106190000D03*
X139870000Y-106190000D03*
X141870000Y-106190000D03*
D13*
X153420000Y-101225000D03*
D14*
X153420000Y-101225000D03*
D18*
X125570000Y-97325000D02*
X126772081Y-97325000D01*
X130770000Y-101322919D02*
X130770000Y-105760000D01*
X153270000Y-101375000D02*
X153420000Y-101225000D01*
D19*
X135870000Y-106190000D02*
X135570000Y-105890000D01*
D18*
X153270000Y-107310000D02*
X153270000Y-101375000D01*
D19*
X130900000Y-105890000D02*
X130770000Y-105760000D01*
D18*
X126772081Y-97325000D02*
X130770000Y-101322919D01*
X130770000Y-105760000D02*
X135440000Y-105760000D01*
X135440000Y-105760000D02*
X135870000Y-106190000D01*
D19*
X125570000Y-94785000D02*
X131665000Y-94785000D01*
X131665000Y-94785000D02*
X141870000Y-104990000D01*
X142990000Y-107310000D02*
X141870000Y-106190000D01*
X141870000Y-104990000D02*
X141870000Y-106190000D01*
X147290000Y-107310000D02*
X142990000Y-107310000D01*
X134225000Y-92245000D02*
X149290000Y-107310000D01*
X125570000Y-92245000D02*
X134225000Y-92245000D01*
X147914000Y-108686000D02*
X142036000Y-108686000D01*
X142036000Y-108686000D02*
X139870000Y-106520000D01*
X139870000Y-106520000D02*
X139870000Y-106190000D01*
X149290000Y-107310000D02*
X147914000Y-108686000D01*
D18*
X137870000Y-109870000D02*
X138000000Y-110000000D01*
D19*
X151270000Y-107980000D02*
X151270000Y-107310000D01*
X149250000Y-110000000D02*
X151270000Y-107980000D01*
X129930000Y-110000000D02*
X138000000Y-110000000D01*
X125690000Y-105760000D02*
X129930000Y-110000000D01*
X125770000Y-105680000D02*
X125770000Y-100065000D01*
X125690000Y-105760000D02*
X125770000Y-105680000D01*
X125770000Y-100065000D02*
X125570000Y-99865000D01*
D18*
X137870000Y-106190000D02*
X137870000Y-109870000D01*
D19*
X138000000Y-110000000D02*
X149250000Y-110000000D01*
D20*
X124065000Y-84625000D02*
X123421000Y-85269000D01*
X128230000Y-99850000D02*
X128230000Y-105760000D01*
X124406000Y-98526000D02*
X126906000Y-98526000D01*
X126906000Y-98526000D02*
X128230000Y-99850000D01*
X123421000Y-85269000D02*
X123421000Y-97541000D01*
X123421000Y-97541000D02*
X124406000Y-98526000D01*
X125570000Y-84625000D02*
X124065000Y-84625000D01*
G04 #@! TA.AperFunction,Conductor*
G36*
X131440343Y-95338868D02*
G01*
X139796343Y-103694868D01*
X139799711Y-103703000D01*
X139796343Y-103711132D01*
X139788211Y-103714500D01*
X139725770Y-103714500D01*
X139615591Y-103729005D01*
X139439783Y-103752151D01*
X139439779Y-103752151D01*
X139439771Y-103752153D01*
X139439770Y-103752153D01*
X139161160Y-103826807D01*
X139161159Y-103826807D01*
X138894651Y-103937197D01*
X138875750Y-103948110D01*
X138867024Y-103949259D01*
X138864250Y-103948110D01*
X138845348Y-103937197D01*
X138578840Y-103826807D01*
X138300228Y-103752153D01*
X138300221Y-103752152D01*
X138300217Y-103752151D01*
X138069318Y-103721752D01*
X138014229Y-103714500D01*
X138014228Y-103714500D01*
X137725772Y-103714500D01*
X137725770Y-103714500D01*
X137615591Y-103729005D01*
X137439783Y-103752151D01*
X137439779Y-103752151D01*
X137439771Y-103752153D01*
X137439770Y-103752153D01*
X137161160Y-103826807D01*
X137161159Y-103826807D01*
X136894651Y-103937197D01*
X136644847Y-104081422D01*
X136588650Y-104124544D01*
X136415996Y-104257026D01*
X136415991Y-104257031D01*
X136415989Y-104257032D01*
X136212032Y-104460989D01*
X136212031Y-104460991D01*
X136212026Y-104460996D01*
X136126252Y-104572779D01*
X136036422Y-104689847D01*
X135892197Y-104939651D01*
X135781807Y-105206159D01*
X135781807Y-105206160D01*
X135707153Y-105484770D01*
X135707153Y-105484771D01*
X135707151Y-105484779D01*
X135707151Y-105484783D01*
X135669500Y-105770772D01*
X135669500Y-105872746D01*
X135639745Y-105889925D01*
X135620000Y-105909670D01*
X135620000Y-104815001D01*
X135619999Y-104815000D01*
X135470027Y-104815000D01*
X135470013Y-104815001D01*
X135367308Y-104825492D01*
X135367302Y-104825494D01*
X135200885Y-104880638D01*
X135200879Y-104880641D01*
X135051658Y-104972681D01*
X134927681Y-105096658D01*
X134835641Y-105245879D01*
X134835638Y-105245885D01*
X134780494Y-105412302D01*
X134780492Y-105412308D01*
X134770000Y-105515012D01*
X134770000Y-105939999D01*
X134770001Y-105940000D01*
X135589670Y-105940000D01*
X135569925Y-105959745D01*
X135520556Y-106045255D01*
X135495000Y-106140630D01*
X135495000Y-106239370D01*
X135520556Y-106334745D01*
X135569925Y-106420255D01*
X135589670Y-106440000D01*
X134770002Y-106440000D01*
X134770001Y-106440001D01*
X134770001Y-106864986D01*
X134780492Y-106967691D01*
X134780494Y-106967697D01*
X134835638Y-107134114D01*
X134835641Y-107134120D01*
X134927681Y-107283341D01*
X135051658Y-107407318D01*
X135200879Y-107499358D01*
X135200885Y-107499361D01*
X135367302Y-107554505D01*
X135367308Y-107554507D01*
X135470018Y-107564999D01*
X135620000Y-107564999D01*
X135620000Y-106470330D01*
X135639745Y-106490075D01*
X135669500Y-106507253D01*
X135669500Y-106609228D01*
X135707151Y-106895217D01*
X135707152Y-106895221D01*
X135707153Y-106895228D01*
X135707153Y-106895229D01*
X135781807Y-107173839D01*
X135781807Y-107173840D01*
X135781808Y-107173844D01*
X135781809Y-107173845D01*
X135806811Y-107234205D01*
X135892197Y-107440348D01*
X136036422Y-107690152D01*
X136036424Y-107690155D01*
X136036425Y-107690156D01*
X136212026Y-107919004D01*
X136415996Y-108122974D01*
X136638680Y-108293845D01*
X136644847Y-108298577D01*
X136894651Y-108442802D01*
X136894652Y-108442802D01*
X136894655Y-108442804D01*
X137161155Y-108553191D01*
X137161159Y-108553192D01*
X137360976Y-108606732D01*
X137367959Y-108612090D01*
X137369500Y-108617840D01*
X137369500Y-109438000D01*
X137366132Y-109446132D01*
X137358000Y-109449500D01*
X130162788Y-109449500D01*
X130154656Y-109446132D01*
X128857004Y-108148480D01*
X128853636Y-108140348D01*
X128857004Y-108132216D01*
X128862573Y-108129137D01*
X128909454Y-108118438D01*
X129169243Y-108027534D01*
X129417221Y-107908114D01*
X129492998Y-107860500D01*
X129650261Y-107761686D01*
X129650264Y-107761683D01*
X129650268Y-107761681D01*
X129865455Y-107590075D01*
X130060075Y-107395455D01*
X130231681Y-107180268D01*
X130231683Y-107180264D01*
X130231686Y-107180261D01*
X130294844Y-107079745D01*
X130318597Y-107041940D01*
X130325775Y-107036847D01*
X130331888Y-107037122D01*
X130453876Y-107076758D01*
X130663751Y-107110000D01*
X130876249Y-107110000D01*
X131086123Y-107076758D01*
X131288216Y-107011095D01*
X131477552Y-106914622D01*
X131531715Y-106875269D01*
X130899408Y-106242962D01*
X130962993Y-106225925D01*
X131077007Y-106160099D01*
X131170099Y-106067007D01*
X131235925Y-105952993D01*
X131252962Y-105889408D01*
X131885269Y-106521715D01*
X131924622Y-106467552D01*
X131943749Y-106430016D01*
X132021095Y-106278216D01*
X132086758Y-106076123D01*
X132120000Y-105866249D01*
X132120000Y-105653750D01*
X132098266Y-105516527D01*
X132086758Y-105443876D01*
X132021095Y-105241783D01*
X131924622Y-105052447D01*
X131885269Y-104998283D01*
X131252962Y-105630589D01*
X131235925Y-105567007D01*
X131170099Y-105452993D01*
X131077007Y-105359901D01*
X130962993Y-105294075D01*
X130899407Y-105277036D01*
X131531715Y-104644729D01*
X131477552Y-104605377D01*
X131288216Y-104508904D01*
X131086123Y-104443241D01*
X130876249Y-104410000D01*
X130663751Y-104410000D01*
X130453876Y-104443241D01*
X130331888Y-104482876D01*
X130323113Y-104482186D01*
X130318597Y-104478057D01*
X130231686Y-104339738D01*
X130060074Y-104124544D01*
X129865455Y-103929925D01*
X129650261Y-103758313D01*
X129417227Y-103611889D01*
X129417224Y-103611888D01*
X129417221Y-103611886D01*
X129169243Y-103492466D01*
X129169244Y-103492466D01*
X129169242Y-103492465D01*
X128909451Y-103401561D01*
X128641112Y-103340315D01*
X128641097Y-103340313D01*
X128640699Y-103340268D01*
X128633001Y-103336002D01*
X128630500Y-103328842D01*
X128630500Y-99903660D01*
X128630501Y-99903647D01*
X128630501Y-99797273D01*
X128603207Y-99695413D01*
X128603207Y-99695412D01*
X128562260Y-99624491D01*
X128550480Y-99604087D01*
X128475913Y-99529520D01*
X128475910Y-99529518D01*
X128023868Y-99077475D01*
X128020500Y-99069343D01*
X128020500Y-98952126D01*
X128020500Y-98952118D01*
X128005683Y-98763852D01*
X127946873Y-98518889D01*
X127850466Y-98286141D01*
X127718836Y-98071341D01*
X127555224Y-97879776D01*
X127363659Y-97716164D01*
X127148859Y-97584534D01*
X127113623Y-97569939D01*
X127102551Y-97565352D01*
X126919678Y-97489604D01*
X126913456Y-97483382D01*
X126912723Y-97477182D01*
X126920000Y-97431249D01*
X126920000Y-97218750D01*
X126886758Y-97008876D01*
X126847122Y-96886888D01*
X126847812Y-96878113D01*
X126851939Y-96873598D01*
X126929284Y-96825000D01*
X126990261Y-96786686D01*
X126990264Y-96786683D01*
X126990268Y-96786681D01*
X127205455Y-96615075D01*
X127400075Y-96420455D01*
X127571681Y-96205268D01*
X127571683Y-96205264D01*
X127571686Y-96205261D01*
X127718110Y-95972227D01*
X127718109Y-95972227D01*
X127718114Y-95972221D01*
X127837534Y-95724243D01*
X127928438Y-95464454D01*
X127955830Y-95344440D01*
X127960924Y-95337263D01*
X127967042Y-95335500D01*
X131432211Y-95335500D01*
X131440343Y-95338868D01*
G37*
G04 #@! TD.AperFunction*
G04 #@! TA.AperFunction,Conductor*
G36*
X157266132Y-74393868D02*
G01*
X157269500Y-74402000D01*
X157269500Y-111378000D01*
X157266132Y-111386132D01*
X157258000Y-111389500D01*
X122782000Y-111389500D01*
X122773868Y-111386132D01*
X122770500Y-111378000D01*
X122770500Y-85216273D01*
X123020500Y-85216273D01*
X123020500Y-97593726D01*
X123047791Y-97695582D01*
X123047795Y-97695592D01*
X123100519Y-97786912D01*
X123400992Y-98087385D01*
X123404360Y-98095517D01*
X123402665Y-98101526D01*
X123289533Y-98286142D01*
X123193126Y-98518890D01*
X123193125Y-98518893D01*
X123134317Y-98763846D01*
X123134317Y-98763852D01*
X123119500Y-98952118D01*
X123119500Y-100777882D01*
X123129025Y-100898910D01*
X123134317Y-100966153D01*
X123193125Y-101211106D01*
X123193126Y-101211109D01*
X123193127Y-101211111D01*
X123289534Y-101443859D01*
X123421164Y-101658659D01*
X123584776Y-101850224D01*
X123776341Y-102013836D01*
X123991141Y-102145466D01*
X124223889Y-102241873D01*
X124223892Y-102241873D01*
X124223893Y-102241874D01*
X124468847Y-102300682D01*
X124468849Y-102300682D01*
X124468852Y-102300683D01*
X124657118Y-102315500D01*
X125208000Y-102315500D01*
X125216132Y-102318868D01*
X125219500Y-102327000D01*
X125219500Y-103298000D01*
X125216132Y-103306132D01*
X125208000Y-103309500D01*
X124777118Y-103309500D01*
X124664158Y-103318390D01*
X124588846Y-103324317D01*
X124343893Y-103383125D01*
X124343890Y-103383126D01*
X124111142Y-103479533D01*
X123896344Y-103611162D01*
X123896341Y-103611164D01*
X123704776Y-103774776D01*
X123541164Y-103966341D01*
X123541162Y-103966343D01*
X123541162Y-103966344D01*
X123409533Y-104181142D01*
X123313126Y-104413890D01*
X123313125Y-104413893D01*
X123254317Y-104658846D01*
X123247966Y-104739537D01*
X123239500Y-104847118D01*
X123239500Y-106672882D01*
X123241575Y-106699243D01*
X123254317Y-106861153D01*
X123313125Y-107106106D01*
X123313126Y-107106109D01*
X123377131Y-107260630D01*
X123409534Y-107338859D01*
X123541164Y-107553659D01*
X123704776Y-107745224D01*
X123896341Y-107908836D01*
X124111141Y-108040466D01*
X124343889Y-108136873D01*
X124343892Y-108136873D01*
X124343893Y-108136874D01*
X124588847Y-108195682D01*
X124588849Y-108195682D01*
X124588852Y-108195683D01*
X124777118Y-108210500D01*
X124777127Y-108210500D01*
X126602873Y-108210500D01*
X126602882Y-108210500D01*
X126791148Y-108195683D01*
X126791151Y-108195682D01*
X126791153Y-108195682D01*
X127021636Y-108140348D01*
X127036111Y-108136873D01*
X127207372Y-108065934D01*
X127216172Y-108065934D01*
X127219903Y-108068427D01*
X129591986Y-110440510D01*
X129695892Y-110500500D01*
X129717515Y-110512984D01*
X129857525Y-110550500D01*
X149322475Y-110550500D01*
X149462485Y-110512984D01*
X149484108Y-110500500D01*
X149588015Y-110440510D01*
X150410184Y-109618339D01*
X150418315Y-109614972D01*
X150422713Y-109615846D01*
X150561155Y-109673191D01*
X150561159Y-109673192D01*
X150839771Y-109747846D01*
X150839772Y-109747846D01*
X150839783Y-109747849D01*
X151125772Y-109785500D01*
X151125776Y-109785500D01*
X151414224Y-109785500D01*
X151414228Y-109785500D01*
X151700217Y-109747849D01*
X151700228Y-109747846D01*
X151700229Y-109747846D01*
X151773136Y-109728310D01*
X151978845Y-109673191D01*
X152245345Y-109562804D01*
X152495156Y-109418575D01*
X152724004Y-109242974D01*
X152927974Y-109039004D01*
X153103575Y-108810156D01*
X153247804Y-108560345D01*
X153358191Y-108293845D01*
X153413430Y-108087691D01*
X153432846Y-108015229D01*
X153432846Y-108015228D01*
X153432845Y-108015228D01*
X153432849Y-108015217D01*
X153470500Y-107729228D01*
X153470500Y-107627253D01*
X153500255Y-107610075D01*
X153520000Y-107590330D01*
X153520000Y-108684998D01*
X153520001Y-108684999D01*
X153669973Y-108684999D01*
X153669986Y-108684998D01*
X153772691Y-108674507D01*
X153772697Y-108674505D01*
X153939114Y-108619361D01*
X153939120Y-108619358D01*
X154088341Y-108527318D01*
X154212318Y-108403341D01*
X154304358Y-108254120D01*
X154304361Y-108254114D01*
X154359505Y-108087697D01*
X154359507Y-108087691D01*
X154369999Y-107984987D01*
X154370000Y-107984975D01*
X154370000Y-107560001D01*
X154369999Y-107560000D01*
X153550330Y-107560000D01*
X153570075Y-107540255D01*
X153619444Y-107454745D01*
X153645000Y-107359370D01*
X153645000Y-107260630D01*
X153619444Y-107165255D01*
X153570075Y-107079745D01*
X153550330Y-107060000D01*
X154369998Y-107060000D01*
X154369999Y-107059999D01*
X154369999Y-106635027D01*
X154369998Y-106635013D01*
X154359507Y-106532308D01*
X154359505Y-106532302D01*
X154304361Y-106365885D01*
X154304358Y-106365879D01*
X154212318Y-106216658D01*
X154088341Y-106092681D01*
X153939120Y-106000641D01*
X153939114Y-106000638D01*
X153772697Y-105945494D01*
X153772691Y-105945492D01*
X153669987Y-105935000D01*
X153520001Y-105935000D01*
X153520000Y-105935001D01*
X153520000Y-107029670D01*
X153500255Y-107009925D01*
X153470500Y-106992746D01*
X153470500Y-106890772D01*
X153432849Y-106604783D01*
X153422189Y-106565000D01*
X153383405Y-106420255D01*
X153358191Y-106326155D01*
X153247804Y-106059655D01*
X153213730Y-106000638D01*
X153176404Y-105935987D01*
X153103577Y-105809847D01*
X153073596Y-105770775D01*
X152927974Y-105580996D01*
X152724004Y-105377026D01*
X152495156Y-105201425D01*
X152495155Y-105201424D01*
X152495152Y-105201422D01*
X152245348Y-105057197D01*
X151978840Y-104946807D01*
X151700228Y-104872153D01*
X151700221Y-104872152D01*
X151700217Y-104872151D01*
X151469318Y-104841752D01*
X151414229Y-104834500D01*
X151414228Y-104834500D01*
X151125772Y-104834500D01*
X151125770Y-104834500D01*
X151015591Y-104849005D01*
X150839783Y-104872151D01*
X150839779Y-104872151D01*
X150839771Y-104872153D01*
X150839770Y-104872153D01*
X150561160Y-104946807D01*
X150561159Y-104946807D01*
X150294651Y-105057197D01*
X150275750Y-105068110D01*
X150267024Y-105069259D01*
X150264250Y-105068110D01*
X150245348Y-105057197D01*
X149978840Y-104946807D01*
X149700228Y-104872153D01*
X149700221Y-104872152D01*
X149700217Y-104872151D01*
X149469318Y-104841752D01*
X149414229Y-104834500D01*
X149414228Y-104834500D01*
X149125772Y-104834500D01*
X149125770Y-104834500D01*
X149015591Y-104849005D01*
X148839783Y-104872151D01*
X148839779Y-104872151D01*
X148839771Y-104872153D01*
X148839770Y-104872153D01*
X148561160Y-104946807D01*
X148561159Y-104946807D01*
X148294651Y-105057197D01*
X148275750Y-105068110D01*
X148267024Y-105069259D01*
X148264250Y-105068110D01*
X148245348Y-105057197D01*
X147978840Y-104946807D01*
X147700228Y-104872153D01*
X147700221Y-104872152D01*
X147700217Y-104872151D01*
X147661155Y-104867008D01*
X147624002Y-104862116D01*
X147617371Y-104858846D01*
X134563014Y-91804489D01*
X134437489Y-91732018D01*
X134437487Y-91732017D01*
X134437485Y-91732016D01*
X134437481Y-91732015D01*
X134437479Y-91732014D01*
X134297475Y-91694500D01*
X127967042Y-91694500D01*
X127958910Y-91691132D01*
X127955830Y-91685559D01*
X127928438Y-91565548D01*
X127928438Y-91565546D01*
X127837534Y-91305757D01*
X127718114Y-91057779D01*
X127669943Y-90981117D01*
X127668469Y-90972441D01*
X127669944Y-90968882D01*
X127718110Y-90892227D01*
X127718109Y-90892227D01*
X127718114Y-90892221D01*
X127837534Y-90644243D01*
X127928438Y-90384454D01*
X127989683Y-90116121D01*
X128020500Y-89842617D01*
X128020500Y-89567383D01*
X127989683Y-89293879D01*
X127928438Y-89025546D01*
X127837534Y-88765757D01*
X127718114Y-88517779D01*
X127669943Y-88441117D01*
X127668469Y-88432441D01*
X127669944Y-88428882D01*
X127718110Y-88352227D01*
X127718109Y-88352227D01*
X127718114Y-88352221D01*
X127837534Y-88104243D01*
X127928438Y-87844454D01*
X127989683Y-87576121D01*
X128020500Y-87302617D01*
X128020500Y-87027383D01*
X127989683Y-86753879D01*
X127928438Y-86485546D01*
X127837534Y-86225757D01*
X127718114Y-85977779D01*
X127669943Y-85901117D01*
X127668469Y-85892441D01*
X127669944Y-85888882D01*
X127718110Y-85812227D01*
X127718109Y-85812227D01*
X127718114Y-85812221D01*
X127837534Y-85564243D01*
X127928438Y-85304454D01*
X127989683Y-85036121D01*
X128020500Y-84762617D01*
X128020500Y-84487383D01*
X127989683Y-84213879D01*
X127928438Y-83945546D01*
X127837534Y-83685757D01*
X127718114Y-83437779D01*
X127669943Y-83361117D01*
X127668469Y-83352441D01*
X127669944Y-83348882D01*
X127718110Y-83272228D01*
X127718114Y-83272221D01*
X127837534Y-83024243D01*
X127928438Y-82764454D01*
X127989683Y-82496121D01*
X128020500Y-82222617D01*
X128020500Y-81947383D01*
X127989683Y-81673879D01*
X127928438Y-81405546D01*
X127837534Y-81145757D01*
X127718114Y-80897779D01*
X127718110Y-80897772D01*
X127571686Y-80664738D01*
X127400074Y-80449544D01*
X127205455Y-80254925D01*
X126990261Y-80083313D01*
X126757227Y-79936889D01*
X126757224Y-79936888D01*
X126757221Y-79936886D01*
X126509243Y-79817466D01*
X126509244Y-79817466D01*
X126509242Y-79817465D01*
X126249451Y-79726561D01*
X126187674Y-79712461D01*
X125981121Y-79665317D01*
X125707617Y-79634500D01*
X125432383Y-79634500D01*
X125286526Y-79650934D01*
X125158887Y-79665316D01*
X125158886Y-79665316D01*
X125158879Y-79665317D01*
X124997047Y-79702253D01*
X124890548Y-79726561D01*
X124630757Y-79817465D01*
X124630754Y-79817467D01*
X124382775Y-79936888D01*
X124382772Y-79936889D01*
X124149738Y-80083313D01*
X123934544Y-80254925D01*
X123739925Y-80449544D01*
X123568313Y-80664738D01*
X123421889Y-80897772D01*
X123421888Y-80897775D01*
X123302467Y-81145754D01*
X123302465Y-81145757D01*
X123211561Y-81405548D01*
X123187253Y-81512047D01*
X123150317Y-81673879D01*
X123119500Y-81947383D01*
X123119500Y-82222617D01*
X123150317Y-82496121D01*
X123197461Y-82702674D01*
X123211561Y-82764451D01*
X123302465Y-83024242D01*
X123302466Y-83024243D01*
X123421886Y-83272221D01*
X123421888Y-83272224D01*
X123421889Y-83272228D01*
X123470054Y-83348882D01*
X123471529Y-83357559D01*
X123470054Y-83361118D01*
X123421889Y-83437771D01*
X123421888Y-83437775D01*
X123302467Y-83685754D01*
X123302465Y-83685757D01*
X123211561Y-83945548D01*
X123187253Y-84052047D01*
X123150317Y-84213879D01*
X123150316Y-84213886D01*
X123150316Y-84213887D01*
X123119500Y-84487384D01*
X123119500Y-84762615D01*
X123143333Y-84974148D01*
X123140896Y-84982606D01*
X123140037Y-84983568D01*
X123100520Y-85023086D01*
X123047793Y-85114411D01*
X123047401Y-85115875D01*
X123020500Y-85216273D01*
X122770500Y-85216273D01*
X122770500Y-76886054D01*
X124901852Y-76886054D01*
X124901853Y-76886054D01*
X154497430Y-76886054D01*
X154497431Y-76886054D01*
X154497431Y-75577000D01*
X124901852Y-75577000D01*
X124901852Y-76886054D01*
X122770500Y-76886054D01*
X122770500Y-74402000D01*
X122773868Y-74393868D01*
X122782000Y-74390500D01*
X157258000Y-74390500D01*
X157266132Y-74393868D01*
G37*
G04 #@! TD.AperFunction*
M02*
